<?xml version="1.0" encoding="UTF-8"?>
<svg version="1.1" xmlns="http://www.w3.org/2000/svg" width="900" height="900" viewBox="50 280 900 900">
<path d="M0 0 C1.13796021 0.04524811 2.27592041 0.09049622 3.44836426 0.13711548 C6.69250017 0.26910068 9.93611156 0.40964178 13.1796875 0.5546875 C14.16989899 0.59646622 15.16011047 0.63824493 16.18032837 0.68128967 C17.53328506 0.74599709 17.53328506 0.74599709 18.91357422 0.81201172 C19.70609589 0.8483371 20.49861755 0.88466248 21.31515503 0.92208862 C23.125 1.125 23.125 1.125 24.125 2.125 C26.68919619 2.5301844 29.23641859 2.87946546 31.8125 3.1875 C32.52083984 3.27837891 33.22917969 3.36925781 33.95898438 3.46289062 C38.04091925 3.96418087 42.00346056 4.2223592 46.125 4.125 C46.125 4.785 46.125 5.445 46.125 6.125 C46.82955322 6.16020752 47.53410645 6.19541504 48.26000977 6.23168945 C56.4511829 6.76271633 64.11432957 8.31079779 72.0625 10.3125 C73.33593262 10.62856201 74.60936523 10.94462402 75.92138672 11.27026367 C79.65992846 12.20689896 83.39330556 13.16148238 87.125 14.125 C88.09743652 14.37411133 89.06987305 14.62322266 90.07177734 14.87988281 C109.46389977 19.91578017 128.49768335 26.83574668 146.71875 35.1640625 C149.1575038 36.31043538 149.1575038 36.31043538 152.125 36.125 C152.125 36.785 152.125 37.445 152.125 38.125 C152.96417969 38.38152344 153.80335938 38.63804687 154.66796875 38.90234375 C158.41545274 40.22772509 161.90474436 41.88485836 165.4375 43.6875 C166.13335205 44.04046143 166.8292041 44.39342285 167.54614258 44.75708008 C169.01154998 45.50315638 170.47564491 46.25181568 171.93847656 47.00292969 C173.35260436 47.72862546 174.76851058 48.45087059 176.18652344 49.16894531 C201.08808546 61.79390512 224.55798081 77.4057405 246.125 95.125 C246.6720459 95.57439941 247.2190918 96.02379883 247.78271484 96.48681641 C254.85770919 102.33047567 261.6928629 108.40337856 268.421875 114.640625 C270.64344089 116.68241099 272.89319018 118.66644283 275.1875 120.625 C282.42193406 126.90991459 289.16838364 133.81858918 295.38671875 141.10546875 C297.4009877 143.44564189 299.48077392 145.71967655 301.5625 148 C305.96260434 152.88900482 310.10172703 157.92261506 314.125 163.125 C314.54056152 163.65738281 314.95612305 164.18976563 315.38427734 164.73828125 C329.93747046 183.44575909 342.82281233 203.30052701 354.125 224.125 C354.61419922 225.01977051 355.10339844 225.91454102 355.60742188 226.83642578 C400.1941757 308.8058968 414.45393967 402.04407831 390.25146484 544.45703125 C383.76785186 565.56882178 375.51307164 586.14928877 366.125 606.125 C365.69396973 607.04748535 365.26293945 607.9699707 364.81884766 608.92041016 C347.65147085 645.32608747 324.48559535 678.90481967 297.390625 708.61328125 C296.12925498 710.01166216 294.87464145 711.41652641 293.64770508 712.84521484 C288.77251372 718.5141081 283.59618964 723.83724911 278.3125 729.125 C277.45462891 729.99511719 276.59675781 730.86523438 275.71289062 731.76171875 C274.89369141 732.58285156 274.07449219 733.40398438 273.23046875 734.25 C272.48949951 734.99507812 271.74853027 735.74015625 270.98510742 736.5078125 C269.125 738.125 269.125 738.125 267.125 738.125 C267.125 738.785 267.125 739.445 267.125 740.125 C265.61712839 741.49991299 264.03960239 742.79864462 262.4375 744.0625 C258.27820356 747.38254754 254.21043659 750.76380236 250.1875 754.25 C237.90412342 764.75487354 224.77116153 774.46562837 211.125 783.125 C210.54395508 783.49898926 209.96291016 783.87297852 209.36425781 784.25830078 C199.54585937 790.57448209 189.50713785 796.40133038 179.24755859 801.96972656 C177.30093206 803.0292431 175.36252879 804.10225671 173.42578125 805.1796875 C112.87041486 838.57002972 42.98644139 854.29844773 -25.875 854.375 C-26.68372559 854.37667175 -27.49245117 854.37834351 -28.32568359 854.38006592 C-48.94786403 854.38258475 -69.37149689 852.68937232 -89.75390625 849.50537109 C-92.82897712 849.13060886 -95.78070894 849.05811213 -98.875 849.125 C-98.875 848.465 -98.875 847.805 -98.875 847.125 C-99.74463379 847.06022461 -99.74463379 847.06022461 -100.63183594 846.99414062 C-160.91733481 841.8139125 -225.45293874 811.21047659 -273.875 776.125 C-274.78765625 775.47402344 -275.7003125 774.82304688 -276.640625 774.15234375 C-287.00544428 766.70448075 -297.07774242 758.95694603 -306.73779297 750.6159668 C-309.62206201 748.10446119 -309.62206201 748.10446119 -312.875 746.125 C-312.875 745.465 -312.875 744.805 -312.875 744.125 C-313.75986084 743.7223291 -313.75986084 743.7223291 -314.66259766 743.31152344 C-316.88945016 742.1172503 -318.44151336 740.86980965 -320.2734375 739.140625 C-320.91079834 738.54217773 -321.54815918 737.94373047 -322.20483398 737.32714844 C-322.87973877 736.68293945 -323.55464355 736.03873047 -324.25 735.375 C-324.95390869 734.70758789 -325.65781738 734.04017578 -326.38305664 733.35253906 C-328.55492777 731.28474031 -330.71701195 729.20727785 -332.875 727.125 C-333.84977295 726.18527344 -333.84977295 726.18527344 -334.84423828 725.2265625 C-341.56655287 718.71219058 -347.92263993 712.1289878 -353.73046875 704.76953125 C-356.02471819 701.94037484 -358.45418641 699.28919227 -360.9375 696.625 C-365.72107464 691.41392562 -369.82157459 685.91230511 -373.875 680.125 C-374.66227666 679.03126441 -375.45141705 677.9388685 -376.2421875 676.84765625 C-378.81478148 673.29319481 -381.35185219 669.71469343 -383.875 666.125 C-384.45822021 665.29935547 -384.45822021 665.29935547 -385.05322266 664.45703125 C-404.94044479 636.11163804 -420.83814273 604.52550536 -432.875 572.125 C-433.20048828 571.25472168 -433.52597656 570.38444336 -433.86132812 569.48779297 C-443.42278244 543.70280631 -450.826199 516.9063727 -454.33666992 489.59838867 C-454.51431885 488.78217041 -454.69196777 487.96595215 -454.875 487.125 C-455.535 486.795 -456.195 486.465 -456.875 486.125 C-456.69195312 485.16851563 -456.50890625 484.21203125 -456.3203125 483.2265625 C-455.65868845 478.56246364 -456.21146406 474.15455136 -456.75 469.5 C-464.58227433 394.44180134 -453.02778005 317.9161121 -420.94677734 249.43310547 C-419.94657624 247.27914164 -418.97792879 245.11422226 -418.01953125 242.94140625 C-405.87609146 215.73788017 -388.68352953 189.23867138 -369.875 166.125 C-369.21886719 165.29097656 -368.56273437 164.45695313 -367.88671875 163.59765625 C-351.66243798 143.01655459 -333.94443216 122.16987111 -313.23828125 105.98828125 C-310.89662108 104.1420467 -308.70109461 102.19822967 -306.5 100.1875 C-249.59942708 49.21825889 -171.93941377 15.49399459 -96.64794922 4.72119141 C-95.40029785 4.53862793 -94.15264648 4.35606445 -92.8671875 4.16796875 C-91.20212158 3.93630005 -91.20212158 3.93630005 -89.50341797 3.69995117 C-86.7315707 3.34135122 -86.7315707 3.34135122 -84.875 1.125 C-82.328125 0.96484375 -82.328125 0.96484375 -79.125 1.0625 C-73.22252405 1.23304893 -67.4357869 0.83576577 -61.54785156 0.39428711 C-40.97093992 -1.11437638 -20.59895377 -0.83652891 0 0 Z M-178.875 212.125 C-179.83535156 212.87136719 -180.79570312 213.61773438 -181.78515625 214.38671875 C-233.35484734 255.47538279 -268.69406467 316.34252023 -276.80371094 382 C-282.41472073 425.30974481 -282.41472073 425.30974481 -269.55078125 465.06640625 C-268.72126953 466.08541016 -268.72126953 466.08541016 -267.875 467.125 C-267.03001953 468.19041016 -267.03001953 468.19041016 -266.16796875 469.27734375 C-260.18239324 476.04419438 -252.65053601 479.30716094 -243.7578125 480.56640625 C-234.22068772 480.95036842 -225.39306893 478.03205416 -217.875 472.125 C-207.89765495 462.86032245 -203.34492818 452.80072718 -202.7956543 439.15359497 C-202.7310928 434.71295815 -202.81328703 430.2742831 -202.89660645 425.83435059 C-203.80596432 372.53512091 -188.20202607 326.40421433 -150.85131836 287.74926758 C-133.86689458 270.5736648 -113.68517624 258.27564619 -92.24633789 247.34619141 C-81.55835807 241.7451109 -75.30667652 234.19218201 -71.0234375 222.875 C-68.61971962 214.15751649 -69.61699897 203.87981635 -73.33203125 195.671875 C-79.56006473 185.39167796 -87.30289449 179.0466065 -98.8203125 175.53125 C-127.14496458 169.93093856 -158.07733822 195.80465365 -178.875 212.125 Z M24.875 187.5 C17.55899934 196.5257182 15.2004782 206.64918969 16.125 218.125 C18.14657116 229.77876313 24.90299759 238.08724288 34.125 245.125 C37.94732133 247.43575055 41.87133568 249.49723581 45.85745239 251.51043701 C57.19802148 257.25532683 67.98313763 263.42581327 78.125 271.125 C79.03894531 271.79917969 79.95289063 272.47335937 80.89453125 273.16796875 C118.95793354 302.67138552 142.08486217 345.5796516 148.81640625 392.80078125 C149.88494511 401.35442148 150.1755165 409.8298331 150.1015625 418.44140625 C150.09547974 419.27353134 150.08939697 420.10565643 150.08312988 420.96299744 C150.04758977 425.15575197 149.98386525 429.34534753 149.87597656 433.53686523 C149.63252054 446.35417104 150.86153363 458.41226621 160.125 468.125 C167.54028309 475.74408579 175.97450027 480.16646539 186.6875 480.4375 C197.76740999 480.28940886 206.38767088 475.98095938 214.125 468.125 C223.52196324 456.44515868 225.24021653 443.12077627 225.328125 428.59375 C225.33871445 427.41596481 225.33871445 427.41596481 225.34951782 426.21438599 C225.53655289 399.2437969 223.25105967 374.24763453 216.125 348.125 C215.81175781 346.97547852 215.81175781 346.97547852 215.4921875 345.80273438 C210.85082926 329.17120067 204.08452052 313.1576679 196.05126953 297.89648438 C195.20048399 296.26936263 194.37809924 294.62747329 193.55859375 292.984375 C185.19139122 276.62743773 174.28807504 261.67649588 162.43994141 247.69018555 C160.62830735 245.53378266 158.88430947 243.32413684 157.125 241.125 C155.10459252 238.85308584 155.10459252 238.85308584 153.125 237.125 C152.465 237.125 151.805 237.125 151.125 237.125 C150.898125 236.568125 150.67125 236.01125 150.4375 235.4375 C143.61292371 223.41324653 128.17785242 214.11955243 117.125 206.125 C116.27784424 205.50794189 116.27784424 205.50794189 115.41357422 204.87841797 C106.96244295 198.75154063 98.11808443 193.42260765 89.06738281 188.23974609 C87.78671718 187.50476378 86.50989693 186.76303428 85.23730469 186.01416016 C81.93757343 184.08441457 78.70334946 182.46114651 75.125 181.125 C72.10288347 179.83497419 69.08135405 178.54373892 66.0625 177.24609375 C50.82920258 171.43232199 35.61453547 175.74020865 24.875 187.5 Z M-195.7578125 559.7734375 C-203.77316363 568.67609687 -205.29765626 577.81105964 -205.08203125 589.3984375 C-204.57047973 598.60636485 -200.88315306 604.30902804 -194.875 611.125 C-194.14023437 611.98351562 -194.14023437 611.98351562 -193.390625 612.859375 C-158.1087276 651.05111961 -92.3623134 670.83838982 -41.875 673.125 C21.51057628 675.42151175 91.09838148 657.65414254 139.125 614.125 C147.48508563 605.8901591 151.33428794 597.85948537 151.5 586.125 C151.5385443 574.82188522 148.17967824 566.20707248 140.20703125 558.02734375 C132.34055793 550.83977807 123.18118313 547.95198058 112.4609375 548.21484375 C101.19345245 549.50360838 93.76819024 553.6519284 85.1875 560.7578125 C48.74281822 588.92806398 -0.53930268 602.697088 -46.27319336 597.3046875 C-70.97981816 593.9777322 -93.92178267 586.9339169 -115.875 575.125 C-117.59396484 574.22007812 -117.59396484 574.22007812 -119.34765625 573.296875 C-126.32936716 569.48138201 -132.62491886 565.177996 -139 560.4375 C-157.52960213 546.74551287 -177.74373062 543.13066982 -195.7578125 559.7734375 Z " fill="#0081D5" transform="translate(538.875,310.875)"/>
<path d="M0 0 C0.495 1.485 0.495 1.485 1 3 C0.21496094 3.49628906 -0.57007813 3.99257813 -1.37890625 4.50390625 C-7.57143049 8.50815198 -13.09426477 12.47241101 -18 18 C-18.99 17.67 -19.98 17.34 -21 17 C-21.26425781 17.59022949 -21.52851563 18.18045898 -21.80078125 18.78857422 C-23.04344772 21.08012 -24.33318686 22.562976 -26.1875 24.3828125 C-26.80367188 24.99253906 -27.41984375 25.60226562 -28.0546875 26.23046875 C-29.01761719 27.16826172 -29.01761719 27.16826172 -30 28.125 C-30.64195312 28.75792969 -31.28390625 29.39085937 -31.9453125 30.04296875 C-33.13445857 31.21470055 -34.32564804 32.3843648 -35.51953125 33.55126953 C-36.68685465 34.69356786 -37.84512135 35.84512135 -39 37 C-39.99 36.34 -40.98 35.68 -42 35 C-28.91365657 21.48282136 -16.16033926 9.78040572 0 0 Z " fill="#005F9F" transform="translate(422,571)"/>
<path d="M0 0 C0.33 0 0.66 0 1 0 C3.11435186 18.80262901 3.60010483 37.1416216 2 56 C-0.11199732 52.83200403 -0.26317492 51.97081548 -0.3347168 48.33251953 C-0.35781418 47.38788849 -0.38091156 46.44325745 -0.40470886 45.47000122 C-0.41939713 44.45122894 -0.43408539 43.43245667 -0.44921875 42.3828125 C-0.47095657 41.33350555 -0.4926944 40.28419861 -0.51509094 39.20309448 C-0.55902276 36.98232518 -0.59821914 34.76145793 -0.63305664 32.54052734 C-0.68717828 29.14518348 -0.75740923 25.75046096 -0.83007812 22.35546875 C-0.87074985 20.19793452 -0.91049398 18.04038256 -0.94921875 15.8828125 C-0.96997971 14.86808868 -0.99074066 13.85336487 -1.01213074 12.80789185 C-1.02577164 11.85695648 -1.03941254 10.90602112 -1.0534668 9.92626953 C-1.06741989 9.09370636 -1.08137299 8.26114319 -1.0957489 7.40335083 C-0.99384852 4.84559447 -0.56487258 2.4931864 0 0 Z " fill="#005A97" transform="translate(687,699)"/>
<path d="M0 0 C0 0.33 0 0.66 0 1 C-12.37015938 1.88895174 -24.66340123 2.12554828 -37.0625 2.0625 C-38.8157539 2.05746611 -40.56900924 2.0529066 -42.32226562 2.04882812 C-46.54821347 2.03799243 -50.77409012 2.02083624 -55 2 C-55 1.67 -55 1.34 -55 1 C-49.06 0.505 -49.06 0.505 -43 0 C-43 -0.33 -43 -0.66 -43 -1 C-38.57092712 -1.14384827 -34.14180964 -1.28621133 -29.71264648 -1.42724609 C-28.20840186 -1.47534835 -26.70416976 -1.52384423 -25.19995117 -1.57275391 C-23.02786446 -1.64330893 -20.85573543 -1.71241062 -18.68359375 -1.78125 C-16.72764282 -1.8440918 -16.72764282 -1.8440918 -14.73217773 -1.90820312 C-3.41644619 -2.18652556 -3.41644619 -2.18652556 0 0 Z " fill="#005790" transform="translate(548,1163)"/>
<path d="M0 0 C-3.1911321 2.1274214 -3.97892193 2.24923679 -7.63574219 2.24291992 C-9.04300568 2.24753487 -9.04300568 2.24753487 -10.47869873 2.25224304 C-11.4911969 2.24505753 -12.50369507 2.23787201 -13.546875 2.23046875 C-15.1137204 2.22978142 -15.1137204 2.22978142 -16.71221924 2.2290802 C-18.92469415 2.22605724 -21.13716692 2.21816966 -23.34960938 2.20581055 C-26.72273376 2.18764682 -30.09558199 2.1853003 -33.46875 2.18554688 C-35.61979402 2.18062781 -37.77083619 2.17479781 -39.921875 2.16796875 C-41.42847687 2.16629951 -41.42847687 2.16629951 -42.96551514 2.16459656 C-48.08172656 2.1302663 -52.95748706 1.87915117 -58 1 C-58 0.67 -58 0.34 -58 0 C-38.58156759 -0.86491553 -19.42594367 -1.05282551 0 0 Z " fill="#005F9D" transform="translate(539,311)"/>
<path d="M0 0 C0.33 0 0.66 0 1 0 C1.02497411 5.3344693 1.04298798 10.66890354 1.05493164 16.00341797 C1.05991803 17.81299432 1.06670954 19.62256674 1.07543945 21.43212891 C1.12197817 31.33666213 1.1159229 41.14163264 0 51 C-0.99 51 -1.98 51 -3 51 C-2.9285376 50.27981689 -2.8570752 49.55963379 -2.78344727 48.81762695 C-1.90349626 38.92759245 -1.88512259 29.10857264 -1.9375 19.1875 C-1.94252944 17.51237114 -1.94708977 15.83724081 -1.95117188 14.16210938 C-1.96205292 10.10803561 -1.97923629 6.05403469 -2 2 C-1.34 2 -0.68 2 0 2 C0 1.34 0 0.68 0 0 Z " fill="#0066A8" transform="translate(765,710)"/>
<path d="M0 0 C1.17691406 0.06058594 2.35382813 0.12117187 3.56640625 0.18359375 C5.23176301 0.26838301 6.89712832 0.35300437 8.5625 0.4375 C9.44695801 0.48261719 10.33141602 0.52773438 11.24267578 0.57421875 C16.2404174 0.82519514 21.23817993 1.05502529 26.23828125 1.25390625 C27.26171631 1.29523682 28.28515137 1.33656738 29.33959961 1.37915039 C31.32857065 1.45833809 33.31766667 1.53446004 35.30688477 1.60717773 C39.95161478 1.79365244 44.4281298 2.08256785 49 3 C49 3.33 49 3.66 49 4 C15.70460652 4.41277905 15.70460652 4.41277905 0 2 C0 1.34 0 0.68 0 0 Z " fill="#0071B9" transform="translate(477,982)"/>
<path d="M0 0 C2 2 2 2 2.15112305 5.62011719 C2.11548246 7.17932158 2.06818781 8.73828595 2.01171875 10.296875 C1.98906448 11.12326477 1.96641022 11.94965454 1.94306946 12.80108643 C1.89305167 14.55308198 1.83807729 16.3049419 1.77856445 18.05664062 C1.68834347 20.72505312 1.61331619 23.39354803 1.54101562 26.0625 C1.4904838 27.76565195 1.4390793 29.46877829 1.38671875 31.171875 C1.36373215 31.96583679 1.34074554 32.75979858 1.31706238 33.57781982 C1.16916044 37.80121979 0.80877463 41.83869061 0 46 C-0.33 46 -0.66 46 -1 46 C-1.0248966 40.89542996 -1.04295235 35.79089603 -1.05493164 30.6862793 C-1.05993075 28.95320011 -1.06673224 27.22012507 -1.07543945 25.48706055 C-1.08770027 22.98224862 -1.09327266 20.47749292 -1.09765625 17.97265625 C-1.10539818 16.82833885 -1.10539818 16.82833885 -1.11329651 15.66090393 C-1.11383644 10.3703667 -0.65827807 5.25028011 0 0 Z " fill="#015791" transform="translate(336,706)"/>
<path d="M0 0 C0.495 0.99 0.495 0.99 1 2 C-12.03350454 4.11865386 -24.820547 4.22520096 -38 4 C-34.75371723 1.83581148 -33.38871228 1.65490871 -29.58984375 1.3671875 C-28.51669922 1.28339844 -27.44355469 1.19960938 -26.33789062 1.11328125 C-25.21576172 1.03464844 -24.09363281 0.95601562 -22.9375 0.875 C-21.84244141 0.78863281 -20.74738281 0.70226562 -19.61914062 0.61328125 C-13.06674117 0.1215586 -6.57002196 -0.11664404 0 0 Z " fill="#004A80" transform="translate(539,906)"/>
<path d="M0 0 C2.625 0.9375 2.625 0.9375 5 2 C5 2.66 5 3.32 5 4 C6.21042969 4.36738281 6.21042969 4.36738281 7.4453125 4.7421875 C11.73849149 6.26131237 15.77266742 8.15727098 19.875 10.125 C20.65875 10.49753906 21.4425 10.87007812 22.25 11.25390625 C24.16813499 12.16618997 26.08427329 13.08266984 28 14 C28 14.99 28 15.98 28 17 C21.39538102 15.06406164 15.59634955 12.40076859 9.625 9 C8.83222656 8.56171875 8.03945313 8.1234375 7.22265625 7.671875 C3.72308771 5.70595832 0.7507875 3.96156352 -2 1 C-1.34 0.67 -0.68 0.34 0 0 Z " fill="#0063A7" transform="translate(411,877)"/>
<path d="M0 0 C0.66 0.66 1.32 1.32 2 2 C0.96101563 2.70125 -0.07796875 3.4025 -1.1484375 4.125 C-8.27272997 8.96175408 -15.28004019 13.804936 -21.88671875 19.34375 C-24.15258104 21.11958292 -26.50582408 22.56726847 -29 24 C-29 23.01 -29 22.02 -29 21 C-28.34 21 -27.68 21 -27 21 C-27 20.34 -27 19.68 -27 19 C-25.3203125 17.4921875 -25.3203125 17.4921875 -23.125 15.875 C-22.40570313 15.33617187 -21.68640625 14.79734375 -20.9453125 14.2421875 C-19 13 -19 13 -17 13 C-17 12.34 -17 11.68 -17 11 C-15.43945312 9.76318359 -15.43945312 9.76318359 -13.28125 8.3984375 C-12.51425781 7.90859375 -11.74726563 7.41875 -10.95703125 6.9140625 C-10.14621094 6.40617188 -9.33539063 5.89828125 -8.5 5.375 C-7.68917969 4.859375 -6.87835938 4.34375 -6.04296875 3.8125 C-4.0325603 2.53529934 -2.01819603 1.26484563 0 0 Z " fill="#0062A5" transform="translate(379,507)"/>
<path d="M0 0 C0.94996505 2.54683883 1.12145799 3.67888505 0.14453125 6.26171875 C-0.29503906 7.06222656 -0.73460937 7.86273437 -1.1875 8.6875 C-2.97629579 12.0421115 -4.6384508 15.37553593 -6.125 18.875 C-7.46441007 21.95028552 -8.98784585 24.3171278 -11 27 C-12.42403688 29.96199672 -13.725065 32.97122041 -15 36 C-15.66 36 -16.32 36 -17 36 C-15.39185765 30.68799786 -13.13941374 25.80485377 -10.75 20.8125 C-10.15264038 19.55699341 -10.15264038 19.55699341 -9.54321289 18.27612305 C-6.56484284 12.06423131 -3.42606756 5.97882378 0 0 Z " fill="#005A93" transform="translate(133,530)"/>
<path d="M0 0 C0.66 0 1.32 0 2 0 C0.32012676 5.91908276 -2.51914323 11.14764525 -5.375 16.5625 C-6.09816406 17.96145508 -6.09816406 17.96145508 -6.8359375 19.38867188 C-9.22493205 23.94269274 -11.55281592 28.1362131 -15 32 C-15 28.11728647 -14.78367479 27.10340379 -13.03125 23.890625 C-12.62519531 23.13652344 -12.21914063 22.38242187 -11.80078125 21.60546875 C-11.37152344 20.82816406 -10.94226563 20.05085937 -10.5 19.25 C-10.07074219 18.45722656 -9.64148438 17.66445313 -9.19921875 16.84765625 C-8.1401594 14.89428011 -7.07359437 12.94541391 -6 11 C-5.34 11 -4.68 11 -4 11 C-4.33 9.68 -4.66 8.36 -5 7 C-4.34 7 -3.68 7 -3 7 C-2.690625 6.030625 -2.38125 5.06125 -2.0625 4.0625 C-1 1 -1 1 0 0 Z " fill="#005A95" transform="translate(901,919)"/>
<path d="M0 0 C0.33 0.66 0.66 1.32 1 2 C0.00829802 4.81930987 -1.04820492 7.5533181 -2.1875 10.3125 C-5.19466254 17.78802554 -7.79391643 25.24445157 -10 33 C-10.66 32.67 -11.32 32.34 -12 32 C-11.03306255 21.3636881 -6.74117009 10.49846661 -2 1 C-1.34 0.67 -0.68 0.34 0 0 Z " fill="#0060A0" transform="translate(280,625)"/>
<path d="M0 0 C-2.05969623 1.04395562 -4.1226123 2.0554982 -6.2265625 3.0078125 C-12.05331637 5.72190306 -16.73601279 9.01378478 -21.66015625 13.12890625 C-24.61999133 15.49578605 -27.64627144 17.25022858 -31 19 C-30.67 17.68 -30.34 16.36 -30 15 C-28.35 14.67 -26.7 14.34 -25 14 C-25 13.34 -25 12.68 -25 12 C-20.52941176 8 -20.52941176 8 -18 8 C-18 7.34 -18 6.68 -18 6 C-12.70040252 1.99298727 -6.80792051 -2.26930684 0 0 Z " fill="#005D9D" transform="translate(645,860)"/>
<path d="M0 0 C0.33 1.32 0.66 2.64 1 4 C0.113125 4.721875 -0.77375 5.44375 -1.6875 6.1875 C-6.50002098 10.21108312 -10.60627691 14.62018665 -14.47265625 19.546875 C-16.26556821 21.25266336 -17.58749134 21.60569751 -20 22 C-14.35637649 13.70055366 -7.15462835 6.97821286 0 0 Z " fill="#00619F" transform="translate(208,433)"/>
<path d="M0 0 C0.33 0 0.66 0 1 0 C1.19148936 20.53191489 1.19148936 20.53191489 0 30 C-1.77086425 26.93967576 -2.25601711 24.7137289 -2.265625 21.19140625 C-2.26820313 20.27939453 -2.27078125 19.36738281 -2.2734375 18.42773438 C-2.26570312 17.48220703 -2.25796875 16.53667969 -2.25 15.5625 C-2.25773438 14.62083984 -2.26546875 13.67917969 -2.2734375 12.70898438 C-2.26032162 8.06268433 -2.24712506 4.19998375 0 0 Z " fill="#005994" transform="translate(943,751)"/>
<path d="M0 0 C0.66 0 1.32 0 2 0 C1.34 10.89 0.68 21.78 0 33 C-0.33 33 -0.66 33 -1 33 C-2.19897393 22.50897812 -3.18016707 11.41635379 -1 1 C-0.67 0.67 -0.34 0.34 0 0 Z " fill="#005A94" transform="translate(261,689)"/>
<path d="M0 0 C0.66 0.33 1.32 0.66 2 1 C-4 7 -10 13 -16 19 C-16.99 18.34 -17.98 17.68 -19 17 C-16.7792539 14.72080138 -14.54697896 12.45323041 -12.3125 10.1875 C-11.68666016 9.54490234 -11.06082031 8.90230469 -10.41601562 8.24023438 C-4.11970113 1.87798988 -4.11970113 1.87798988 0 0 Z " fill="#0073C0" transform="translate(399,589)"/>
<path d="M0 0 C3.465 1.485 3.465 1.485 7 3 C3.10679246 5.28222511 -1.09000839 6.15910105 -5.4375 7.1875 C-6.18837891 7.37763672 -6.93925781 7.56777344 -7.71289062 7.76367188 C-11.79928053 8.73764871 -14.87485774 9.28756925 -19 8 C-18.67 7.34 -18.34 6.68 -18 6 C-16.23413086 5.49755859 -16.23413086 5.49755859 -13.96484375 5.1484375 C-12.75151367 4.95507812 -12.75151367 4.95507812 -11.51367188 4.7578125 C-10.2384668 4.56832031 -10.2384668 4.56832031 -8.9375 4.375 C-7.65649414 4.17390625 -7.65649414 4.17390625 -6.34960938 3.96875 C-4.23430411 3.63786426 -2.11729396 3.31791201 0 3 C0 2.01 0 1.02 0 0 Z " fill="#0062A5" transform="translate(559,898)"/>
<path d="M0 0 C2.06473432 0.76482838 4.1267021 1.53712765 6.1875 2.3125 C7.33605469 2.74175781 8.48460937 3.17101562 9.66796875 3.61328125 C12.66239162 4.85949475 15.25157231 6.29674904 18 8 C20.19130534 8.69579454 20.19130534 8.69579454 22 9 C22.33 10.32 22.66 11.64 23 13 C22.278125 12.690625 21.55625 12.38125 20.8125 12.0625 C18.19692691 11.07439461 15.74881018 10.4712246 13 10 C13 9.34 13 8.68 13 8 C12.195625 7.7525 11.39125 7.505 10.5625 7.25 C6.25675857 5.73921353 2.14635993 3.89811144 -2 2 C-1.34 1.34 -0.68 0.68 0 0 Z " fill="#005C99" transform="translate(603,485)"/>
<path d="M0 0 C3.16012613 0.33858494 3.95432113 0.94601588 6.0625 3.4375 C6.701875 4.283125 7.34125 5.12875 8 6 C8.99 6.66 9.98 7.32 11 8 C11 8.66 11 9.32 11 10 C11.99 10.33 12.98 10.66 14 11 C15.60546875 12.84765625 15.60546875 12.84765625 17.1875 15.0625 C17.71730469 15.79597656 18.24710938 16.52945312 18.79296875 17.28515625 C19.19128906 17.85105469 19.58960938 18.41695312 20 19 C17 19 17 19 15.31420898 17.68652344 C14.71423096 17.08356445 14.11425293 16.48060547 13.49609375 15.859375 C12.83802734 15.20066406 12.17996094 14.54195312 11.50195312 13.86328125 C10.82068359 13.16589844 10.13941406 12.46851563 9.4375 11.75 C8.75236328 11.06808594 8.06722656 10.38617187 7.36132812 9.68359375 C4.30547253 6.59475051 1.78610095 4.00643493 0 0 Z " fill="#005A94" transform="translate(190,1020)"/>
<path d="M0 0 C0.66 0.33 1.32 0.66 2 1 C-3.03478971 9.56256754 -8.12725415 17.97454345 -14 26 C-15 23 -15 23 -14.36328125 21.09765625 C-14.01652344 20.42605469 -13.66976562 19.75445313 -13.3125 19.0625 C-12.97863281 18.39347656 -12.64476562 17.72445312 -12.30078125 17.03515625 C-11 15 -11 15 -9.08984375 13.10546875 C-6.68876855 10.68644159 -5.04218165 8.14506267 -3.25 5.25 C-2.32960938 3.77273438 -2.32960938 3.77273438 -1.390625 2.265625 C-0.93171875 1.51796875 -0.4728125 0.7703125 0 0 Z " fill="#00609E" transform="translate(884,951)"/>
<path d="M0 0 C3.79549322 5.69323983 2.48152889 14.58778666 1.546875 21.2109375 C1.08891789 23.49418078 0.5933364 25.74850028 0 28 C-0.33 28 -0.66 28 -1 28 C-1.02898097 23.89584811 -1.0467922 19.79172247 -1.0625 15.6875 C-1.07087891 14.52025391 -1.07925781 13.35300781 -1.08789062 12.15039062 C-1.09111328 11.03212891 -1.09433594 9.91386719 -1.09765625 8.76171875 C-1.10289307 7.73006592 -1.10812988 6.69841309 -1.11352539 5.63549805 C-1 3 -1 3 0 0 Z " fill="#00497D" transform="translate(81,720)"/>
<path d="M0 0 C3.45869449 0.82455277 6.91033887 1.18969043 10.44140625 1.58203125 C8.3268216 3.44403799 7.05072294 4.53075179 4.19897461 4.77075195 C3.40112549 4.68398193 2.60327637 4.59721191 1.78125 4.5078125 C0.46737305 4.37149414 0.46737305 4.37149414 -0.87304688 4.23242188 C-2.23333008 4.06516602 -2.23333008 4.06516602 -3.62109375 3.89453125 C-4.53181641 3.80236328 -5.44253906 3.71019531 -6.38085938 3.61523438 C-13.13636631 2.86351621 -13.13636631 2.86351621 -16.55859375 0.58203125 C-10.56171269 -1.30104734 -6.10331345 -1.48045944 0 0 Z " fill="#005E9D" transform="translate(568.55859375,313.41796875)"/>
<path d="M0 0 C-0.33 0.99 -0.66 1.98 -1 3 C-3.77799075 3.89122235 -6.40909536 4.58410125 -9.25 5.1875 C-10.39662109 5.45336914 -10.39662109 5.45336914 -11.56640625 5.72460938 C-15.43754656 6.59043437 -19.00778876 7.23154825 -23 7 C-23.33 6.01 -23.66 5.02 -24 4 C-20.56336386 3.32882733 -17.12555959 2.66383929 -13.6875 2 C-12.71103516 1.80921875 -11.73457031 1.6184375 -10.72851562 1.421875 C-9.79072266 1.24140625 -8.85292969 1.0609375 -7.88671875 0.875 C-7.02264404 0.70742188 -6.15856934 0.53984375 -5.26831055 0.3671875 C-3 0 -3 0 0 0 Z " fill="#0064A8" transform="translate(571,977)"/>
<path d="M0 0 C-0.57421875 1.921875 -0.57421875 1.921875 -2 4 C-5.08203125 4.828125 -5.08203125 4.828125 -8.8125 5.25 C-10.03582031 5.39953125 -11.25914062 5.5490625 -12.51953125 5.703125 C-15.37462126 5.94665681 -18.13835812 6.06540896 -21 6 C-21 5.34 -21 4.68 -21 4 C-18.06520402 3.13541688 -15.12778481 2.28302813 -12.1875 1.4375 C-11.35412109 1.19064453 -10.52074219 0.94378906 -9.66210938 0.68945312 C-8.85966797 0.46064453 -8.05722656 0.23183594 -7.23046875 -0.00390625 C-6.49207764 -0.21861572 -5.75368652 -0.4333252 -4.99291992 -0.65454102 C-3 -1 -3 -1 0 0 Z " fill="#0061A4" transform="translate(594,972)"/>
<path d="M0 0 C1.65 0.33 3.3 0.66 5 1 C5 1.66 5 2.32 5 3 C5.70125 3.0825 6.4025 3.165 7.125 3.25 C13.3553877 4.87531853 17.40578496 8.88096645 21 14 C20.67 14.99 20.34 15.98 20 17 C19.319375 16.29875 18.63875 15.5975 17.9375 14.875 C16.9632514 13.91166735 15.98363203 12.95374953 15 12 C14.48050781 11.49597656 13.96101563 10.99195313 13.42578125 10.47265625 C9.0453588 6.4598217 4.5253901 4.12996897 -1 2 C-0.67 1.34 -0.34 0.68 0 0 Z " fill="#005996" transform="translate(443,486)"/>
<path d="M0 0 C0 0.33 0 0.66 0 1 C2.97 1.495 2.97 1.495 6 2 C6 2.33 6 2.66 6 3 C-3.76041066 3.32001346 -13.32032595 2.11306313 -23 1 C-16.67951601 -3.21365599 -7.24575188 -0.95026254 0 0 Z " fill="#015892" transform="translate(483,1161)"/>
<path d="M0 0 C-0.66 0.66 -1.32 1.32 -2 2 C-4.828125 1.9765625 -4.828125 1.9765625 -8.25 1.625 C-11.64362034 1.28876573 -14.88551134 0.9970157 -18.296875 1.0859375 C-21 1 -21 1 -23 -1 C-15.74633886 -3.41788705 -7.10834385 -2.64496515 0 0 Z " fill="#0061A7" transform="translate(667,859)"/>
<path d="M0 0 C0.66 0.33 1.32 0.66 2 1 C3.63138808 7.2536543 2.36207066 12.77499937 1 19 C0.01 19.33 -0.98 19.66 -2 20 C-1.86177801 16.85378318 -1.71314916 13.70814434 -1.5625 10.5625 C-1.52318359 9.66466797 -1.48386719 8.76683594 -1.44335938 7.84179688 C-1.40146484 6.98779297 -1.35957031 6.13378906 -1.31640625 5.25390625 C-1.27974854 4.46314697 -1.24309082 3.6723877 -1.20532227 2.85766602 C-1 1 -1 1 0 0 Z " fill="#0077C9" transform="translate(691,888)"/>
<path d="M0 0 C0.33 1.32 0.66 2.64 1 4 C-0.1446875 4.804375 -0.1446875 4.804375 -1.3125 5.625 C-4.14568464 7.82402322 -4.14568464 7.82402322 -5.4375 10.9375 C-7.40343909 14.79074062 -9.57432473 16.41171202 -13 19 C-13.66 18.67 -14.32 18.34 -15 18 C-14.25234375 17.11957031 -13.5046875 16.23914063 -12.734375 15.33203125 C-11.73954698 14.158885 -10.74475735 12.98570618 -9.75 11.8125 C-9.25886719 11.23435547 -8.76773438 10.65621094 -8.26171875 10.06054688 C-5.45420944 6.74768589 -2.69431092 3.4063788 0 0 Z " fill="#0065A6" transform="translate(187,455)"/>
<path d="M0 0 C2.16093405 2.16093405 2.82366814 3.68559111 3.9453125 6.5 C4.29980469 7.386875 4.65429688 8.27375 5.01953125 9.1875 C5.38433594 10.115625 5.74914062 11.04375 6.125 12 C6.49753906 12.928125 6.87007812 13.85625 7.25390625 14.8125 C10 21.73305861 10 21.73305861 10 24 C9.01 23.67 8.02 23.34 7 23 C7 21.35 7 19.7 7 18 C6.34 18 5.68 18 5 18 C4.15621025 15.94175571 3.32536378 13.87820214 2.5 11.8125 C2.0359375 10.66394531 1.571875 9.51539063 1.09375 8.33203125 C0.09194348 5.28009923 -0.23870804 3.16884928 0 0 Z " fill="#005B95" transform="translate(910,571)"/>
<path d="M0 0 C0.99 0 1.98 0 3 0 C2.72350393 3.31395208 2.42627566 6.62571605 2.125 9.9375 C2.04636719 10.88302734 1.96773438 11.82855469 1.88671875 12.80273438 C1.80292969 13.70185547 1.71914063 14.60097656 1.6328125 15.52734375 C1.55949707 16.35999756 1.48618164 17.19265137 1.41064453 18.05053711 C1.27513184 18.69385986 1.13961914 19.33718262 1 20 C0.34 20.33 -0.32 20.66 -1 21 C-2.43069422 13.70345948 -1.33979115 7.26366109 0 0 Z " fill="#005D9B" transform="translate(333,882)"/>
<path d="M0 0 C0.66 0.33 1.32 0.66 2 1 C1.68981396 3.5627992 1.37693109 6.1252211 1.0625 8.6875 C0.97548828 9.40873047 0.88847656 10.12996094 0.79882812 10.87304688 C0.33686195 14.62010584 -0.19167679 18.30792911 -1 22 C-3 20 -3 20 -3.046875 17.4609375 C-2.46892192 11.45326729 -1.67384859 5.8026751 0 0 Z " fill="#015C97" transform="translate(938,800)"/>
<path d="M0 0 C0.66 0 1.32 0 2 0 C0.42973179 4.46465447 -1.87143875 8.18677999 -4.4375 12.125 C-4.83259766 12.74503906 -5.22769531 13.36507812 -5.63476562 14.00390625 C-7.53369012 16.94234183 -9.36360233 19.67725736 -12 22 C-11.50649937 16.77711835 -8.77838229 13.0410571 -6 8.75 C-5.5359375 8.0178125 -5.071875 7.285625 -4.59375 6.53125 C-1.1932398 1.1932398 -1.1932398 1.1932398 0 0 Z " fill="#0065A7" transform="translate(305,578)"/>
<path d="M0 0 C2.36786432 2.18304282 3.91879546 4.34976838 5.48046875 7.16015625 C5.92197266 7.95357422 6.36347656 8.74699219 6.81835938 9.56445312 C7.27017578 10.38880859 7.72199219 11.21316406 8.1875 12.0625 C8.65091797 12.89072266 9.11433594 13.71894531 9.59179688 14.57226562 C13 20.74116348 13 20.74116348 13 23 C8.7764777 21.59215923 7.86520208 18.62311091 5.9375 14.875 C5.58623047 14.22273437 5.23496094 13.57046875 4.87304688 12.8984375 C2.65642572 8.6747057 1.15966476 4.6266418 0 0 Z " fill="#00568C" transform="translate(884,521)"/>
<path d="M0 0 C0.66 0.33 1.32 0.66 2 1 C1.02706475 3.65345977 0.37631844 4.7897044 -2.125 6.1875 C-5.81894928 7.23144219 -9.15915591 7.74814137 -13 8 C-13.66 7.34 -14.32 6.68 -15 6 C-12.54524486 4.96971956 -10.08685649 3.95054496 -7.625 2.9375 C-6.57699219 2.49567383 -6.57699219 2.49567383 -5.5078125 2.04492188 C-3.69495092 1.30408902 -1.84876857 0.64603036 0 0 Z " fill="#0061A1" transform="translate(617,961)"/>
<path d="M0 0 C4 0 4 0 6.25 1.875 C8 4 8 4 8 6 C8.556875 6.20625 9.11375 6.4125 9.6875 6.625 C12.92501302 8.55000774 14.68231141 11.03850902 17 14 C13.46352645 14 13.1196492 13.52538832 10.64453125 11.19140625 C10.02255859 10.60939453 9.40058594 10.02738281 8.75976562 9.42773438 C8.11716797 8.81220703 7.47457031 8.19667969 6.8125 7.5625 C5.83120117 6.64500977 5.83120117 6.64500977 4.83007812 5.70898438 C1.3431326 2.41838407 1.3431326 2.41838407 0 1 C0 0.67 0 0.34 0 0 Z " fill="#0064A5" transform="translate(209,1040)"/>
<path d="M0 0 C1.55074219 -0.00773438 1.55074219 -0.00773438 3.1328125 -0.015625 C5.875 0.25 5.875 0.25 8.875 2.25 C7.36078999 3.76421001 5.95027232 3.46309856 3.83984375 3.56640625 C3.03095703 3.60830078 2.22207031 3.65019531 1.38867188 3.69335938 C0.1134668 3.75233398 0.1134668 3.75233398 -1.1875 3.8125 C-2.46850586 3.87727539 -2.46850586 3.87727539 -3.77539062 3.94335938 C-5.89172037 4.04976702 -8.00833813 4.15041731 -10.125 4.25 C-10.455 3.59 -10.785 2.93 -11.125 2.25 C-7.28161402 0.46303825 -4.22770285 -0.02119149 0 0 Z " fill="#005A9A" transform="translate(369.125,856.75)"/>
<path d="M0 0 C0.33 0.99 0.66 1.98 1 3 C-5.27 3 -11.54 3 -18 3 C-18 2.01 -18 1.02 -18 0 C-11.78675502 -0.73030908 -6.15901243 -1.23180249 0 0 Z " fill="#005B9A" transform="translate(599,484)"/>
<path d="M0 0 C0.99 0.33 1.98 0.66 3 1 C0.21431795 3.17445127 -2.57949198 5.33820039 -5.375 7.5 C-6.56609375 8.43005859 -6.56609375 8.43005859 -7.78125 9.37890625 C-8.54179688 9.96542969 -9.30234375 10.55195312 -10.0859375 11.15625 C-10.7876709 11.70087891 -11.4894043 12.24550781 -12.21240234 12.80664062 C-14 14 -14 14 -16 14 C-14.70746212 10.12238635 -12.31428146 8.72676175 -9.125 6.4375 C-8.58230469 6.03853516 -8.03960938 5.63957031 -7.48046875 5.22851562 C-5.02153064 3.42789958 -2.53611328 1.69074218 0 0 Z " fill="#005D99" transform="translate(776,1072)"/>
<path d="M0 0 C3.39581516 -0.0291544 6.79159786 -0.04685068 10.1875 -0.0625 C11.14720703 -0.07087891 12.10691406 -0.07925781 13.09570312 -0.08789062 C14.02705078 -0.09111328 14.95839844 -0.09433594 15.91796875 -0.09765625 C17.19837036 -0.10551147 17.19837036 -0.10551147 18.50463867 -0.11352539 C21.09246747 0.00420677 23.47661953 0.42892956 26 1 C26 1.33 26 1.66 26 2 C17.16236535 3.98331119 8.72867014 3.12063136 0 1 C0 0.67 0 0.34 0 0 Z " fill="#004E82" transform="translate(454,312)"/>
<path d="M0 0 C6.47062671 0.42199739 12.747229 2.36750314 19 4 C19 4.66 19 5.32 19 6 C11.84404654 5.29843593 4.98144819 3.69214979 -2 2 C-1.34 1.34 -0.68 0.68 0 0 Z " fill="#005994" transform="translate(405,1149)"/>
<path d="M0 0 C0.66 0.33 1.32 0.66 2 1 C2.59355614 3.64860427 2.74209269 6.29197322 3 9 C3.33 9 3.66 9 4 9 C4.22162329 10.62324086 4.42689803 12.248721 4.625 13.875 C4.74101563 14.77992188 4.85703125 15.68484375 4.9765625 16.6171875 C4.98429688 17.40351562 4.99203125 18.18984375 5 19 C4.34 19.66 3.68 20.32 3 21 C2.30111323 18.25244513 1.6156012 15.50268803 0.9375 12.75 C0.73833984 11.97269531 0.53917969 11.19539062 0.33398438 10.39453125 C0.15029297 9.64042969 -0.03339844 8.88632812 -0.22265625 8.109375 C-0.39547119 7.41811523 -0.56828613 6.72685547 -0.74633789 6.01464844 C-1.03156637 3.74929191 -0.68076195 2.1631688 0 0 Z " fill="#005289" transform="translate(756,658)"/>
<path d="M0 0 C-3.68305032 2.45536688 -5.65673699 2 -10 2 C-11.34136367 2.65035814 -12.67532254 3.3162955 -14 4 C-17.125 4.25 -17.125 4.25 -20 4 C-20.66 3.34 -21.32 2.68 -22 2 C-19.08483516 1.46915208 -16.16839443 0.95000945 -13.25 0.4375 C-12.425 0.28603516 -11.6 0.13457031 -10.75 -0.02148438 C-9.95078125 -0.16005859 -9.1515625 -0.29863281 -8.328125 -0.44140625 C-7.5949707 -0.57232666 -6.86181641 -0.70324707 -6.10644531 -0.83813477 C-3.83766713 -1.01247412 -2.16221421 -0.66874807 0 0 Z " fill="#005A93" transform="translate(449,316)"/>
<path d="M0 0 C6.6 0.33 13.2 0.66 20 1 C19.67 1.66 19.34 2.32 19 3 C16.77090129 3.02714735 14.54170633 3.04646254 12.3125 3.0625 C11.07113281 3.07410156 9.82976562 3.08570313 8.55078125 3.09765625 C5.53764546 3.01478673 2.91724661 2.70839449 0 2 C0 1.34 0 0.68 0 0 Z " fill="#005892" transform="translate(477,982)"/>
<path d="M0 0 C0.99 0 1.98 0 3 0 C1.3718356 3.75730247 -1.01401917 6.616823 -3.625 9.75 C-4.85089844 11.22726562 -4.85089844 11.22726562 -6.1015625 12.734375 C-6.72804688 13.48203125 -7.35453125 14.2296875 -8 15 C-8.66 14.34 -9.32 13.68 -10 13 C-8.40703626 10.82424464 -6.8017742 8.65984949 -5.1875 6.5 C-4.73568359 5.87996094 -4.28386719 5.25992188 -3.81835938 4.62109375 C-2.61664854 3.02466038 -1.31346367 1.50582921 0 0 Z " fill="#005F9A" transform="translate(848,1001)"/>
<path d="M0 0 C0.33 0 0.66 0 1 0 C1.26554687 0.88042969 1.53109375 1.76085937 1.8046875 2.66796875 C2.33449219 4.41013672 2.33449219 4.41013672 2.875 6.1875 C3.22304688 7.33605469 3.57109375 8.48460937 3.9296875 9.66796875 C4.84218871 12.50871157 5.84980364 15.24885465 7 18 C6.01 18.33 5.02 18.66 4 19 C3.12783591 16.96595642 2.27796495 14.92234514 1.4375 12.875 C0.72400391 11.16957031 0.72400391 11.16957031 -0.00390625 9.4296875 C-1.06656547 5.77080595 -0.92694047 3.65225645 0 0 Z " fill="#005B97" transform="translate(261,756)"/>
<path d="M0 0 C4.76264597 0.47887665 7.22641652 2.49488642 10.8125 5.5625 C11.78832031 6.38878906 12.76414062 7.21507812 13.76953125 8.06640625 C14.50558594 8.70449219 15.24164062 9.34257813 16 10 C15.67 10.99 15.34 11.98 15 13 C13.24775086 11.58611621 11.49829345 10.16877217 9.75 8.75 C8.77546875 7.96109375 7.8009375 7.1721875 6.796875 6.359375 C4.39752456 4.33534195 2.17588563 2.25877651 0 0 Z " fill="#0061A1" transform="translate(664,523)"/>
<path d="M0 0 C1.04027344 0.07863281 2.08054687 0.15726563 3.15234375 0.23828125 C5.88937637 0.66077622 7.697979 1.29157796 10.0625 2.6875 C9.0625 3.6875 9.0625 3.6875 7.29663086 3.70922852 C6.17333374 3.63853149 6.17333374 3.63853149 5.02734375 3.56640625 C4.21845703 3.51806641 3.40957031 3.46972656 2.57617188 3.41992188 C1.3009668 3.33581055 1.3009668 3.33581055 0 3.25 C-0.85400391 3.19779297 -1.70800781 3.14558594 -2.58789062 3.09179688 C-4.70471995 2.96171239 -6.82115244 2.82520029 -8.9375 2.6875 C-8.9375 2.0275 -8.9375 1.3675 -8.9375 0.6875 C-5.59706892 -0.42597703 -3.48972112 -0.28901275 0 0 Z " fill="#00568F" transform="translate(448.9375,1157.3125)"/>
<path d="M0 0 C0.33 0 0.66 0 1 0 C1.19647038 2.68711024 1.38239615 5.37428331 1.5625 8.0625 C1.61857422 8.81466797 1.67464844 9.56683594 1.73242188 10.34179688 C2.04000617 15.07859502 1.83807173 19.32542212 1 24 C0.67 24 0.34 24 0 24 C-0.19738568 20.75052139 -0.3811754 17.50041127 -0.5625 14.25 C-0.61857422 13.32960938 -0.67464844 12.40921875 -0.73242188 11.4609375 C-0.78076172 10.57148437 -0.82910156 9.68203125 -0.87890625 8.765625 C-0.9260376 7.94868164 -0.97316895 7.13173828 -1.02172852 6.29003906 C-1.00020095 4.02117925 -0.64612135 2.16679079 0 0 Z " fill="#005B97" transform="translate(941,686)"/>
<path d="M0 0 C2.20322582 3.5496416 2.2686389 6.49648471 2.25 10.625 C2.25515625 11.77226563 2.2603125 12.91953125 2.265625 14.1015625 C2 17 2 17 0 19 C-0.19425873 16.20865148 -0.38069517 13.41716313 -0.5625 10.625 C-0.61857422 9.8309375 -0.67464844 9.036875 -0.73242188 8.21875 C-1.11328125 2.2265625 -1.11328125 2.2265625 0 0 Z " fill="#005B97" transform="translate(763,690)"/>
<path d="M0 0 C0 0.99 0 1.98 0 3 C-5.64399358 5.44064587 -10.97751478 5.19289099 -17 5 C-17.33 4.34 -17.66 3.68 -18 3 C-16.95199219 2.86722656 -15.90398438 2.73445312 -14.82421875 2.59765625 C-13.44529222 2.41942765 -12.06638707 2.24103359 -10.6875 2.0625 C-9.65206055 1.93198242 -9.65206055 1.93198242 -8.59570312 1.79882812 C-5.59857712 1.40789865 -2.87549881 0.9584996 0 0 Z " fill="#00609D" transform="translate(739,788)"/>
<path d="M0 0 C3.4557827 1.55833192 6.27275874 3.60010445 9.25 5.9375 C10.14203125 6.62714844 11.0340625 7.31679688 11.953125 8.02734375 C12.62859375 8.67832031 13.3040625 9.32929687 14 10 C14 10.99 14 11.98 14 13 C13.34 12.67 12.68 12.34 12 12 C12 11.34 12 10.68 12 10 C11.1028125 9.8453125 11.1028125 9.8453125 10.1875 9.6875 C7.68741714 8.90175967 6.62464918 8.03081147 5 6 C5 5.34 5 4.68 5 4 C4.360625 3.896875 3.72125 3.79375 3.0625 3.6875 C2.381875 3.460625 1.70125 3.23375 1 3 C0.67 2.01 0.34 1.02 0 0 Z " fill="#00548B" transform="translate(614,580)"/>
<path d="M0 0 C0.99 0.33 1.98 0.66 3 1 C2.55269531 1.42410156 2.10539062 1.84820313 1.64453125 2.28515625 C-2.44951902 6.25699606 -5.813901 10.26912573 -9 15 C-9.80859375 13.359375 -9.80859375 13.359375 -10 11 C-8.41429339 8.87782068 -6.90709742 7.1166444 -5.0625 5.25 C-4.34030273 4.49009766 -4.34030273 4.49009766 -3.60351562 3.71484375 C-2.41346046 2.46587496 -1.20813387 1.2314897 0 0 Z " fill="#005D9B" transform="translate(325,553)"/>
<path d="M0 0 C4.97209562 1.76429199 9.43438061 4.3939166 14 7 C14 7.99 14 8.98 14 10 C10.30123909 8.62712658 7.0485524 6.93644547 3.6875 4.875 C2.36298828 4.06675781 2.36298828 4.06675781 1.01171875 3.2421875 C0.34785156 2.83226562 -0.31601562 2.42234375 -1 2 C-0.67 1.34 -0.34 0.68 0 0 Z " fill="#005F9E" transform="translate(282,1096)"/>
<path d="M0 0 C6.46498449 0.16576883 10.30435802 4.00348694 15 8 C14.67 8.66 14.34 9.32 14 10 C12.22611914 8.90073597 10.45600316 7.79539498 8.6875 6.6875 C7.20830078 5.76517578 7.20830078 5.76517578 5.69921875 4.82421875 C3.49827965 3.33675339 1.76671012 1.9596614 0 0 Z " fill="#0065A7" transform="translate(266,1087)"/>
<path d="M0 0 C-0.33 0.99 -0.66 1.98 -1 3 C-3.08304538 3.05418326 -5.16649768 3.09287551 -7.25 3.125 C-8.99023438 3.15980469 -8.99023438 3.15980469 -10.765625 3.1953125 C-13.82786046 3.0103949 -15.44202751 2.60823023 -18 1 C-16.12528812 0.83012319 -14.25021305 0.66425224 -12.375 0.5 C-11.33085938 0.4071875 -10.28671875 0.314375 -9.2109375 0.21875 C-6.12853212 0.00875645 -3.08834771 -0.03709727 0 0 Z " fill="#00568F" transform="translate(545,982)"/>
<path d="M0 0 C0.66 0.33 1.32 0.66 2 1 C1.33333333 5.66666667 0.66666667 10.33333333 0 15 C-0.99 15 -1.98 15 -3 15 C-2.44854729 9.76119922 -1.57077907 5.02649303 0 0 Z " fill="#005F9C" transform="translate(94,626)"/>
<path d="M0 0 C0.99 0.33 1.98 0.66 3 1 C-3.435 6.94 -3.435 6.94 -10 13 C-10.33 12.01 -10.66 11.02 -11 10 C-5.555 5.05 -5.555 5.05 0 0 Z " fill="#005C99" transform="translate(347,531)"/>
<path d="M0 0 C0.66 0.33 1.32 0.66 2 1 C2 6.94 2 12.88 2 19 C-1.37966117 14.4937851 -1.36243109 13.23730023 -1.25 7.8125 C-1.22679687 5.93498047 -1.22679687 5.93498047 -1.203125 4.01953125 C-1 1 -1 1 0 0 Z " fill="#015F9F" transform="translate(554,513)"/>
<path d="M0 0 C5.3762621 2.91214197 10.17918273 6.24351901 15 10 C14.34 10.66 13.68 11.32 13 12 C11.20101037 10.76056233 9.41103677 9.50803104 7.625 8.25 C6.62726562 7.55390625 5.62953125 6.8578125 4.6015625 6.140625 C2.16136674 4.13277624 1.08781156 2.90956826 0 0 Z " fill="#005F9D" transform="translate(764,391)"/>
<path d="M0 0 C2.12517842 0.97877936 4.25013742 1.95803515 6.375 2.9375 C7.55835938 3.48277344 8.74171875 4.02804687 9.9609375 4.58984375 C11.6499011 5.37354023 13.33464041 6.1673202 15 7 C15 7.66 15 8.32 15 9 C12.77353944 8.27239851 10.55066668 7.53634777 8.33203125 6.78515625 C6.56186739 6.18917143 4.78277799 5.61961812 3 5.0625 C2.34 4.711875 1.68 4.36125 1 4 C0.375 1.93359375 0.375 1.93359375 0 0 Z " fill="#0063A4" transform="translate(698,352)"/>
<path d="M0 0 C2.12570312 0.47603774 4.25054427 0.95592598 6.375 1.4375 C8.15003906 1.83775391 8.15003906 1.83775391 9.9609375 2.24609375 C13 3 13 3 15 4 C15 4.66 15 5.32 15 6 C9.33557626 5.63495936 4.99296295 4.9445679 0 2 C0 1.34 0 0.68 0 0 Z " fill="#0064A5" transform="translate(634,328)"/>
<path d="M0 0 C5.54050113 0.56825653 10.03715966 2.62886517 15 5 C14.67 5.66 14.34 6.32 14 7 C3.44191344 3.92482916 3.44191344 3.92482916 -1 2 C-0.67 1.34 -0.34 0.68 0 0 Z " fill="#005F9E" transform="translate(350,1131)"/>
<path d="M0 0 C0.66 0.66 1.32 1.32 2 2 C1.82376561 4.79701033 1.22215632 5.79522166 -0.84765625 7.703125 C-1.57855469 8.21359375 -2.30945313 8.7240625 -3.0625 9.25 C-3.79597656 9.77078125 -4.52945313 10.2915625 -5.28515625 10.828125 C-5.85105469 11.21484375 -6.41695312 11.6015625 -7 12 C-7.66 11.67 -8.32 11.34 -9 11 C-8.43410156 10.37351562 -7.86820313 9.74703125 -7.28515625 9.1015625 C-6.18494141 7.87566406 -6.18494141 7.87566406 -5.0625 6.625 C-4.33160156 5.81289063 -3.60070312 5.00078125 -2.84765625 4.1640625 C-0.97010529 2.14075833 -0.97010529 2.14075833 0 0 Z " fill="#006CB2" transform="translate(685,915)"/>
<path d="M0 0 C1.58583248 0.76567866 3.16856494 1.53777965 4.75 2.3125 C6.07257812 2.95638672 6.07257812 2.95638672 7.421875 3.61328125 C9.83539501 4.91146247 11.93439588 6.19983566 14 8 C14 8.66 14 9.32 14 10 C10.30123909 8.62712658 7.0485524 6.93644547 3.6875 4.875 C2.36298828 4.06675781 2.36298828 4.06675781 1.01171875 3.2421875 C0.34785156 2.83226562 -0.31601562 2.42234375 -1 2 C-0.67 1.34 -0.34 0.68 0 0 Z " fill="#005F9F" transform="translate(631,499)"/>
<path d="M0 0 C0.43570313 0.37511719 0.87140625 0.75023437 1.3203125 1.13671875 C5.18607599 4.45859777 9.07657648 7.74642927 13 11 C12.34 11.66 11.68 12.32 11 13 C9.15730683 11.40559179 7.32621907 9.80058539 5.5 8.1875 C4.97535156 7.73568359 4.45070313 7.28386719 3.91015625 6.81835938 C2.54904577 5.60750135 1.26846587 4.30759063 0 3 C0 2.01 0 1.02 0 0 Z " fill="#005E9B" transform="translate(793,413)"/>
<path d="M0 0 C0.33 0.99 0.66 1.98 1 3 C0.38125 3.0825 -0.2375 3.165 -0.875 3.25 C-1.57625 3.4975 -2.2775 3.745 -3 4 C-3.268125 4.598125 -3.53625 5.19625 -3.8125 5.8125 C-5.70810564 9.30440513 -8.45701499 10.29177508 -12 12 C-12.66 11.67 -13.32 11.34 -14 11 C-9.38 7.37 -4.76 3.74 0 0 Z " fill="#005D98" transform="translate(245,401)"/>
<path d="M0 0 C-2.58411731 1.72274487 -4.54902656 2.68895522 -7.4375 3.6875 C-8.19933594 3.95949219 -8.96117187 4.23148437 -9.74609375 4.51171875 C-12.21829721 5.04729142 -13.62983284 4.80445309 -16 4 C-13.41588269 2.27725513 -11.45097344 1.31104478 -8.5625 0.3125 C-7.41974609 -0.09548828 -7.41974609 -0.09548828 -6.25390625 -0.51171875 C-3.78170279 -1.04729142 -2.37016716 -0.80445309 0 0 Z " fill="#005C9A" transform="translate(384,331)"/>
<path d="M0 0 C0.33 0.66 0.66 1.32 1 2 C3.8159849 2.46898963 3.8159849 2.46898963 7.0625 2.625 C8.71958984 2.73714844 8.71958984 2.73714844 10.41015625 2.8515625 C11.26480469 2.90054687 12.11945312 2.94953125 13 3 C11 5 11 5 9.01171875 5.265625 C4.56815987 5.23575234 1.04172469 5.08605145 -3 3 C-3 2.34 -3 1.68 -3 1 C-2.01 0.67 -1.02 0.34 0 0 Z " fill="#00609F" transform="translate(584,315)"/>
<path d="M0 0 C9.59453303 0.59453303 9.59453303 0.59453303 13 4 C9.45332822 5.25127906 7.27746562 4.72285053 3.75 3.5625 C2.85796875 3.27503906 1.9659375 2.98757813 1.046875 2.69140625 C0.37140625 2.46324219 -0.3040625 2.23507812 -1 2 C-0.67 1.34 -0.34 0.68 0 0 Z " fill="#005F9E" transform="translate(387,1144)"/>
<path d="M0 0 C2.4377963 -0.05397335 4.87439685 -0.09365616 7.3125 -0.125 C8.00279297 -0.14175781 8.69308594 -0.15851563 9.40429688 -0.17578125 C13.17135396 -0.21217794 14.78431704 -0.14378864 18 2 C14.35201696 3.19797961 11.11453475 2.97275905 7.3125 2.6875 C6.15363281 2.60886719 4.99476563 2.53023438 3.80078125 2.44921875 C2.41439453 2.22685547 2.41439453 2.22685547 1 2 C0.67 1.34 0.34 0.68 0 0 Z " fill="#0061A4" transform="translate(424,484)"/>
<path d="M0 0 C0.33 0 0.66 0 1 0 C1.19448477 2.12437212 1.38038289 4.24953191 1.5625 6.375 C1.66691406 7.55835938 1.77132812 8.74171875 1.87890625 9.9609375 C2 13 2 13 1 15 C0.34 15 -0.32 15 -1 15 C-1.02693575 12.87506859 -1.04636628 10.75004088 -1.0625 8.625 C-1.07410156 7.44164062 -1.08570312 6.25828125 -1.09765625 5.0390625 C-1 2 -1 2 0 0 Z " fill="#005C98" transform="translate(82,754)"/>
<path d="M0 0 C0.33 0 0.66 0 1 0 C1.33 5.94 1.66 11.88 2 18 C0 17 0 17 -1 14 C-1.3021788 9.25401528 -1.19309535 4.62324448 0 0 Z " fill="#00548C" transform="translate(687,699)"/>
<path d="M0 0 C0.33 0 0.66 0 1 0 C1.91657981 5.38490641 2.11138159 10.54230189 2 16 C1.67 16 1.34 16 1 16 C0.67 17.65 0.34 19.3 0 21 C-0.33 21 -0.66 21 -1 21 C-1.13794954 13.93391809 -0.74805717 7.02639415 0 0 Z " fill="#004A78" transform="translate(82,690)"/>
<path d="M0 0 C0.66 0 1.32 0 2 0 C1.34 5.28 0.68 10.56 0 16 C-0.66 16 -1.32 16 -2 16 C-1.85936865 13.70800823 -1.71234057 11.41640814 -1.5625 9.125 C-1.48128906 7.84882812 -1.40007812 6.57265625 -1.31640625 5.2578125 C-1 2 -1 2 0 0 Z " fill="#00619F" transform="translate(85,672)"/>
<path d="M0 0 C0.66 0.33 1.32 0.66 2 1 C1.21085079 2.60540659 0.41858235 4.20928016 -0.375 5.8125 C-0.81585937 6.70582031 -1.25671875 7.59914063 -1.7109375 8.51953125 C-3 11 -3 11 -5 14 C-5 13.34 -5 12.68 -5 12 C-5.66 11.67 -6.32 11.34 -7 11 C-5.07848152 6.86873527 -2.95749791 3.46741134 0 0 Z " fill="#005E9B" transform="translate(561,499)"/>
<path d="M0 0 C0.66 0.66 1.32 1.32 2 2 C-2.62 4.64 -7.24 7.28 -12 10 C-12 9.01 -12 8.02 -12 7 C-9.8828125 5.4296875 -9.8828125 5.4296875 -7.125 3.875 C-6.22007812 3.35679687 -5.31515625 2.83859375 -4.3828125 2.3046875 C-2.93502074 1.51196217 -1.47635075 0.73817538 0 0 Z " fill="#005F9F" transform="translate(397,496)"/>
<path d="M0 0 C0.66 0.33 1.32 0.66 2 1 C1.855625 1.969375 1.71125 2.93875 1.5625 3.9375 C0.93952558 8.28052169 0.46492141 12.63765234 0 17 C-0.66 17 -1.32 17 -2 17 C-1.85786703 15.10388566 -1.71113093 13.20811606 -1.5625 11.3125 C-1.48128906 10.25675781 -1.40007812 9.20101562 -1.31640625 8.11328125 C-1.03548319 5.34913703 -0.59843148 2.71054259 0 0 Z " fill="#005D9A" transform="translate(339,685)"/>
<path d="M0 0 C0.33 0 0.66 0 1 0 C1 2.97 1 5.94 1 9 C0.34 9 -0.32 9 -1 9 C-1 10.98 -1 12.96 -1 15 C-1.99 15.33 -2.98 15.66 -4 16 C-2.98408579 10.53135543 -1.92908943 5.23609987 0 0 Z " fill="#005D99" transform="translate(99,609)"/>
<path d="M0 0 C4.52615993 3.67832017 8.39424999 7.41086363 12 12 C9 12 9 12 6.3125 9.625 C4 7 4 7 4 5 C2.68 4.34 1.36 3.68 0 3 C0 2.01 0 1.02 0 0 Z " fill="#006CB2" transform="translate(632,595)"/>
<path d="M0 0 C5.41390868 0.46671627 9.20517932 1.24297811 14 4 C14 4.99 14 5.98 14 7 C9.0276578 5.50829734 4.58154261 3.39542583 0 1 C0 0.67 0 0.34 0 0 Z " fill="#00558E" transform="translate(320,1119)"/>
<path d="M0 0 C0.66 0 1.32 0 2 0 C0.36041242 5.23272633 -1.38952035 10.15196636 -4 15 C-4.66 14.67 -5.32 14.34 -6 14 C-5.67 12.68 -5.34 11.36 -5 10 C-4.34 10 -3.68 10 -3 10 C-3.33 9.01 -3.66 8.02 -4 7 C-2.92745123 4.48301368 -1.45196548 2.33194455 0 0 Z " fill="#005A94" transform="translate(908,904)"/>
<path d="M0 0 C0.89203125 0.00902344 1.7840625 0.01804687 2.703125 0.02734375 C3.37859375 0.03894531 4.0540625 0.05054688 4.75 0.0625 C5.08 0.7225 5.41 1.3825 5.75 2.0625 C3.62631556 2.28384176 1.50095976 2.48920007 -0.625 2.6875 C-1.80835938 2.80351563 -2.99171875 2.91953125 -4.2109375 3.0390625 C-5.21382812 3.04679688 -6.21671875 3.05453125 -7.25 3.0625 C-7.91 2.4025 -8.57 1.7425 -9.25 1.0625 C-6.09493858 0.12630187 -3.28413498 -0.0432123 0 0 Z " fill="#005C9B" transform="translate(534.25,905.9375)"/>
<path d="M0 0 C5.41390868 0.46671627 9.20517932 1.24297811 14 4 C10.34142468 5.31534494 7.91973519 4.65468309 4.25 3.5625 C2.77273438 3.13130859 2.77273438 3.13130859 1.265625 2.69140625 C0.51796875 2.46324219 -0.2296875 2.23507812 -1 2 C-0.67 1.34 -0.34 0.68 0 0 Z " fill="#005795" transform="translate(459,900)"/>
<path d="M0 0 C-5.94 3.465 -5.94 3.465 -12 7 C-12.99 6.34 -13.98 5.68 -15 5 C-13.25877451 3.96427104 -11.50663405 2.9468748 -9.75 1.9375 C-8.28820312 1.08478516 -8.28820312 1.08478516 -6.796875 0.21484375 C-4 -1 -4 -1 0 0 Z " fill="#005A99" transform="translate(612,881)"/>
<path d="M0 0 C2.51911331 3.77866996 3.15493426 5.51895439 3.1875 10 C3.20167969 10.886875 3.21585937 11.77375 3.23046875 12.6875 C3 15 3 15 1 17 C0.67 11.39 0.34 5.78 0 0 Z " fill="#00568D" transform="translate(82,773)"/>
<path d="M0 0 C0.33 0.66 0.66 1.32 1 2 C0.26821134 4.07196631 -0.55899003 6.1108552 -1.4375 8.125 C-1.91058594 9.22070312 -2.38367188 10.31640625 -2.87109375 11.4453125 C-3.24363281 12.28835938 -3.61617188 13.13140625 -4 14 C-4.66 14 -5.32 14 -6 14 C-5.71517632 12.58194169 -5.42181856 11.16559621 -5.125 9.75 C-4.96257812 8.96109375 -4.80015625 8.1721875 -4.6328125 7.359375 C-4.00106448 5.00396882 -3.24959008 3.09190636 -2 1 C-1.34 0.67 -0.68 0.34 0 0 Z " fill="#005995" transform="translate(280,625)"/>
<path d="M0 0 C-1.9570868 0.67031719 -3.91571113 1.33614683 -5.875 2 C-6.96554687 2.37125 -8.05609375 2.7425 -9.1796875 3.125 C-12 4 -12 4 -14 4 C-14 3.01 -14 2.02 -14 1 C-12.42298018 0.44021816 -10.83800758 -0.09719401 -9.25 -0.625 C-7.92742188 -1.07746094 -7.92742188 -1.07746094 -6.578125 -1.5390625 C-3.58982529 -2.07333427 -2.50076998 -1.62433191 0 0 Z " fill="#005993" transform="translate(659,1140)"/>
<path d="M0 0 C0.33 0 0.66 0 1 0 C1.73030908 6.21324498 2.23180249 11.84098757 1 18 C0.67 18 0.34 18 0 18 C-0.19430855 15.3753399 -0.38073238 12.75053235 -0.5625 10.125 C-0.61857422 9.37863281 -0.67464844 8.63226562 -0.73242188 7.86328125 C-1.11328125 2.2265625 -1.11328125 2.2265625 0 0 Z " fill="#0160A0" transform="translate(939,671)"/>
<path d="M0 0 C0.33 0 0.66 0 1 0 C1.33776684 1.7491497 1.67003671 3.49936145 2 5.25 C2.185625 6.22453125 2.37125 7.1990625 2.5625 8.203125 C3 11 3 11 3 15 C2.34 15 1.68 15 1 15 C-0.42705634 9.69276568 -1.4002792 5.46108889 0 0 Z " fill="#005D99" transform="translate(936,654)"/>
<path d="M0 0 C4.84659077 0.59104765 8.60748167 1.97944157 13 4 C13 4.99 13 5.98 13 7 C8.1725201 5.58707905 4.2837641 3.57025846 0 1 C0 0.67 0 0.34 0 0 Z " fill="#005992" transform="translate(307,1112)"/>
<path d="M0 0 C0.66 0.66 1.32 1.32 2 2 C1.04454634 3.46022163 0.08553322 4.91811468 -0.875 6.375 C-1.40867187 7.18710937 -1.94234375 7.99921875 -2.4921875 8.8359375 C-4 11 -4 11 -6 13 C-6.33 12.01 -6.66 11.02 -7 10 C-5.8203125 7.7734375 -5.8203125 7.7734375 -4.125 5.375 C-3.57070313 4.57835937 -3.01640625 3.78171875 -2.4453125 2.9609375 C-1 1 -1 1 0 0 Z " fill="#005A97" transform="translate(342,869)"/>
<path d="M0 0 C0.33 0 0.66 0 1 0 C1.8931507 6.58183362 1.95494281 12.42150508 1 19 C-1.55698285 15.21332311 -1.03499684 11.5877666 -0.625 7.25 C-0.56828125 6.55261719 -0.5115625 5.85523438 -0.453125 5.13671875 C-0.31232128 3.42360688 -0.15754028 1.71165389 0 0 Z " fill="#005A94" transform="translate(940,779)"/>
<path d="M0 0 C8 9.71428571 8 9.71428571 8 13 C4.02553158 11.72249229 2.70376535 9.29042104 0.734375 5.8515625 C0 4 0 4 0 0 Z " fill="#00619E" transform="translate(656,622)"/>
<path d="M0 0 C0.33 0.99 0.66 1.98 1 3 C-0.07421875 4.7890625 -0.07421875 4.7890625 -1.6875 6.625 C-2.20699219 7.23601562 -2.72648438 7.84703125 -3.26171875 8.4765625 C-5.181038 10.15866252 -6.50835704 10.59829721 -9 11 C-8.06558465 9.72689688 -7.12732889 8.456612 -6.1875 7.1875 C-5.66542969 6.47980469 -5.14335937 5.77210938 -4.60546875 5.04296875 C-3.16871123 3.21468607 -1.68184237 1.60103312 0 0 Z " fill="#005B94" transform="translate(197,444)"/>
<path d="M0 0 C0.33 0.99 0.66 1.98 1 3 C-0.2065625 3.4021875 -0.2065625 3.4021875 -1.4375 3.8125 C-2.283125 4.204375 -3.12875 4.59625 -4 5 C-4.33 5.99 -4.66 6.98 -5 8 C-6.98 8.33 -8.96 8.66 -11 9 C-7.56638098 5.36440339 -4.2026393 2.63886654 0 0 Z " fill="#0061A0" transform="translate(257,392)"/>
<path d="M0 0 C0.33 0.99 0.66 1.98 1 3 C0.195625 3.45375 -0.60875 3.9075 -1.4375 4.375 C-4.08856572 5.74725665 -4.08856572 5.74725665 -5 8 C-6.98 8 -8.96 8 -11 8 C-7.45960866 5.0843836 -3.8373228 2.49872182 0 0 Z " fill="#0064A5" transform="translate(281,376)"/>
<path d="M0 0 C7.42857143 -0.28571429 7.42857143 -0.28571429 11 2 C11 2.33 11 2.66 11 3 C7.37 3 3.74 3 0 3 C0 2.01 0 1.02 0 0 Z " fill="#005996" transform="translate(537,1161)"/>
<path d="M0 0 C-4.29 0.99 -8.58 1.98 -13 3 C-13.33 2.34 -13.66 1.68 -14 1 C-12.42298018 0.44021816 -10.83800758 -0.09719401 -9.25 -0.625 C-7.92742188 -1.07746094 -7.92742188 -1.07746094 -6.578125 -1.5390625 C-4 -2 -4 -2 0 0 Z " fill="#0061A1" transform="translate(634,1148)"/>
<path d="M0 0 C5.44208234 0.34013015 8.93668198 3.70296528 13 7 C12.34 7.66 11.68 8.32 11 9 C9.16384919 7.69144447 7.33114211 6.37805538 5.5 5.0625 C4.4790625 4.33160156 3.458125 3.60070313 2.40625 2.84765625 C1.6121875 2.23792969 0.818125 1.62820313 0 1 C0 0.67 0 0.34 0 0 Z " fill="#005F9D" transform="translate(243,1070)"/>
<path d="M0 0 C0.66 0 1.32 0 2 0 C0.58707905 4.8274799 -1.42974154 8.7162359 -4 13 C-4.66 12.67 -5.32 12.34 -6 12 C-4.43358249 7.69235185 -2.31663844 3.93828536 0 0 Z " fill="#00619F" transform="translate(891,938)"/>
<path d="M0 0 C0.99 0 1.98 0 3 0 C3.33 3.3 3.66 6.6 4 10 C3.01 10.495 3.01 10.495 2 11 C1.01 7.7 0.02 4.4 -1 1 C-0.67 0.67 -0.34 0.34 0 0 Z " fill="#005E9C" transform="translate(107,880)"/>
<path d="M0 0 C0.33 0 0.66 0 1 0 C2.19088986 5.38027025 3.2919519 10.45291384 3 16 C2.34 16 1.68 16 1 16 C-0.50156874 12.99686252 -0.09281204 10.20932478 -0.0625 6.875 C-0.05347656 5.59367188 -0.04445313 4.31234375 -0.03515625 2.9921875 C-0.02355469 2.00476563 -0.01195312 1.01734375 0 0 Z " fill="#0064AA" transform="translate(258,720)"/>
<path d="M0 0 C0.66 0.33 1.32 0.66 2 1 C1.67 4.63 1.34 8.26 1 12 C0.01 12 -0.98 12 -2 12 C-1.34 8.04 -0.68 4.08 0 0 Z " fill="#0061A1" transform="translate(90,642)"/>
<path d="M0 0 C0.33 0.99 0.66 1.98 1 3 C1.66 3.33 2.32 3.66 3 4 C-1.82142857 9.22321429 -1.82142857 9.22321429 -6 10 C-5.18957164 8.51969728 -4.37659652 7.04078858 -3.5625 5.5625 C-2.88380859 4.32693359 -2.88380859 4.32693359 -2.19140625 3.06640625 C-1 1 -1 1 0 0 Z " fill="#0069AB" transform="translate(151,502)"/>
<path d="M0 0 C-3.62535821 3.17218843 -7.51150278 4.42902597 -12 6 C-12.33 5.34 -12.66 4.68 -13 4 C-11.40233897 3.13372601 -9.79660056 2.28233535 -8.1875 1.4375 C-7.29417969 0.96183594 -6.40085937 0.48617188 -5.48046875 -0.00390625 C-3 -1 -3 -1 0 0 Z " fill="#005A96" transform="translate(701,1121)"/>
<path d="M0 0 C-3.81234923 3.3502463 -7.33285711 5.16974789 -12 7 C-12 6.01 -12 5.02 -12 4 C-4.71428571 -0.57142857 -4.71428571 -0.57142857 0 0 Z " fill="#015991" transform="translate(718,1112)"/>
<path d="M0 0 C1.7074998 1.28062485 3.37373596 2.61767557 5 4 C5 4.66 5 5.32 5 6 C5.66 6 6.32 6 7 6 C7.66 7.32 8.32 8.64 9 10 C6 10 6 10 4.17578125 8.25 C3.56089844 7.5075 2.94601563 6.765 2.3125 6 C1.68988281 5.2575 1.06726563 4.515 0.42578125 3.75 C-0.04472656 3.1725 -0.51523438 2.595 -1 2 C-0.67 1.34 -0.34 0.68 0 0 Z " fill="#0161A1" transform="translate(182,1009)"/>
<path d="M0 0 C0.99 0 1.98 0 3 0 C1.54955729 4.10958767 -0.51110752 7.43258745 -3 11 C-4 8 -4 8 -3.22265625 5.95703125 C-2.83980469 5.24933594 -2.45695313 4.54164063 -2.0625 3.8125 C-1.68222656 3.09707031 -1.30195312 2.38164063 -0.91015625 1.64453125 C-0.60980469 1.10183594 -0.30945313 0.55914063 0 0 Z " fill="#0167AA" transform="translate(873,966)"/>
<path d="M0 0 C2.475 0.99 2.475 0.99 5 2 C5 2.66 5 3.32 5 4 C5.639375 4.103125 6.27875 4.20625 6.9375 4.3125 C7.618125 4.539375 8.29875 4.76625 9 5 C9.33 5.99 9.66 6.98 10 8 C5.69235185 6.43358249 1.93828536 4.31663844 -2 2 C-1.34 1.34 -0.68 0.68 0 0 Z " fill="#005B98" transform="translate(411,877)"/>
<path d="M0 0 C2 2 2 2 2.1953125 4.6015625 C2.17210937 5.59929688 2.14890625 6.59703125 2.125 7.625 C2.10695313 8.62789062 2.08890625 9.63078125 2.0703125 10.6640625 C2.03550781 11.82035156 2.03550781 11.82035156 2 13 C1.01 13 0.02 13 -1 13 C-0.67 8.71 -0.34 4.42 0 0 Z " fill="#005B97" transform="translate(763,748)"/>
<path d="M0 0 C0.66 1.32 1.32 2.64 2 4 C0.02 6.64 -1.96 9.28 -4 12 C-4.66 11.67 -5.32 11.34 -6 11 C-4.02 7.37 -2.04 3.74 0 0 Z " fill="#005C97" transform="translate(140,518)"/>
<path d="M0 0 C0 0.33 0 0.66 0 1 C-4.62 2.32 -9.24 3.64 -14 5 C-14.33 4.34 -14.66 3.68 -15 3 C-13.68 3 -12.36 3 -11 3 C-11 2.34 -11 1.68 -11 1 C-7.2297564 -1.56376565 -4.32597804 -0.83191885 0 0 Z " fill="#005790" transform="translate(425,486)"/>
<path d="M0 0 C3.63 0.66 7.26 1.32 11 2 C10.34 2.66 9.68 3.32 9 4 C6.6171875 3.9765625 6.6171875 3.9765625 3.875 3.625 C2.96492187 3.51414062 2.05484375 3.40328125 1.1171875 3.2890625 C0.41851563 3.19367188 -0.28015625 3.09828125 -1 3 C-0.67 2.01 -0.34 1.02 0 0 Z " fill="#005C97" transform="translate(612,322)"/>
<path d="M0 0 C0.7940625 -0.01417969 1.588125 -0.02835938 2.40625 -0.04296875 C4.5 0.1875 4.5 0.1875 6.5 2.1875 C0.065 2.6825 0.065 2.6825 -6.5 3.1875 C-6.5 2.5275 -6.5 1.8675 -6.5 1.1875 C-4.14653604 0.01076802 -2.6193967 0.02126134 0 0 Z " fill="#01568E" transform="translate(568.5,1158.8125)"/>
<path d="M0 0 C0.33 0.99 0.66 1.98 1 3 C0.34 3 -0.32 3 -1 3 C-1 3.66 -1 4.32 -1 5 C-1.99 5 -2.98 5 -4 5 C-4 5.66 -4 6.32 -4 7 C-5.65 7.33 -7.3 7.66 -9 8 C-7.82255415 4.46766245 -7.04394359 4.13691925 -3.9375 2.3125 C-3.20402344 1.87550781 -2.47054687 1.43851563 -1.71484375 0.98828125 C-1.14894531 0.66214844 -0.58304688 0.33601562 0 0 Z " fill="#0061A0" transform="translate(660,938)"/>
<path d="M0 0 C3.26008643 3.16952847 6.22237877 6.39937989 9 10 C6 10 6 10 4.17578125 8.46875 C3.56089844 7.8190625 2.94601562 7.169375 2.3125 6.5 C1.68988281 5.8503125 1.06726563 5.200625 0.42578125 4.53125 C-0.04472656 4.0259375 -0.51523437 3.520625 -1 3 C-0.67 2.01 -0.34 1.02 0 0 Z " fill="#00558D" transform="translate(268,774)"/>
<path d="M0 0 C1.97566188 1.97566188 2.89579072 3.52337094 4.125 6 C4.47820313 6.70125 4.83140625 7.4025 5.1953125 8.125 C6 10 6 10 6 12 C3 11 3 11 1.796875 9.2578125 C1.45140625 8.55398438 1.1059375 7.85015625 0.75 7.125 C0.39421875 6.42632813 0.0384375 5.72765625 -0.328125 5.0078125 C-1 3 -1 3 0 0 Z " fill="#00558D" transform="translate(669,643)"/>
<path d="M0 0 C0.33 0.99 0.66 1.98 1 3 C-1.64 5.64 -4.28 8.28 -7 11 C-7.66 10.67 -8.32 10.34 -9 10 C-8.34 8.68 -7.68 7.36 -7 6 C-6.01 6 -5.02 6 -4 6 C-3.71125 5.38125 -3.4225 4.7625 -3.125 4.125 C-2 2 -2 2 0 0 Z " fill="#006FB8" transform="translate(335,542)"/>
<path d="M0 0 C0.66 0.99 1.32 1.98 2 3 C-2 5 -6 7 -10 9 C-10 8.01 -10 7.02 -10 6 C-9.01 6 -8.02 6 -7 6 C-7 5.34 -7 4.68 -7 4 C-4.69 2.68 -2.38 1.36 0 0 Z " fill="#005C9B" transform="translate(578,485)"/>
<path d="M0 0 C0.99 0 1.98 0 3 0 C4.640625 1.64453125 4.640625 1.64453125 6.25 3.8125 C6.79140625 4.52019531 7.3328125 5.22789062 7.890625 5.95703125 C8.25671875 6.63121094 8.6228125 7.30539062 9 8 C8.67 8.99 8.34 9.98 8 11 C6.66375099 9.35653302 5.33107149 7.71016314 4 6.0625 C3.2575 5.14597656 2.515 4.22945312 1.75 3.28515625 C0 1 0 1 0 0 Z " fill="#015B94" transform="translate(172,999)"/>
<path d="M0 0 C1.41805831 0.28482368 2.83440379 0.57818144 4.25 0.875 C5.03890625 1.03742187 5.8278125 1.19984375 6.640625 1.3671875 C8.96831144 1.99150075 10.89031952 2.84838542 13 4 C9.72814447 5.07310858 7.57052408 4.89263102 4.25 4.0625 C3.45078125 3.86785156 2.6515625 3.67320312 1.828125 3.47265625 C1.22484375 3.31667969 0.6215625 3.16070313 0 3 C0 2.01 0 1.02 0 0 Z " fill="#00548E" transform="translate(434,972)"/>
<path d="M0 0 C0 3 0 3 -2.25 5.75 C-5 8 -5 8 -7.3125 7.8125 C-8.1478125 7.4103125 -8.1478125 7.4103125 -9 7 C-6.03716687 4.61327331 -3.05729491 2.2646629 0 0 Z " fill="#0065A6" transform="translate(670,931)"/>
<path d="M0 0 C2.9375 0.375 2.9375 0.375 6 1 C6.33 1.66 6.66 2.32 7 3 C4.03 3.66 1.06 4.32 -2 5 C-1.34 3.35 -0.68 1.7 0 0 Z " fill="#0069AE" transform="translate(568,896)"/>
<path d="M0 0 C0.66 0 1.32 0 2 0 C2 0.66 2 1.32 2 2 C2.9075 1.95875 3.815 1.9175 4.75 1.875 C7.8782046 1.99531556 9.38614006 2.3914708 12 4 C12 4.66 12 5.32 12 6 C7.39146203 5.27991594 3.32762591 3.68704061 -1 2 C-0.67 1.34 -0.34 0.68 0 0 Z " fill="#005996" transform="translate(440,893)"/>
<path d="M0 0 C3.3 0.66 6.6 1.32 10 2 C9.34 2.66 8.68 3.32 8 4 C5.6171875 3.9765625 5.6171875 3.9765625 2.875 3.625 C1.96492187 3.51414062 1.05484375 3.40328125 0.1171875 3.2890625 C-0.58148437 3.19367187 -1.28015625 3.09828125 -2 3 C-1.34 2.67 -0.68 2.34 0 2 C0 1.34 0 0.68 0 0 Z " fill="#00548F" transform="translate(657,857)"/>
<path d="M0 0 C0.66 0 1.32 0 2 0 C1.34 3.96 0.68 7.92 0 12 C-0.66 11.67 -1.32 11.34 -2 11 C-1.85892253 9.54119891 -1.71197585 8.08296449 -1.5625 6.625 C-1.48128906 5.81289063 -1.40007813 5.00078125 -1.31640625 4.1640625 C-1 2 -1 2 0 0 Z " fill="#005D98" transform="translate(932,832)"/>
<path d="M0 0 C0.33 0 0.66 0 1 0 C1 3.96 1 7.92 1 12 C0.01 12.495 0.01 12.495 -1 13 C-1.22245393 11.39773045 -1.42746669 9.79303233 -1.625 8.1875 C-1.74101562 7.29417969 -1.85703125 6.40085937 -1.9765625 5.48046875 C-2 3 -2 3 0 0 Z " fill="#004D83" transform="translate(260,741)"/>
<path d="M0 0 C2.82328089 2.82328089 2.79396942 5.08541907 3 9 C1.51171875 10.72265625 1.51171875 10.72265625 0 12 C-0.19401633 10.18818595 -0.38004375 8.37551468 -0.5625 6.5625 C-0.66691406 5.55316406 -0.77132812 4.54382813 -0.87890625 3.50390625 C-0.91886719 2.67761719 -0.95882812 1.85132813 -1 1 C-0.67 0.67 -0.34 0.34 0 0 Z " fill="#005D9B" transform="translate(761,679)"/>
<path d="M0 0 C2.29633824 3.44450737 2.54016485 5.93812283 3 10 C2.01 10 1.02 10 0 10 C-0.19412181 8.52168779 -0.38012131 7.04230684 -0.5625 5.5625 C-0.66691406 4.73878906 -0.77132812 3.91507813 -0.87890625 3.06640625 C-0.91886719 2.38449219 -0.95882812 1.70257812 -1 1 C-0.67 0.67 -0.34 0.34 0 0 Z " fill="#005F9C" transform="translate(928,621)"/>
<path d="M0 0 C0.66 0 1.32 0 2 0 C0.68938409 4.23429756 -0.94356259 8.07407404 -3 12 C-3.66 11.01 -4.32 10.02 -5 9 C-3.35 6.03 -1.7 3.06 0 0 Z " fill="#005994" transform="translate(291,600)"/>
<path d="M0 0 C2.97 1.98 5.94 3.96 9 6 C8.34 6.66 7.68 7.32 7 8 C4.03 6.02 1.06 4.04 -2 2 C-1.34 1.34 -0.68 0.68 0 0 Z " fill="#015995" transform="translate(652,512)"/>
<path d="M0 0 C0.66 0.66 1.32 1.32 2 2 C-1.63 4.31 -5.26 6.62 -9 9 C-8 5 -8 5 -6.15234375 3.515625 C-5.42144531 3.09796875 -4.69054687 2.6803125 -3.9375 2.25 C-3.20402344 1.82203125 -2.47054688 1.3940625 -1.71484375 0.953125 C-1.14894531 0.63859375 -0.58304687 0.3240625 0 0 Z " fill="#005792" transform="translate(379,507)"/>
<path d="M0 0 C0.66 0.33 1.32 0.66 2 1 C0.87895467 2.31587941 -0.24696965 3.62760353 -1.375 4.9375 C-2.00148438 5.66839844 -2.62796875 6.39929687 -3.2734375 7.15234375 C-5 9 -5 9 -7 10 C-6.42424336 6.64749299 -5.40693737 5.06181371 -2.9375 2.75 C-2.38964844 2.22921875 -1.84179688 1.7084375 -1.27734375 1.171875 C-0.64505859 0.59179688 -0.64505859 0.59179688 0 0 Z " fill="#00538A" transform="translate(829,1024)"/>
<path d="M0 0 C0.66 0.66 1.32 1.32 2 2 C-0.31 4.97 -2.62 7.94 -5 11 C-5.33 9.68 -5.66 8.36 -6 7 C-4.78515625 5.078125 -4.78515625 5.078125 -3.0625 3.25 C-2.49660156 2.63640625 -1.93070313 2.0228125 -1.34765625 1.390625 C-0.90292969 0.93171875 -0.45820312 0.4728125 0 0 Z " fill="#015F9C" transform="translate(862,984)"/>
<path d="M0 0 C0.33 0 0.66 0 1 0 C1.33 5.61 1.66 11.22 2 17 C1.01 17.33 0.02 17.66 -1 18 C-0.505 9.09 -0.505 9.09 0 0 Z " fill="#003B61" transform="translate(690,890)"/>
<path d="M0 0 C2.7972908 2.06756277 3.02692273 3.14440371 3.6875 6.6875 C3.790625 7.780625 3.89375 8.87375 4 10 C3.01 10.495 3.01 10.495 2 11 C1.01 7.7 0.02 4.4 -1 1 C-0.67 0.67 -0.34 0.34 0 0 Z " fill="#005D9A" transform="translate(103,869)"/>
<path d="M0 0 C1.9078584 3.1749094 2.1609041 5.10585211 1.625 8.75 C1.51414062 9.54921875 1.40328125 10.3484375 1.2890625 11.171875 C1.19367187 11.77515625 1.09828125 12.3784375 1 13 C0.67 13 0.34 13 0 13 C-0.98248196 8.94726192 -1.16017882 5.16464926 -1 1 C-0.67 0.67 -0.34 0.34 0 0 Z " fill="#005B98" transform="translate(684,683)"/>
<path d="M0 0 C1 3 1 3 0.0625 5.1875 C-0.4634375 6.0846875 -0.4634375 6.0846875 -1 7 C-1.66 7 -2.32 7 -3 7 C-3.33 8.65 -3.66 10.3 -4 12 C-4.99 11.67 -5.98 11.34 -7 11 C-4.69 7.37 -2.38 3.74 0 0 Z " fill="#005F9D" transform="translate(365,625)"/>
<path d="M0 0 C4.455 1.98 4.455 1.98 9 4 C9 4.99 9 5.98 9 7 C5.7 5.35 2.4 3.7 -1 2 C-0.67 1.34 -0.34 0.68 0 0 Z " fill="#005893" transform="translate(297,1105)"/>
<path d="M0 0 C0.66 0 1.32 0 2 0 C0.515 5.445 0.515 5.445 -1 11 C-1.66 10.67 -2.32 10.34 -3 10 C-2.49287967 6.28111761 -1.88391785 3.26545761 0 0 Z " fill="#015F9B" transform="translate(922,868)"/>
<path d="M0 0 C0.33 0.99 0.66 1.98 1 3 C-1.52788007 5.79872437 -3.20411134 7.45773019 -7 8 C-7.33 7.34 -7.66 6.68 -8 6 C-5.36 4.02 -2.72 2.04 0 0 Z " fill="#0063A4" transform="translate(752,779)"/>
<path d="M0 0 C0.66 0 1.32 0 2 0 C0.54955729 4.10958767 -1.51110752 7.43258745 -4 11 C-4.66 10.34 -5.32 9.68 -6 9 C-5.05016642 7.49460339 -4.08988109 5.99579653 -3.125 4.5 C-2.59132813 3.6646875 -2.05765625 2.829375 -1.5078125 1.96875 C-0.76144531 0.99421875 -0.76144531 0.99421875 0 0 Z " fill="#005690" transform="translate(305,578)"/>
<path d="M0 0 C2.97 1.65 5.94 3.3 9 5 C8.34 5.66 7.68 6.32 7 7 C4.69 6.34 2.38 5.68 0 5 C0 3.35 0 1.7 0 0 Z " fill="#0062A3" transform="translate(601,571)"/>
<path d="M0 0 C0.66 0.66 1.32 1.32 2 2 C-0.31 4.97 -2.62 7.94 -5 11 C-5.33 10.01 -5.66 9.02 -6 8 C-4.6875 5.8125 -4.6875 5.8125 -3 4 C-2.34 4 -1.68 4 -1 4 C-0.67 2.68 -0.34 1.36 0 0 Z " fill="#00558E" transform="translate(313,567)"/>
<path d="M0 0 C0.33 0.99 0.66 1.98 1 3 C-4.17578125 6.22265625 -4.17578125 6.22265625 -6 7 C-6.99 6.67 -7.98 6.34 -9 6 C-6.11964908 3.75972706 -3.15133488 1.83827868 0 0 Z " fill="#005B97" transform="translate(452,554)"/>
<path d="M0 0 C1 3 1 3 0.22265625 4.82421875 C-0.8515625 6.54947917 -1.92578125 8.27473958 -3 10 C-3.33 10 -3.66 10 -4 10 C-3.38461538 3.47692308 -3.38461538 3.47692308 -1.4375 1.0625 C-0.7259375 0.5365625 -0.7259375 0.5365625 0 0 Z " fill="#0069AD" transform="translate(127,544)"/>
<path d="M0 0 C-0.33 0.99 -0.66 1.98 -1 3 C-7.0546875 3.9765625 -7.0546875 3.9765625 -9 4 C-9.66 3.34 -10.32 2.68 -11 2 C-3.375 0 -3.375 0 0 0 Z " fill="#005E99" transform="translate(404,324)"/>
<path d="M0 0 C0.80824219 0.10183594 1.61648438 0.20367188 2.44921875 0.30859375 C3.06410156 0.39238281 3.67898438 0.47617188 4.3125 0.5625 C4.3125 0.8925 4.3125 1.2225 4.3125 1.5625 C0.6825 1.8925 -2.9475 2.2225 -6.6875 2.5625 C-7.0175 1.9025 -7.3475 1.2425 -7.6875 0.5625 C-4.59271121 -0.46909626 -3.16118607 -0.41232862 0 0 Z " fill="#00558C" transform="translate(583.6875,1157.4375)"/>
<path d="M0 0 C-0.33 0.99 -0.66 1.98 -1 3 C-8.625 4.25 -8.625 4.25 -12 2 C-10.56342755 1.66269158 -9.12569907 1.33030409 -7.6875 1 C-6.88699219 0.814375 -6.08648438 0.62875 -5.26171875 0.4375 C-3 0 -3 0 0 0 Z " fill="#005186" transform="translate(571,977)"/>
<path d="M0 0 C0.33 0.66 0.66 1.32 1 2 C1.66 2 2.32 2 3 2 C3.125 5.375 3.125 5.375 3 9 C2.34 9.66 1.68 10.32 1 11 C0.87625 9.865625 0.7525 8.73125 0.625 7.5625 C0.41875 6.386875 0.2125 5.21125 0 4 C-0.66 3.67 -1.32 3.34 -2 3 C-1 1 -1 1 0 0 Z " fill="#00426E" transform="translate(84,794)"/>
<path d="M0 0 C1.90318884 2.85478326 2.4619099 4.41941308 3.125 7.6875 C3.29257812 8.49574219 3.46015625 9.30398438 3.6328125 10.13671875 C3.75398437 10.75160156 3.87515625 11.36648438 4 12 C3.34 12 2.68 12 2 12 C-0.60018816 8.09971775 -0.15085514 4.52565431 0 0 Z " fill="#005991" transform="translate(924,608)"/>
<path d="M0 0 C3.48331435 3.01887244 4.79157144 5.56909529 6 10 C3 9 3 9 1.3125 6.6875 C0 4 0 4 0 0 Z " fill="#0063A1" transform="translate(891,534)"/>
<path d="M0 0 C3.00617269 3.00617269 2.59585316 5.82381598 3 10 C2.01 10.33 1.02 10.66 0 11 C-0.19491452 9.54263913 -0.38069358 8.08405407 -0.5625 6.625 C-0.66691406 5.81289063 -0.77132813 5.00078125 -0.87890625 4.1640625 C-1 2 -1 2 0 0 Z " fill="#015590" transform="translate(468,510)"/>
<path d="M0 0 C2.96404505 2.80804268 5.44499019 5.18315774 7 9 C6.01 9 5.02 9 4 9 C2.61328125 7.25 2.61328125 7.25 1.3125 5 C0.87550781 4.2575 0.43851563 3.515 -0.01171875 2.75 C-0.33785156 2.1725 -0.66398438 1.595 -1 1 C-0.67 0.67 -0.34 0.34 0 0 Z " fill="#0062A1" transform="translate(862,488)"/>
<path d="M0 0 C0 0.66 0 1.32 0 2 C-4.95 3.485 -4.95 3.485 -10 5 C-10 4.34 -10 3.68 -10 3 C-6.27034861 0.96564469 -4.33094958 0 0 0 Z " fill="#0061A3" transform="translate(674,1132)"/>
<path d="M0 0 C4 0 4 0 6.25 2 C6.8275 2.66 7.405 3.32 8 4 C7.67 4.99 7.34 5.98 7 7 C5.83040013 6.02433888 4.66438823 5.044375 3.5 4.0625 C2.8503125 3.51722656 2.200625 2.97195313 1.53125 2.41015625 C1.0259375 1.94480469 0.520625 1.47945312 0 1 C0 0.67 0 0.34 0 0 Z " fill="#005187" transform="translate(209,1040)"/>
<path d="M0 0 C0.66 0.66 1.32 1.32 2 2 C-0.31 4.31 -2.62 6.62 -5 9 C-5.33 8.01 -5.66 7.02 -6 6 C-4.02 4.02 -2.04 2.04 0 0 Z " fill="#005085" transform="translate(820,1033)"/>
<path d="M0 0 C2.1723491 3.25852365 4.07119658 6.59244728 6 10 C4.1875 9.875 4.1875 9.875 2 9 C0.1875 6.125 0.1875 6.125 -1 3 C-0.67 2.01 -0.34 1.02 0 0 Z " fill="#005691" transform="translate(335,908)"/>
<path d="M0 0 C0.66 0 1.32 0 2 0 C2.33 1.32 2.66 2.64 3 4 C2.34 4 1.68 4 1 4 C1 4.66 1 5.32 1 6 C-0.32 6.33 -1.64 6.66 -3 7 C-2.01 4.69 -1.02 2.38 0 0 Z " fill="#006AB2" transform="translate(689,908)"/>
<path d="M0 0 C2.79908133 2.79908133 2.72362983 5.13081763 3 9 C2.34 9.66 1.68 10.32 1 11 C0.63890458 9.35567294 0.28629924 7.7094792 -0.0625 6.0625 C-0.25972656 5.14597656 -0.45695312 4.22945312 -0.66015625 3.28515625 C-0.77230469 2.53105469 -0.88445312 1.77695312 -1 1 C-0.67 0.67 -0.34 0.34 0 0 Z " fill="#015790" transform="translate(94,839)"/>
<path d="M0 0 C2.93200474 2.85276137 5.64315404 5.65079784 8 9 C4.21304827 8.4590069 2.37254028 6.96567536 0 4 C0 2.68 0 1.36 0 0 Z " fill="#005791" transform="translate(695,774)"/>
<path d="M0 0 C0.33 0 0.66 0 1 0 C1.02696365 1.79158489 1.04637917 3.58328473 1.0625 5.375 C1.07410156 6.37273438 1.08570313 7.37046875 1.09765625 8.3984375 C1 11 1 11 0 13 C-0.66 13 -1.32 13 -2 13 C-2 11.02 -2 9.04 -2 7 C-1.67 7 -1.34 7 -1 7 C-0.67 4.69 -0.34 2.38 0 0 Z " fill="#0061A4" transform="translate(337,747)"/>
<path d="M0 0 C0.66 0.33 1.32 0.66 2 1 C2.75 3.9375 2.75 3.9375 3 7 C2.34 7.66 1.68 8.32 1 9 C-1.09230769 4.56923077 -1.09230769 4.56923077 -0.625 1.6875 C-0.41875 1.130625 -0.2125 0.57375 0 0 Z " fill="#0060A0" transform="translate(756,658)"/>
<path d="M0 0 C0.66 0.33 1.32 0.66 2 1 C1.7452486 2.31571603 1.47065859 3.62760376 1.1875 4.9375 C1.03667969 5.66839844 0.88585937 6.39929688 0.73046875 7.15234375 C0.48941406 7.76207031 0.24835938 8.37179687 0 9 C-0.99 9.33 -1.98 9.66 -3 10 C-2.01 6.7 -1.02 3.4 0 0 Z " fill="#005F9B" transform="translate(110,578)"/>
<path d="M0 0 C0.33 1.32 0.66 2.64 1 4 C-1.97 6.475 -1.97 6.475 -5 9 C-5.66 8.67 -6.32 8.34 -7 8 C-4.69 5.36 -2.38 2.72 0 0 Z " fill="#005D99" transform="translate(187,455)"/>
<path d="M0 0 C1.17539996 0.92652701 2.34010577 1.86663387 3.5 2.8125 C4.1496875 3.33457031 4.799375 3.85664063 5.46875 4.39453125 C7 6 7 6 7 9 C5.82460004 8.07347299 4.65989423 7.13336613 3.5 6.1875 C2.52546875 5.40439453 2.52546875 5.40439453 1.53125 4.60546875 C0 3 0 3 0 0 Z " fill="#004B7E" transform="translate(816,434)"/>
<path d="M0 0 C0.33 0.66 0.66 1.32 1 2 C-2.32307692 6.8 -2.32307692 6.8 -5.75 7.8125 C-6.4925 7.874375 -7.235 7.93625 -8 8 C-5.33333333 5.33333333 -2.66666667 2.66666667 0 0 Z " fill="#005890" transform="translate(222,420)"/>
<path d="M0 0 C3.3 0.99 6.6 1.98 10 3 C9.67 3.66 9.34 4.32 9 5 C4.545 4.01 4.545 4.01 0 3 C0 2.01 0 1.02 0 0 Z " fill="#005D99" transform="translate(672,341)"/>
<path d="M0 0 C0.99 0.33 1.98 0.66 3 1 C0.36 2.98 -2.28 4.96 -5 7 C-5 6.01 -5 5.02 -5 4 C-2.6875 1.75 -2.6875 1.75 0 0 Z " fill="#005891" transform="translate(786,1064)"/>
<path d="M0 0 C2.1015625 0.42578125 2.1015625 0.42578125 4 1 C2.8803014 2.00593243 1.7540588 3.0045849 0.625 4 C-0.00148438 4.556875 -0.62796875 5.11375 -1.2734375 5.6875 C-3 7 -3 7 -5 7 C-3.7251791 4.15616877 -2.54862922 1.86245982 0 0 Z " fill="#00578E" transform="translate(802,1050)"/>
<path d="M0 0 C0.33 0 0.66 0 1 0 C1.2226746 1.43534841 1.42761906 2.87345525 1.625 4.3125 C1.74101563 5.11300781 1.85703125 5.91351562 1.9765625 6.73828125 C2 9 2 9 0 12 C-0.19477739 10.37585622 -0.38059458 8.75063577 -0.5625 7.125 C-0.66691406 6.22007812 -0.77132812 5.31515625 -0.87890625 4.3828125 C-1 2 -1 2 0 0 Z " fill="#015891" transform="translate(87,804)"/>
<path d="M0 0 C0.33 0 0.66 0 1 0 C1.66 3.3 2.32 6.6 3 10 C1.68 9.34 0.36 8.68 -1 8 C-1.125 2.25 -1.125 2.25 0 0 Z " fill="#005790" transform="translate(689,758)"/>
<path d="M0 0 C0.33 0 0.66 0 1 0 C1.0270043 1.45823212 1.04639787 2.91660675 1.0625 4.375 C1.07410156 5.18710937 1.08570313 5.99921875 1.09765625 6.8359375 C1 9 1 9 0 11 C-0.66 11 -1.32 11 -2 11 C-1.125 3.375 -1.125 3.375 0 0 Z " fill="#00568E" transform="translate(342,673)"/>
<path d="M0 0 C2.64 0.99 5.28 1.98 8 3 C7.67 3.66 7.34 4.32 7 5 C4.03 4.01 1.06 3.02 -2 2 C-1.34 1.34 -0.68 0.68 0 0 Z " fill="#0065A7" transform="translate(603,485)"/>
<path d="M0 0 C4.455 0.99 4.455 0.99 9 2 C8.67 2.99 8.34 3.98 8 5 C4.62537285 4.45276317 2.91765 3.9451 0 2 C0 1.34 0 0.68 0 0 Z " fill="#005C98" transform="translate(682,345)"/>
<path d="M0 0 C-1 3 -1 3 -3.375 4.1875 C-6 5 -6 5 -9 5 C-9 4.34 -9 3.68 -9 3 C-2.25 0 -2.25 0 0 0 Z " fill="#005B96" transform="translate(359,338)"/>
<path d="M0 0 C4.95 0.99 4.95 0.99 10 2 C9.34 2.66 8.68 3.32 8 4 C5.27130593 3.96712417 2.7033382 3.43602229 0 3 C0 2.01 0 1.02 0 0 Z " fill="#015891" transform="translate(624,325)"/>
<path d="M0 0 C0.99 0 1.98 0 3 0 C4.25664978 2.90600261 5 4.79604584 5 8 C4.34 8 3.68 8 3 8 C0 2.25 0 2.25 0 0 Z " fill="#005E9B" transform="translate(117,908)"/>
<path d="M0 0 C0 0.66 0 1.32 0 2 C1.32 2.66 2.64 3.32 4 4 C2.1875 4.6875 2.1875 4.6875 0 5 C-1.5625 3.6875 -1.5625 3.6875 -3 2 C-3.99 1.34 -4.98 0.68 -6 0 C-3.50907189 -1.24546405 -2.58919267 -0.7767578 0 0 Z " fill="#004F85" transform="translate(672,861)"/>
<path d="M0 0 C0.66 0.33 1.32 0.66 2 1 C2.40729228 3.32156597 2.74438677 5.6568787 3 8 C2.01 8.495 2.01 8.495 1 9 C0.63877119 7.68942607 0.28619689 6.37646376 -0.0625 5.0625 C-0.35833984 3.96615234 -0.35833984 3.96615234 -0.66015625 2.84765625 C-0.77230469 2.23792969 -0.88445312 1.62820313 -1 1 C-0.67 0.67 -0.34 0.34 0 0 Z " fill="#0062A1" transform="translate(99,857)"/>
<path d="M0 0 C1.61949011 2.57213134 2.04408751 3.67669159 1.625 6.75 C1.41875 7.4925 1.2125 8.235 1 9 C0.34 8.67 -0.32 8.34 -1 8 C-1.04241723 5.66705225 -1.04092937 3.33297433 -1 1 C-0.67 0.67 -0.34 0.34 0 0 Z " fill="#005E9B" transform="translate(932,636)"/>
<path d="M0 0 C0.33 0.99 0.66 1.98 1 3 C-1.8125 4.5625 -1.8125 4.5625 -5 6 C-5.99 5.67 -6.98 5.34 -8 5 C-5.44008376 2.98863724 -2.95409701 1.37154504 0 0 Z " fill="#005F9E" transform="translate(438,562)"/>
<path d="M0 0 C2.5 2.3125 2.5 2.3125 5 5 C5 5.99 5 6.98 5 8 C2.5 5.6875 2.5 5.6875 0 3 C0 2.01 0 1.02 0 0 Z " fill="#005D9B" transform="translate(850,472)"/>
<path d="M0 0 C4.29 0 8.58 0 13 0 C13 0.33 13 0.66 13 1 C9.04 1.66 5.08 2.32 1 3 C0.67 2.01 0.34 1.02 0 0 Z " fill="#000000" transform="translate(401,320)"/>
<path d="M0 0 C3.0625 0.1875 3.0625 0.1875 5.0625 2.1875 C2.14767222 2.99717438 0.60136783 3.40595993 -2.25 2.25 C-2.806875 1.899375 -3.36375 1.54875 -3.9375 1.1875 C-2.9375 0.1875 -2.9375 0.1875 0 0 Z " fill="#005690" transform="translate(433.9375,1154.8125)"/>
<path d="M0 0 C0 0.66 0 1.32 0 2 C-6.0546875 2.9765625 -6.0546875 2.9765625 -8 3 C-8.66 2.34 -9.32 1.68 -10 1 C-6.61981469 -0.04005702 -3.5219721 -0.08004482 0 0 Z " fill="#015C98" transform="translate(608,1153)"/>
<path d="M0 0 C-2.6855594 2.6855594 -5.37621328 3.06049974 -9 4 C-8 1 -8 1 -5.625 -0.25 C-3 -1 -3 -1 0 0 Z " fill="#015F9C" transform="translate(688,1127)"/>
<path d="M0 0 C0.99 0.66 1.98 1.32 3 2 C-0.96 3.98 -0.96 3.98 -5 6 C-5 4.68 -5 3.36 -5 2 C-2.6875 0.875 -2.6875 0.875 0 0 Z " fill="#005995" transform="translate(733,1101)"/>
<path d="M0 0 C0.66 0.66 1.32 1.32 2 2 C-0.8125 4.0625 -0.8125 4.0625 -4 6 C-4.99 5.67 -5.98 5.34 -7 5 C-2.25 1.125 -2.25 1.125 0 0 Z " fill="#005991" transform="translate(742,1096)"/>
<path d="M0 0 C0.99 0.33 1.98 0.66 3 1 C-0.465 3.97 -0.465 3.97 -4 7 C-4 4 -4 4 -2 1.8125 C-1.34 1.214375 -0.68 0.61625 0 0 Z " fill="#014A7A" transform="translate(811,1042)"/>
<path d="M0 0 C0.99 0.33 1.98 0.66 3 1 C1.02 3.31 -0.96 5.62 -3 8 C-3.33 6.68 -3.66 5.36 -4 4 C-2.0625 1.75 -2.0625 1.75 0 0 Z " fill="#01548B" transform="translate(836,1016)"/>
<path d="M0 0 C2.97 0.495 2.97 0.495 6 1 C6 2.65 6 4.3 6 6 C5.01 6 4.02 6 3 6 C2.01 4.02 1.02 2.04 0 0 Z " fill="#0166A6" transform="translate(167,992)"/>
<path d="M0 0 C-0.66 1.32 -1.32 2.64 -2 4 C-3.32 3.67 -4.64 3.34 -6 3 C-6 2.01 -6 1.02 -6 0 C-3 -1 -3 -1 0 0 Z " fill="#006BB2" transform="translate(594,972)"/>
<path d="M0 0 C2.12508244 3.18762365 2.5020163 5.26512223 3 9 C2.34 9 1.68 9 1 9 C-0.61949011 6.42786866 -1.04408751 5.32330841 -0.625 2.25 C-0.41875 1.5075 -0.2125 0.765 0 0 Z " fill="#005A97" transform="translate(678,663)"/>
<path d="M0 0 C0.33 0 0.66 0 1 0 C1.22174933 1.45635371 1.42698698 2.91522956 1.625 4.375 C1.74101563 5.18710937 1.85703125 5.99921875 1.9765625 6.8359375 C1.98429688 7.55007813 1.99203125 8.26421875 2 9 C1.34 9.66 0.68 10.32 0 11 C-1.125 3.375 -1.125 3.375 0 0 Z " fill="#005B95" transform="translate(934,644)"/>
<path d="M0 0 C1.99097846 2.98646769 2.94124926 5.59687262 4 9 C3.01 8.67 2.02 8.34 1 8 C-0.25 5.0625 -0.25 5.0625 -1 2 C-0.67 1.34 -0.34 0.68 0 0 Z " fill="#005B98" transform="translate(556,534)"/>
<path d="M0 0 C3.375 -0.125 3.375 -0.125 7 0 C7.66 0.66 8.32 1.32 9 2 C4.545 2.495 4.545 2.495 0 3 C0 2.01 0 1.02 0 0 Z " fill="#00558B" transform="translate(590,1155)"/>
<path d="M0 0 C-2.64 1.65 -5.28 3.3 -8 5 C-8 4.01 -8 3.02 -8 2 C-4.90310319 -1.09689681 -4.48560889 -1.12140222 0 0 Z " fill="#015E9A" transform="translate(757,1089)"/>
<path d="M0 0 C6.75 1.625 6.75 1.625 9 5 C4.98525763 5 3.18024863 3.33218233 0 1 C0 0.67 0 0.34 0 0 Z " fill="#00538A" transform="translate(255,1079)"/>
<path d="M0 0 C4.31392226 0.4793247 6.16569547 1.7457985 9 5 C8.01 5.33 7.02 5.66 6 6 C2.8125 3.625 2.8125 3.625 0 1 C0 0.67 0 0.34 0 0 Z " fill="#015993" transform="translate(226,1056)"/>
<path d="M0 0 C0.66 0.66 1.32 1.32 2 2 C0.9024777 4.99324263 0.32317108 5.84610901 -2.625 7.25 C-3.40875 7.4975 -4.1925 7.745 -5 8 C-3.35 5.36 -1.7 2.72 0 0 Z " fill="#005E9B" transform="translate(685,915)"/>
<path d="M0 0 C-2.62198774 2.15377564 -4.64404172 3.40072174 -8 4 C-8 3.01 -8 2.02 -8 1 C-5.29120665 -0.35439668 -2.99066732 -0.06501451 0 0 Z " fill="#005E9A" transform="translate(598,888)"/>
<path d="M0 0 C1.98 0.99 3.96 1.98 6 3 C6 3.99 6 4.98 6 6 C2.535 4.02 2.535 4.02 -1 2 C-0.67 1.34 -0.34 0.68 0 0 Z " fill="#005998" transform="translate(403,872)"/>
<path d="M0 0 C0.66 0.66 1.32 1.32 2 2 C1.625 5.625 1.625 5.625 1 9 C-0.61949011 6.42786866 -1.04408751 5.32330841 -0.625 2.25 C-0.41875 1.5075 -0.2125 0.765 0 0 Z " fill="#005A94" transform="translate(92,830)"/>
<path d="M0 0 C0.66 0.66 1.32 1.32 2 2 C1.64700993 5.44165321 0.95418308 7.06872538 -1 10 C-2.31223496 6.06329512 -1.24296256 3.87511856 0 0 Z " fill="#005188" transform="translate(334,760)"/>
<path d="M0 0 C2.25245881 2.68841859 3.88213958 4.64641875 5 8 C4.01 8 3.02 8 2 8 C0.23537317 4.91190305 0 3.76687864 0 0 Z " fill="#005D9C" transform="translate(664,635)"/>
<path d="M0 0 C0.33 0.99 0.66 1.98 1 3 C-0.32 4.32 -1.64 5.64 -3 7 C-3.99 6.67 -4.98 6.34 -6 6 C-4.02 4.02 -2.04 2.04 0 0 Z " fill="#0065A9" transform="translate(394,592)"/>
<path d="M0 0 C2.31 1.98 4.62 3.96 7 6 C6.01 6.33 5.02 6.66 4 7 C2 5.1875 2 5.1875 0 3 C0 2.01 0 1.02 0 0 Z " fill="#00558C" transform="translate(832,451)"/>
<path d="M0 0 C-0.33 0.66 -0.66 1.32 -1 2 C-3.9375 2.75 -3.9375 2.75 -7 3 C-7.66 2.34 -8.32 1.68 -9 1 C-3.375 -1.125 -3.375 -1.125 0 0 Z " fill="#0062A3" transform="translate(393,328)"/>
<path d="M0 0 C0.33 0.66 0.66 1.32 1 2 C2.65 2 4.3 2 6 2 C5.34 2.66 4.68 3.32 4 4 C0.375 3.625 0.375 3.625 -3 3 C-3 2.34 -3 1.68 -3 1 C-2.01 0.67 -1.02 0.34 0 0 Z " fill="#015185" transform="translate(584,315)"/>
<path d="M0 0 C2.31 0.33 4.62 0.66 7 1 C7 1.66 7 2.32 7 3 C4.36 2.67 1.72 2.34 -1 2 C-0.67 1.34 -0.34 0.68 0 0 Z " fill="#02538A" transform="translate(417,1152)"/>
<path d="M0 0 C-3.18762365 2.12508244 -5.26512223 2.5020163 -9 3 C-9.33 2.34 -9.66 1.68 -10 1 C-6.78548731 -0.60725635 -3.56387464 -0.05748185 0 0 Z " fill="#005890" transform="translate(644,1144)"/>
<path d="M0 0 C2.9375 0.8125 2.9375 0.8125 6 2 C6.33 2.99 6.66 3.98 7 5 C4.03 4.01 1.06 3.02 -2 2 C-1.34 1.34 -0.68 0.68 0 0 Z " fill="#01558C" transform="translate(341,1127)"/>
<path d="M0 0 C5.75 0.75 5.75 0.75 8 3 C7.34 3.66 6.68 4.32 6 5 C3.98079663 3.69593116 1.98075027 2.36176581 0 1 C0 0.67 0 0.34 0 0 Z " fill="#015890" transform="translate(266,1087)"/>
<path d="M0 0 C2.64 0.66 5.28 1.32 8 2 C7.67 2.66 7.34 3.32 7 4 C4.03 3.505 4.03 3.505 1 3 C0.67 2.01 0.34 1.02 0 0 Z " fill="#005793" transform="translate(414,965)"/>
<path d="M0 0 C-0.33 0.99 -0.66 1.98 -1 3 C-3.875 3.625 -3.875 3.625 -7 4 C-7.66 3.34 -8.32 2.68 -9 2 C-2.25 0 -2.25 0 0 0 Z " fill="#005288" transform="translate(313,788)"/>
<path d="M0 0 C0.66 0.33 1.32 0.66 2 1 C1.67 3.97 1.34 6.94 1 10 C-1.56687367 6.1496895 -0.83288724 4.41430237 0 0 Z " fill="#014F83" transform="translate(264,671)"/>
<path d="M0 0 C1.89213369 2.38573379 3.02391783 4.07175348 4 7 C3.01 7 2.02 7 1 7 C-1 4 -1 4 -0.625 1.8125 C-0.41875 1.214375 -0.2125 0.61625 0 0 Z " fill="#00619F" transform="translate(899,548)"/>
<path d="M0 0 C0.66 0.66 1.32 1.32 2 2 C1.625 5.125 1.625 5.125 1 8 C0.01 8 -0.98 8 -2 8 C-1.34 5.36 -0.68 2.72 0 0 Z " fill="#005C97" transform="translate(467,532)"/>
<path d="M0 0 C3.24208567 0.35049575 4.61527704 0.56221181 6.8125 3.0625 C7.204375 3.701875 7.59625 4.34125 8 5 C5 5 5 5 2.3125 2.5 C1.549375 1.675 0.78625 0.85 0 0 Z " fill="#005894" transform="translate(664,523)"/>
<path d="M0 0 C2.31 1.65 4.62 3.3 7 5 C6.01 5.33 5.02 5.66 4 6 C1.8125 4.75 1.8125 4.75 0 3 C0 2.01 0 1.02 0 0 Z " fill="#005791" transform="translate(783,405)"/>
<path d="M0 0 C1.65 0 3.3 0 5 0 C5 0.33 5 0.66 5 1 C3.35 1 1.7 1 0 1 C0 0.67 0 0.34 0 0 Z " fill="#000000" transform="translate(587,487)"/>
<path d="M0 0 C4 1 4 1 4 1 Z " fill="#000000" transform="translate(507,1166)"/>
<path d="M0 0 C0.66 0.66 1.32 1.32 2 2 C1.01 1.67 0.02 1.34 -1 1 C-0.67 0.67 -0.34 0.34 0 0 Z " fill="#000000" transform="translate(361,1138)"/>
<path d="M0 0 C4 1 4 1 4 1 Z " fill="#000000" transform="translate(428,487)"/>
<path d="M0 0 C0.66 0 1.32 0 2 0 C1.67 0.66 1.34 1.32 1 2 C0.67 1.34 0.34 0.68 0 0 Z " fill="#000000" transform="translate(596,1158)"/>
<path d="M0 0 C3 1 3 1 3 1 Z " fill="#000000" transform="translate(512,911)"/>
<path d="M0 0 C3 1 3 1 3 1 Z " fill="#000000" transform="translate(508,911)"/>
<path d="M0 0 C0.33 0.66 0.66 1.32 1 2 C0.34 1.67 -0.32 1.34 -1 1 C-0.67 0.67 -0.34 0.34 0 0 Z " fill="#000000" transform="translate(619,320)"/>
<path d="M0 0 C0.66 0 1.32 0 2 0 C1.67 0.66 1.34 1.32 1 2 C0.67 1.34 0.34 0.68 0 0 Z " fill="#000000" transform="translate(615,320)"/>
<path d="M0 0 C3 1 3 1 3 1 Z " fill="#000000" transform="translate(611,320)"/>
<path d="M0 0 C2 1 2 1 2 1 Z " fill="#000000" transform="translate(191,1448)"/>
<path d="M0 0 C2 1 2 1 2 1 Z " fill="#000000" transform="translate(488,1165)"/>
<path d="M0 0 C2 1 2 1 2 1 Z " fill="#000000" transform="translate(482,1165)"/>
<path d="M0 0 C2 1 2 1 2 1 Z " fill="#000000" transform="translate(588,1159)"/>
<path d="M0 0 C2 1 2 1 2 1 Z " fill="#000000" transform="translate(436,1159)"/>
<path d="M0 0 C2 1 2 1 2 1 Z " fill="#000000" transform="translate(601,1157)"/>
<path d="M0 0 C2 1 2 1 2 1 Z " fill="#000000" transform="translate(421,1156)"/>
<path d="M0 0 C2 1 2 1 2 1 Z " fill="#000000" transform="translate(417,1155)"/>
<path d="M0 0 C2 1 2 1 2 1 Z " fill="#000000" transform="translate(393,1149)"/>
<path d="M0 0 C2 1 2 1 2 1 Z " fill="#000000" transform="translate(373,1143)"/>
<path d="M0 0 C2 1 2 1 2 1 Z " fill="#000000" transform="translate(365,1140)"/>
<path d="M0 0 C2 1 2 1 2 1 Z " fill="#000000" transform="translate(314,1118)"/>
<path d="M0 0 C2 1 2 1 2 1 Z " fill="#000000" transform="translate(257,1083)"/>
<path d="M0 0 C2 1 2 1 2 1 Z " fill="#000000" transform="translate(208,1045)"/>
<path d="M0 0 C2 1 2 1 2 1 Z " fill="#000000" transform="translate(516,911)"/>
<path d="M0 0 C2 1 2 1 2 1 Z " fill="#000000" transform="translate(448,493)"/>
<path d="M0 0 C2 1 2 1 2 1 Z " fill="#000000" transform="translate(337,344)"/>
<path d="M0 0 C2 1 2 1 2 1 Z " fill="#000000" transform="translate(393,324)"/>
<path d="M0 0 C2 1 2 1 2 1 Z " fill="#000000" transform="translate(433,315)"/>
<path d="M0 0 C2 1 2 1 2 1 Z " fill="#000000" transform="translate(566,312)"/>
<path d="M0 0 C2 1 2 1 2 1 Z " fill="#000000" transform="translate(450,312)"/>
</svg>
