<?xml version="1.0" encoding="UTF-8"?>
<svg version="1.1" xmlns="http://www.w3.org/2000/svg" width="898" height="878">
<path d="M0 0 C1.13796021 0.04524811 2.27592041 0.09049622 3.44836426 0.13711548 C6.69250017 0.26910068 9.93611156 0.40964178 13.1796875 0.5546875 C14.16989899 0.59646622 15.16011047 0.63824493 16.18032837 0.68128967 C17.53328506 0.74599709 17.53328506 0.74599709 18.91357422 0.81201172 C19.70609589 0.8483371 20.49861755 0.88466248 21.31515503 0.92208862 C23.125 1.125 23.125 1.125 24.125 2.125 C26.68919619 2.5301844 29.23641859 2.87946546 31.8125 3.1875 C32.52083984 3.27837891 33.22917969 3.36925781 33.95898438 3.46289062 C38.04091925 3.96418087 42.00346056 4.2223592 46.125 4.125 C46.125 4.785 46.125 5.445 46.125 6.125 C46.82955322 6.16020752 47.53410645 6.19541504 48.26000977 6.23168945 C56.4511829 6.76271633 64.11432957 8.31079779 72.0625 10.3125 C73.33593262 10.62856201 74.60936523 10.94462402 75.92138672 11.27026367 C79.65992846 12.20689896 83.39330556 13.16148238 87.125 14.125 C88.09743652 14.37411133 89.06987305 14.62322266 90.07177734 14.87988281 C109.46389977 19.91578017 128.49768335 26.83574668 146.71875 35.1640625 C149.1575038 36.31043538 149.1575038 36.31043538 152.125 36.125 C152.125 36.785 152.125 37.445 152.125 38.125 C152.96417969 38.38152344 153.80335938 38.63804688 154.66796875 38.90234375 C158.41545274 40.22772509 161.90474436 41.88485836 165.4375 43.6875 C166.13335205 44.04046143 166.8292041 44.39342285 167.54614258 44.75708008 C169.01154998 45.50315638 170.47564491 46.25181568 171.93847656 47.00292969 C173.35260436 47.72862546 174.76851058 48.45087059 176.18652344 49.16894531 C201.08808546 61.79390512 224.55798081 77.4057405 246.125 95.125 C246.6720459 95.57439941 247.2190918 96.02379883 247.78271484 96.48681641 C254.85770919 102.33047567 261.6928629 108.40337856 268.421875 114.640625 C270.64344089 116.68241099 272.89319018 118.66644283 275.1875 120.625 C282.42193406 126.90991459 289.16838364 133.81858918 295.38671875 141.10546875 C297.4009877 143.44564189 299.48077392 145.71967655 301.5625 148 C305.96260434 152.88900482 310.10172703 157.92261506 314.125 163.125 C314.54056152 163.65738281 314.95612305 164.18976563 315.38427734 164.73828125 C329.93747046 183.44575909 342.82281233 203.30052701 354.125 224.125 C354.61419922 225.01977051 355.10339844 225.91454102 355.60742188 226.83642578 C400.1941757 308.8058968 414.45393967 402.04407831 390.25146484 544.45703125 C383.76785186 565.56882178 375.51307164 586.14928877 366.125 606.125 C365.69396973 607.04748535 365.26293945 607.9699707 364.81884766 608.92041016 C347.65147085 645.32608747 324.48559535 678.90481967 297.390625 708.61328125 C296.12925498 710.01166216 294.87464145 711.41652641 293.64770508 712.84521484 C288.77251372 718.5141081 283.59618964 723.83724911 278.3125 729.125 C277.45462891 729.99511719 276.59675781 730.86523438 275.71289062 731.76171875 C274.89369141 732.58285156 274.07449219 733.40398438 273.23046875 734.25 C272.48949951 734.99507812 271.74853027 735.74015625 270.98510742 736.5078125 C269.125 738.125 269.125 738.125 267.125 738.125 C267.125 738.785 267.125 739.445 267.125 740.125 C265.61712839 741.49991299 264.03960239 742.79864462 262.4375 744.0625 C258.27820356 747.38254754 254.21043659 750.76380236 250.1875 754.25 C237.90412342 764.75487354 224.77116153 774.46562837 211.125 783.125 C210.54395508 783.49898926 209.96291016 783.87297852 209.36425781 784.25830078 C199.54585937 790.57448209 189.50713785 796.40133038 179.24755859 801.96972656 C177.30093206 803.0292431 175.36252879 804.10225671 173.42578125 805.1796875 C112.87041486 838.57002972 42.98644139 854.29844773 -25.875 854.375 C-26.68372559 854.37667175 -27.49245117 854.37834351 -28.32568359 854.38006592 C-48.94786403 854.38258475 -69.37149689 852.68937232 -89.75390625 849.50537109 C-92.82897712 849.13060886 -95.78070894 849.05811213 -98.875 849.125 C-98.875 848.465 -98.875 847.805 -98.875 847.125 C-99.74463379 847.06022461 -99.74463379 847.06022461 -100.63183594 846.99414062 C-160.91733481 841.8139125 -225.45293874 811.21047659 -273.875 776.125 C-274.78765625 775.47402344 -275.7003125 774.82304688 -276.640625 774.15234375 C-287.00544428 766.70448075 -297.07774242 758.95694603 -306.73779297 750.6159668 C-309.62206201 748.10446119 -309.62206201 748.10446119 -312.875 746.125 C-312.875 745.465 -312.875 744.805 -312.875 744.125 C-313.75986084 743.7223291 -313.75986084 743.7223291 -314.66259766 743.31152344 C-316.88945016 742.1172503 -318.44151336 740.86980965 -320.2734375 739.140625 C-320.91079834 738.54217773 -321.54815918 737.94373047 -322.20483398 737.32714844 C-322.87973877 736.68293945 -323.55464355 736.03873047 -324.25 735.375 C-324.95390869 734.70758789 -325.65781738 734.04017578 -326.38305664 733.35253906 C-328.55492777 731.28474031 -330.71701195 729.20727785 -332.875 727.125 C-333.84977295 726.18527344 -333.84977295 726.18527344 -334.84423828 725.2265625 C-341.56655287 718.71219058 -347.92263993 712.1289878 -353.73046875 704.76953125 C-356.02471819 701.94037484 -358.45418641 699.28919227 -360.9375 696.625 C-365.72107464 691.41392562 -369.82157459 685.91230511 -373.875 680.125 C-374.66227666 679.03126441 -375.45141705 677.9388685 -376.2421875 676.84765625 C-378.81478148 673.29319481 -381.35185219 669.71469343 -383.875 666.125 C-384.45822021 665.29935547 -384.45822021 665.29935547 -385.05322266 664.45703125 C-404.94044479 636.11163804 -420.83814273 604.52550536 -432.875 572.125 C-433.20048828 571.25472168 -433.52597656 570.38444336 -433.86132812 569.48779297 C-443.42278244 543.70280631 -450.826199 516.9063727 -454.33666992 489.59838867 C-454.51431885 488.78217041 -454.69196777 487.96595215 -454.875 487.125 C-455.535 486.795 -456.195 486.465 -456.875 486.125 C-456.69195312 485.16851562 -456.50890625 484.21203125 -456.3203125 483.2265625 C-455.65868845 478.56246364 -456.21146406 474.15455136 -456.75 469.5 C-464.58227433 394.44180134 -453.02778005 317.9161121 -420.94677734 249.43310547 C-419.94657624 247.27914164 -418.97792879 245.11422226 -418.01953125 242.94140625 C-405.87609146 215.73788017 -388.68352953 189.23867138 -369.875 166.125 C-369.21886719 165.29097656 -368.56273437 164.45695313 -367.88671875 163.59765625 C-351.66243798 143.01655459 -333.94443216 122.16987111 -313.23828125 105.98828125 C-310.89662108 104.1420467 -308.70109461 102.19822967 -306.5 100.1875 C-249.59942708 49.21825889 -171.93941377 15.49399459 -96.64794922 4.72119141 C-95.40029785 4.53862793 -94.15264648 4.35606445 -92.8671875 4.16796875 C-91.20212158 3.93630005 -91.20212158 3.93630005 -89.50341797 3.69995117 C-86.7315707 3.34135122 -86.7315707 3.34135122 -84.875 1.125 C-82.328125 0.96484375 -82.328125 0.96484375 -79.125 1.0625 C-73.22252405 1.23304893 -67.4357869 0.83576577 -61.54785156 0.39428711 C-40.97093992 -1.11437638 -20.59895377 -0.83652891 0 0 Z " fill="#0081D5" transform="translate(476.875,13.875)"/>
<path d="M0 0 C37.65766216 28.2933868 87.3499348 43.23001356 134.36328125 36.56640625 C149.97748739 34.10428592 165.12534785 30.32150039 179.9375 24.8125 C181.49404297 24.24789062 181.49404297 24.24789062 183.08203125 23.671875 C199.27537809 17.38061576 214.4120978 7.68140425 228.0625 -2.9375 C236.98560065 -9.71158165 246.6142696 -13.2417318 257.9375 -12.1875 C269.52712716 -10.16445857 278.03563053 -4.69554414 284.9375 4.8125 C290.93936526 14.28419361 291.72569782 23.86979694 289.9375 34.8125 C285.77499397 52.16463358 267.53186681 63.50796597 253.26367188 72.40429688 C222.58982553 90.97343475 189.28723858 103.73538352 153.9375 109.8125 C153.01275879 109.97621094 152.08801758 110.13992188 151.13525391 110.30859375 C86.206421 121.37977752 16.74668797 104.09442953 -37.05102539 66.75463867 C-39.76117981 64.82428752 -42.41144944 62.82340187 -45.0625 60.8125 C-45.98289062 60.14992188 -46.90328125 59.48734375 -47.8515625 58.8046875 C-55.84576358 52.83922627 -64.3998426 44.06286358 -66.0625 33.8125 C-67.06896565 21.13612888 -66.42519917 10.6251491 -57.9375 0.5 C-40.22372755 -17.76551291 -18.82004424 -14.16028543 0 0 Z " fill="#FEFEFE" transform="translate(338.0625,574.1875)"/>
<path d="M0 0 C8.7030999 7.34928436 14.94435187 17.00254363 16.00390625 28.44140625 C16.51966027 38.80639836 13.46194802 48.2692558 6.88671875 56.27734375 C0.46393414 62.7727022 -6.30738893 66.77303699 -14.4375 70.9375 C-31.50753213 79.92185323 -47.02749487 90.2517496 -61.1875 103.375 C-62.15042969 104.26703125 -63.11335937 105.1590625 -64.10546875 106.078125 C-71.23195276 112.95332255 -77.29066425 120.45182977 -83.1875 128.375 C-84.32832031 129.88126953 -84.32832031 129.88126953 -85.4921875 131.41796875 C-111.27775136 166.8845895 -118.05419267 207.84118822 -117.07739258 250.77294922 C-116.81843816 264.59685105 -118.12819408 276.26839331 -127.1875 287.375 C-135.14479009 295.44073698 -143.81190298 299.4521196 -155.125 299.9375 C-164.71167812 299.64284908 -173.45551365 296.26727174 -180.1875 289.375 C-197.36671704 269.24581639 -194.36925112 240.82627337 -192.67431641 215.99487305 C-188.6296377 165.91174321 -171.19983614 118.102043 -140.1875 78.375 C-139.43984375 77.41464844 -138.6921875 76.45429688 -137.921875 75.46484375 C-125.60519405 60.06899257 -111.73591821 45.51140422 -96.1875 33.375 C-95.23875 32.60929687 -94.29 31.84359375 -93.3125 31.0546875 C-68.04919727 11.01160804 -32.80281948 -16.72300601 0 0 Z " fill="#FEFEFE" transform="translate(391.1875,194.625)"/>
<path d="M0 0 C25.91524695 16.40139673 50.482013 36.63448417 68.68847656 61.49853516 C69.94927987 63.20342908 71.24678433 64.87401471 72.5546875 66.54296875 C97.15822593 98.36438198 113.86159887 137.6786146 120.9375 177.1875 C121.09976074 178.07856445 121.26202148 178.96962891 121.42919922 179.88769531 C123.94025124 194.45646151 124.24337019 209.00553047 124.3125 223.75 C124.32044586 224.64392456 124.32839172 225.53784912 124.33657837 226.4588623 C124.45008673 243.07038178 124.28197889 260.54378875 112.74609375 273.68359375 C104.99918208 281.25641751 96.70289517 285.37202533 85.8125 285.75 C75.78296842 285.36254569 67.95172581 281.57494759 60.4375 275 C50.74534946 264.09633064 48.48046332 254.14961757 48.82681274 239.76000977 C48.90966634 236.08905523 48.92799167 232.41785868 48.9453125 228.74609375 C48.94906387 228.0126474 48.95281525 227.27920105 48.9566803 226.52352905 C49.08265584 173.9509603 30.36394464 128.34869038 -6.1875 90.8125 C-20.40515384 76.96116253 -36.76324246 66.78806448 -54.1484375 57.453125 C-55.03329834 56.97472168 -55.91815918 56.49631836 -56.82983398 56.00341797 C-58.56459355 55.06727908 -60.30349665 54.13876391 -62.04711914 53.21923828 C-72.32202778 47.6776915 -79.97850498 40.76648582 -83.9375 29.5 C-86.62789051 19.1250809 -85.9486238 8.74730744 -81.0625 -0.8125 C-76.19059804 -8.97077369 -69.07402456 -15.9529898 -60.015625 -19.1484375 C-38.04773319 -24.08830735 -17.98105935 -11.11621937 0 0 Z " fill="#FEFEFE" transform="translate(578.0625,208.8125)"/>
<path d="M0 0 C0.66 0 1.32 0 2 0 C1.93941406 0.69633545 1.87882813 1.3926709 1.81640625 2.11010742 C-0.15320253 25.34580948 -1.25001554 48.73644647 1 72 C0.34 72 -0.32 72 -1 72 C-2.75472457 65.94863979 -3.29514983 60.54488845 -3.265625 54.26171875 C-3.26753845 53.34147415 -3.2694519 52.42122955 -3.27142334 51.47309875 C-3.27277855 49.52918219 -3.26912871 47.58525637 -3.26074219 45.64135742 C-3.25016908 42.73399289 -3.26058955 39.82726567 -3.2734375 36.91992188 C-3.28215651 24.86832111 -2.81685477 12.93006165 -1 1 C-0.67 0.67 -0.34 0.34 0 0 Z " fill="#0075C6" transform="translate(199,392)"/>
<path d="M0 0 C0.66 0.33 1.32 0.66 2 1 C1.78537109 2.48693359 1.78537109 2.48693359 1.56640625 4.00390625 C0.99860104 7.9785427 0.46480587 11.95731719 -0.0625 15.9375 C-0.15337891 16.62134766 -0.24425781 17.30519531 -0.33789062 18.00976562 C-0.55889797 19.67313669 -0.77949285 21.33656255 -1 23 C-1.66 23 -2.32 23 -3 23 C-3 25.97 -3 28.94 -3 32 C-3.66 32 -4.32 32 -5 32 C-4.98839844 32.74636719 -4.97679687 33.49273437 -4.96484375 34.26171875 C-4.8537233 48.18352312 -5.47327195 62.09073732 -6 76 C-6.66 76 -7.32 76 -8 76 C-8.55174671 49.92926072 -6.78824136 25.27479591 0 0 Z " fill="#0162A2" transform="translate(281,373)"/>
<path d="M0 0 C0 0.33 0 0.66 0 1 C-12.37015938 1.88895174 -24.66340123 2.12554828 -37.0625 2.0625 C-38.8157539 2.05746611 -40.56900924 2.0529066 -42.32226562 2.04882812 C-46.54821347 2.03799243 -50.77409012 2.02083624 -55 2 C-55 1.67 -55 1.34 -55 1 C-49.06 0.505 -49.06 0.505 -43 0 C-43 -0.33 -43 -0.66 -43 -1 C-38.57092712 -1.14384827 -34.14180964 -1.28621133 -29.71264648 -1.42724609 C-28.20840186 -1.47534835 -26.70416976 -1.52384423 -25.19995117 -1.57275391 C-23.02786446 -1.64330893 -20.85573543 -1.71241062 -18.68359375 -1.78125 C-16.72764282 -1.8440918 -16.72764282 -1.8440918 -14.73217773 -1.90820312 C-3.41644619 -2.18652556 -3.41644619 -2.18652556 0 0 Z " fill="#005790" transform="translate(486,866)"/>
<path d="M0 0 C0.33 0 0.66 0 1 0 C1.95015781 5.59574072 2.14605278 10.99832963 2.1328125 16.66796875 C2.13376923 17.58403397 2.13472595 18.50009918 2.13571167 19.44392395 C2.13638955 21.37610951 2.13456273 23.30829739 2.13037109 25.24047852 C2.12504825 28.16102368 2.13031352 31.08141289 2.13671875 34.00195312 C2.1397247 43.38383481 2.07649988 52.66829089 1 62 C0.01 62 -0.98 62 -2 62 C-1.9285376 61.33899292 -1.8570752 60.67798584 -1.78344727 59.99694824 C-1.09486824 53.14874419 -0.87947393 46.41015562 -0.9375 39.53125 C-0.94128662 38.48851929 -0.94507324 37.44578857 -0.94897461 36.37145996 C-0.96107079 33.0809287 -0.97971814 29.79049033 -1 26.5 C-1.02655931 22.13541928 -1.04653287 17.77088081 -1.0625 13.40625 C-1.07079834 12.40630005 -1.07909668 11.4063501 -1.08764648 10.37609863 C-1.09094971 9.45083374 -1.09425293 8.52556885 -1.09765625 7.57226562 C-1.10289307 6.75939087 -1.10812988 5.94651611 -1.11352539 5.10900879 C-1 3 -1 3 0 0 Z " fill="#00629F" transform="translate(702,402)"/>
<path d="M0 0 C0.495 1.485 0.495 1.485 1 3 C-1.31 5.31 -3.62 7.62 -6 10 C-6.99 9.67 -7.98 9.34 -9 9 C-9 9.66 -9 10.32 -9 11 C-9.66 11 -10.32 11 -11 11 C-11.309375 11.80050781 -11.309375 11.80050781 -11.625 12.6171875 C-13.57056837 15.98876905 -16.21869414 18.42897002 -19 21.125 C-19.5465625 21.66253906 -20.093125 22.20007813 -20.65625 22.75390625 C-22.10031738 24.17319797 -23.54984801 25.58692576 -25 27 C-25.66 27.66 -26.32 28.32 -27 29 C-28.32392972 30.01241685 -29.65599167 31.01439389 -31 32 C-31.66 31.67 -32.32 31.34 -33 31 C-29.35496623 26.97974217 -25.68748365 22.98134813 -22 19 C-21.33355469 18.27683594 -20.66710937 17.55367188 -19.98046875 16.80859375 C-13.92529267 10.48957557 -6.93770197 5.30071611 0 0 Z " fill="#006DB7" transform="translate(348,282)"/>
<path d="M0 0 C-3.1911321 2.1274214 -3.97892193 2.24923679 -7.63574219 2.24291992 C-9.04300568 2.24753487 -9.04300568 2.24753487 -10.47869873 2.25224304 C-11.4911969 2.24505753 -12.50369507 2.23787201 -13.546875 2.23046875 C-15.1137204 2.22978142 -15.1137204 2.22978142 -16.71221924 2.2290802 C-18.92469415 2.22605724 -21.13716692 2.21816966 -23.34960938 2.20581055 C-26.72273376 2.18764682 -30.09558199 2.1853003 -33.46875 2.18554688 C-35.61979402 2.18062781 -37.77083619 2.17479781 -39.921875 2.16796875 C-41.42847687 2.16629951 -41.42847687 2.16629951 -42.96551514 2.16459656 C-48.08172656 2.1302663 -52.95748706 1.87915117 -58 1 C-58 0.67 -58 0.34 -58 0 C-38.58156759 -0.86491553 -19.42594367 -1.05282551 0 0 Z " fill="#005F9D" transform="translate(477,14)"/>
<path d="M0 0 C0.66 0.33 1.32 0.66 2 1 C1.42923685 4.99534208 0.09958585 7.588173 -2 11 C-2.103125 11.66 -2.20625 12.32 -2.3125 13 C-3.48346597 16.40644647 -6.1408971 17.89943461 -9 20 C-9.66 20 -10.32 20 -11 20 C-11.33 20.99 -11.66 21.98 -12 23 C-14.21484375 24.97265625 -14.21484375 24.97265625 -16.9375 27.0625 C-20.60051788 29.88153077 -20.60051788 29.88153077 -24 33 C-24.99 33 -25.98 33 -27 33 C-25.49790982 29.09801861 -23.29413428 27.55482032 -19.875 25.25 C-10.11903795 18.32888556 -3.82831013 11.48493039 0 0 Z " fill="#006BB1" transform="translate(627,609)"/>
<path d="M0 0 C2.11263945 3.16895917 2.28881992 4.1787147 2.44921875 7.83984375 C2.49312744 8.81179688 2.53703613 9.78375 2.58227539 10.78515625 C2.61699951 11.82542969 2.65172363 12.86570312 2.6875 13.9375 C2.7280249 14.9996875 2.7685498 16.061875 2.81030273 17.15625 C3.12654275 27.14496977 2.71629468 37.03799404 2 47 C-0.09020153 43.86469771 -0.2474595 43.1816823 -0.22705078 39.62036133 C-0.22689972 38.73967484 -0.22674866 37.85898834 -0.22659302 36.95161438 C-0.21627045 36.00465195 -0.20594788 35.05768951 -0.1953125 34.08203125 C-0.1924826 33.10965012 -0.18965271 32.13726898 -0.18673706 31.13542175 C-0.17553599 28.02765634 -0.15043148 24.92017841 -0.125 21.8125 C-0.11497011 19.70638437 -0.10584427 17.60026422 -0.09765625 15.49414062 C-0.07559688 10.3293162 -0.04106746 5.16470685 0 0 Z " fill="#006BB3" transform="translate(625,411)"/>
<path d="M0 0 C6.01421217 0.26186866 12.02818613 0.52852526 18.04199219 0.79956055 C20.08653048 0.89103696 22.13112706 0.98122015 24.17578125 1.07006836 C27.1199558 1.1982316 30.0638872 1.33109165 33.0078125 1.46484375 C33.9174173 1.50343002 34.82702209 1.5420163 35.76419067 1.58177185 C40.25116883 1.79018455 44.5802339 2.13194522 49 3 C49 3.33 49 3.66 49 4 C15.70460652 4.41277905 15.70460652 4.41277905 0 2 C0 1.34 0 0.68 0 0 Z " fill="#0071B9" transform="translate(415,685)"/>
<path d="M0 0 C0.94996505 2.54683883 1.12145799 3.67888505 0.14453125 6.26171875 C-0.29503906 7.06222656 -0.73460938 7.86273438 -1.1875 8.6875 C-2.97629579 12.0421115 -4.6384508 15.37553593 -6.125 18.875 C-7.46441007 21.95028552 -8.98784585 24.3171278 -11 27 C-12.42403688 29.96199672 -13.725065 32.97122041 -15 36 C-15.66 36 -16.32 36 -17 36 C-15.39185765 30.68799786 -13.13941374 25.80485377 -10.75 20.8125 C-10.15264038 19.55699341 -10.15264038 19.55699341 -9.54321289 18.27612305 C-6.56484284 12.06423131 -3.42606756 5.97882378 0 0 Z " fill="#005A93" transform="translate(71,233)"/>
<path d="M0 0 C0.66 0 1.32 0 2 0 C0.32012676 5.91908276 -2.51914323 11.14764525 -5.375 16.5625 C-6.09816406 17.96145508 -6.09816406 17.96145508 -6.8359375 19.38867188 C-9.22493205 23.94269274 -11.55281592 28.1362131 -15 32 C-15 28.11728647 -14.78367479 27.10340379 -13.03125 23.890625 C-12.62519531 23.13652344 -12.21914063 22.38242187 -11.80078125 21.60546875 C-11.37152344 20.82816406 -10.94226563 20.05085937 -10.5 19.25 C-10.07074219 18.45722656 -9.64148438 17.66445313 -9.19921875 16.84765625 C-8.1401594 14.89428011 -7.07359437 12.94541391 -6 11 C-5.34 11 -4.68 11 -4 11 C-4.33 9.68 -4.66 8.36 -5 7 C-4.34 7 -3.68 7 -3 7 C-2.690625 6.030625 -2.38125 5.06125 -2.0625 4.0625 C-1 1 -1 1 0 0 Z " fill="#005A95" transform="translate(839,622)"/>
<path d="M0 0 C13.17063972 -0.52160949 24.06766368 -0.27311938 35 8 C34.34 8.66 33.68 9.32 33 10 C32.195625 9.401875 31.39125 8.80375 30.5625 8.1875 C20.92436869 1.96148874 11.07770751 2.67734832 0 3 C0 2.01 0 1.02 0 0 Z " fill="#0066AB" transform="translate(359,187)"/>
<path d="M0 0 C0.66 0.33 1.32 0.66 2 1 C1.85691406 1.99128906 1.71382813 2.98257812 1.56640625 4.00390625 C0.99860104 7.9785427 0.46480587 11.95731719 -0.0625 15.9375 C-0.15337891 16.62134766 -0.24425781 17.30519531 -0.33789062 18.00976562 C-0.55889797 19.67313669 -0.77949285 21.33656255 -1 23 C-1.66 23 -2.32 23 -3 23 C-3 25.97 -3 28.94 -3 32 C-6.72721492 24.54557017 -4.44790256 17.76461199 -2.5 10.0625 C-2.26152344 9.09248047 -2.02304687 8.12246094 -1.77734375 7.12304688 C-1.19206612 4.74681968 -0.59946749 2.37267958 0 0 Z " fill="#0072BF" transform="translate(281,373)"/>
<path d="M0 0 C0.33 1.32 0.66 2.64 1 4 C0.113125 4.721875 -0.77375 5.44375 -1.6875 6.1875 C-6.50002098 10.21108312 -10.60627691 14.62018665 -14.47265625 19.546875 C-16.26556821 21.25266336 -17.58749134 21.60569751 -20 22 C-14.35637649 13.70055366 -7.15462835 6.97821286 0 0 Z " fill="#00619F" transform="translate(146,136)"/>
<path d="M0 0 C0.33 0 0.66 0 1 0 C1.19148936 20.53191489 1.19148936 20.53191489 0 30 C-1.77086425 26.93967576 -2.25601711 24.7137289 -2.265625 21.19140625 C-2.26820313 20.27939453 -2.27078125 19.36738281 -2.2734375 18.42773438 C-2.26570312 17.48220703 -2.25796875 16.53667969 -2.25 15.5625 C-2.25773438 14.62083984 -2.26546875 13.67917969 -2.2734375 12.70898438 C-2.26032162 8.06268433 -2.24712506 4.19998375 0 0 Z " fill="#005994" transform="translate(881,454)"/>
<path d="M0 0 C-1.34919235 4.04757706 -3.33137912 4.79871711 -6.875 7.125 C-13.25363331 11.38661375 -19.14450899 16.03632726 -25 21 C-25.66 20.34 -26.32 19.68 -27 19 C-26.01 18.67 -25.02 18.34 -24 18 C-24 17.34 -24 16.68 -24 16 C-22.3203125 14.4921875 -22.3203125 14.4921875 -20.125 12.875 C-19.40570313 12.33617187 -18.68640625 11.79734375 -17.9453125 11.2421875 C-16 10 -16 10 -14 10 C-14 9.34 -14 8.68 -14 8 C-12.09625645 6.55036041 -10.12532841 5.18815677 -8.125 3.875 C-7.03445313 3.15054688 -5.94390625 2.42609375 -4.8203125 1.6796875 C-2 0 -2 0 0 0 Z " fill="#0064A8" transform="translate(314,213)"/>
<path d="M0 0 C3.16012613 0.33858494 3.95432113 0.94601588 6.0625 3.4375 C6.701875 4.283125 7.34125 5.12875 8 6 C8.99 6.66 9.98 7.32 11 8 C11 8.66 11 9.32 11 10 C11.99 10.33 12.98 10.66 14 11 C15.60546875 12.84765625 15.60546875 12.84765625 17.1875 15.0625 C17.71730469 15.79597656 18.24710938 16.52945313 18.79296875 17.28515625 C19.19128906 17.85105469 19.58960938 18.41695312 20 19 C17 19 17 19 15.31420898 17.68652344 C14.71423096 17.08356445 14.11425293 16.48060547 13.49609375 15.859375 C12.83802734 15.20066406 12.17996094 14.54195312 11.50195312 13.86328125 C10.82068359 13.16589844 10.13941406 12.46851563 9.4375 11.75 C8.75236328 11.06808594 8.06722656 10.38617187 7.36132812 9.68359375 C4.30547253 6.59475051 1.78610095 4.00643493 0 0 Z " fill="#005A94" transform="translate(128,723)"/>
<path d="M0 0 C0.66 0.33 1.32 0.66 2 1 C-3.03478971 9.56256754 -8.12725415 17.97454345 -14 26 C-15 23 -15 23 -14.36328125 21.09765625 C-14.01652344 20.42605469 -13.66976562 19.75445313 -13.3125 19.0625 C-12.97863281 18.39347656 -12.64476562 17.72445312 -12.30078125 17.03515625 C-11 15 -11 15 -9.08984375 13.10546875 C-6.68876855 10.68644159 -5.04218165 8.14506267 -3.25 5.25 C-2.32960938 3.77273438 -2.32960938 3.77273438 -1.390625 2.265625 C-0.93171875 1.51796875 -0.4728125 0.7703125 0 0 Z " fill="#00609E" transform="translate(822,654)"/>
<path d="M0 0 C3.79549322 5.69323983 2.48152889 14.58778666 1.546875 21.2109375 C1.08891789 23.49418078 0.5933364 25.74850028 0 28 C-0.33 28 -0.66 28 -1 28 C-1.02898097 23.89584811 -1.0467922 19.79172247 -1.0625 15.6875 C-1.07087891 14.52025391 -1.07925781 13.35300781 -1.08789062 12.15039062 C-1.09111328 11.03212891 -1.09433594 9.91386719 -1.09765625 8.76171875 C-1.10289307 7.73006592 -1.10812988 6.69841309 -1.11352539 5.63549805 C-1 3 -1 3 0 0 Z " fill="#00497D" transform="translate(19,423)"/>
<path d="M0 0 C0.33 0 0.66 0 1 0 C1.02947599 4.24998498 1.04695643 8.49994303 1.0625 12.75 C1.07087891 13.93722656 1.07925781 15.12445313 1.08789062 16.34765625 C1.10867032 23.95302522 0.77144376 31.43341525 0 39 C-0.99 39 -1.98 39 -3 39 C-2.86722656 37.69289063 -2.73445312 36.38578125 -2.59765625 35.0390625 C-1.43577047 23.36639335 -0.54367341 11.71759277 0 0 Z " fill="#006FBF" transform="translate(703,425)"/>
<path d="M0 0 C3.45869449 0.82455277 6.91033887 1.18969043 10.44140625 1.58203125 C8.3268216 3.44403799 7.05072294 4.53075179 4.19897461 4.77075195 C3.40112549 4.68398193 2.60327637 4.59721191 1.78125 4.5078125 C0.46737305 4.37149414 0.46737305 4.37149414 -0.87304688 4.23242188 C-2.23333008 4.06516602 -2.23333008 4.06516602 -3.62109375 3.89453125 C-4.53181641 3.80236328 -5.44253906 3.71019531 -6.38085938 3.61523438 C-13.13636631 2.86351621 -13.13636631 2.86351621 -16.55859375 0.58203125 C-10.56171269 -1.30104734 -6.10331345 -1.48045944 0 0 Z " fill="#005E9D" transform="translate(506.55859375,16.41796875)"/>
<path d="M0 0 C5.45866939 -0.10888303 5.45866939 -0.10888303 7.5625 0.12890625 C8.2225 0.78890625 8.8825 1.44890625 9.5625 2.12890625 C-0.42428356 3.38567002 -10.39381733 3.2225779 -20.4375 3.12890625 C-20.1075 2.46890625 -19.7775 1.80890625 -19.4375 1.12890625 C-16.94831624 0.80791662 -14.56304573 0.61184959 -12.0625 0.50390625 C-11.34239746 0.46740967 -10.62229492 0.43091309 -9.88037109 0.39331055 C-6.58783469 0.23678494 -3.29392167 0.12352206 0 0 Z " fill="#00528C" transform="translate(461.4375,609.87109375)"/>
<path d="M0 0 C0.66 0 1.32 0 2 0 C1.34 9.24 0.68 18.48 0 28 C-0.33 28 -0.66 28 -1 28 C-2.6773514 19.25381055 -2.83104115 9.7483077 -1 1 C-0.67 0.67 -0.34 0.34 0 0 Z " fill="#0067AB" transform="translate(199,392)"/>
<path d="M0 0 C-0.33 0.99 -0.66 1.98 -1 3 C-4.0625 4.1875 -4.0625 4.1875 -7 5 C-7 5.66 -7 6.32 -7 7 C-11.33420699 9.03165952 -15.28596212 9.52060632 -20 10 C-20.33 9.34 -20.66 8.68 -21 8 C-17.87745057 6.66087415 -14.75157642 5.32969342 -11.625 4 C-10.73554687 3.6184375 -9.84609375 3.236875 -8.9296875 2.84375 C-8.07890625 2.4828125 -7.228125 2.121875 -6.3515625 1.75 C-5.56604004 1.41484375 -4.78051758 1.0796875 -3.97119141 0.734375 C-2 0 -2 0 0 0 Z " fill="#006CB3" transform="translate(562,662)"/>
<path d="M0 0 C0 0.33 0 0.66 0 1 C2.97 1.495 2.97 1.495 6 2 C6 2.33 6 2.66 6 3 C-3.76041066 3.32001346 -13.32032595 2.11306313 -23 1 C-16.67951601 -3.21365599 -7.24575188 -0.95026254 0 0 Z " fill="#015892" transform="translate(421,864)"/>
<path d="M0 0 C0.33 1.32 0.66 2.64 1 4 C-0.1446875 4.804375 -0.1446875 4.804375 -1.3125 5.625 C-4.14568464 7.82402322 -4.14568464 7.82402322 -5.4375 10.9375 C-7.40343909 14.79074062 -9.57432473 16.41171202 -13 19 C-13.66 18.67 -14.32 18.34 -15 18 C-14.25234375 17.11957031 -13.5046875 16.23914063 -12.734375 15.33203125 C-11.73954698 14.158885 -10.74475735 12.98570618 -9.75 11.8125 C-9.25886719 11.23435547 -8.76773438 10.65621094 -8.26171875 10.06054688 C-5.45420944 6.74768589 -2.69431092 3.4063788 0 0 Z " fill="#0065A6" transform="translate(125,158)"/>
<path d="M0 0 C-0.33 0.66 -0.66 1.32 -1 2 C-2.07378906 1.91621094 -3.14757812 1.83242188 -4.25390625 1.74609375 C-5.69007622 1.6428397 -7.12627581 1.53999706 -8.5625 1.4375 C-9.61920898 1.35338867 -9.61920898 1.35338867 -10.69726562 1.26757812 C-15.31438431 0.94842246 -19.4408752 1.19121965 -24 2 C-24.33 1.34 -24.66 0.68 -25 0 C-17.00426443 -3.68359299 -8.20432828 -2.5244087 0 0 Z " fill="#0066AD" transform="translate(321,562)"/>
<path d="M0 0 C2.16093405 2.16093405 2.82366814 3.68559111 3.9453125 6.5 C4.29980469 7.386875 4.65429688 8.27375 5.01953125 9.1875 C5.38433594 10.115625 5.74914062 11.04375 6.125 12 C6.49753906 12.928125 6.87007812 13.85625 7.25390625 14.8125 C10 21.73305861 10 21.73305861 10 24 C9.01 23.67 8.02 23.34 7 23 C7 21.35 7 19.7 7 18 C6.34 18 5.68 18 5 18 C4.15621025 15.94175571 3.32536378 13.87820214 2.5 11.8125 C2.0359375 10.66394531 1.571875 9.51539063 1.09375 8.33203125 C0.09194348 5.28009923 -0.23870804 3.16884928 0 0 Z " fill="#005B95" transform="translate(848,274)"/>
<path d="M0 0 C0.99 0 1.98 0 3 0 C4.92769825 8.43560755 4.53460917 16.76252019 2 25 C-0.19286344 21.51721688 0.1459152 19.92879006 1 16 C1.25480092 10.56728032 1.12418244 5.33986657 0 0 Z " fill="#006AB2" transform="translate(405,215)"/>
<path d="M0 0 C0.66 0.33 1.32 0.66 2 1 C1.68981396 3.5627992 1.37693109 6.1252211 1.0625 8.6875 C0.97548828 9.40873047 0.88847656 10.12996094 0.79882812 10.87304688 C0.33686195 14.62010584 -0.19167679 18.30792911 -1 22 C-3 20 -3 20 -3.046875 17.4609375 C-2.46892192 11.45326729 -1.67384859 5.8026751 0 0 Z " fill="#015C97" transform="translate(876,503)"/>
<path d="M0 0 C0.99 0 1.98 0 3 0 C2.72350393 3.31395208 2.42627566 6.62571605 2.125 9.9375 C2.04636719 10.88302734 1.96773438 11.82855469 1.88671875 12.80273438 C1.80292969 13.70185547 1.71914063 14.60097656 1.6328125 15.52734375 C1.55949707 16.35999756 1.48618164 17.19265137 1.41064453 18.05053711 C1.27513184 18.69385986 1.13961914 19.33718262 1 20 C0.34 20.33 -0.32 20.66 -1 21 C-2.43069422 13.70345948 -1.33979115 7.26366109 0 0 Z " fill="#005E9E" transform="translate(271,585)"/>
<path d="M0 0 C-2.56358949 1.70905966 -4.98140094 2.99268647 -7.75 4.3125 C-12.2024002 6.50605787 -16.05442391 8.99793123 -20 12 C-20 11.01 -20 10.02 -20 9 C-19.01 8.67 -18.02 8.34 -17 8 C-17 7.34 -17 6.68 -17 6 C-5.73001631 -2.52120718 -5.73001631 -2.52120718 0 0 Z " fill="#0065AA" transform="translate(582,563)"/>
<path d="M0 0 C-3.47699672 2.18922016 -5.0842971 1.79206526 -9 1 C-12.12453294 0.97192332 -15.23252611 1.06388798 -18.35546875 1.16015625 C-21 1 -21 1 -23 -1 C-15.74633886 -3.41788705 -7.10834385 -2.64496515 0 0 Z " fill="#006AB6" transform="translate(605,562)"/>
<path d="M0 0 C2.36786432 2.18304282 3.91879546 4.34976838 5.48046875 7.16015625 C5.92197266 7.95357422 6.36347656 8.74699219 6.81835938 9.56445312 C7.27017578 10.38880859 7.72199219 11.21316406 8.1875 12.0625 C8.65091797 12.89072266 9.11433594 13.71894531 9.59179688 14.57226562 C13 20.74116348 13 20.74116348 13 23 C8.7764777 21.59215923 7.86520208 18.62311091 5.9375 14.875 C5.58623047 14.22273437 5.23496094 13.57046875 4.87304688 12.8984375 C2.65642572 8.6747057 1.15966476 4.6266418 0 0 Z " fill="#00568C" transform="translate(822,224)"/>
<path d="M0 0 C4 0 4 0 6.25 1.875 C8 4 8 4 8 6 C8.556875 6.20625 9.11375 6.4125 9.6875 6.625 C12.92501302 8.55000774 14.68231141 11.03850902 17 14 C13.46352645 14 13.1196492 13.52538832 10.64453125 11.19140625 C10.02255859 10.60939453 9.40058594 10.02738281 8.75976562 9.42773438 C8.11716797 8.81220703 7.47457031 8.19667969 6.8125 7.5625 C5.83120117 6.64500977 5.83120117 6.64500977 4.83007812 5.70898438 C1.3431326 2.41838407 1.3431326 2.41838407 0 1 C0 0.67 0 0.34 0 0 Z " fill="#0064A5" transform="translate(147,743)"/>
<path d="M0 0 C0.99 0.33 1.98 0.66 3 1 C0.21431795 3.17445127 -2.57949198 5.33820039 -5.375 7.5 C-6.56609375 8.43005859 -6.56609375 8.43005859 -7.78125 9.37890625 C-8.54179688 9.96542969 -9.30234375 10.55195312 -10.0859375 11.15625 C-10.7876709 11.70087891 -11.4894043 12.24550781 -12.21240234 12.80664062 C-14 14 -14 14 -16 14 C-14.70746212 10.12238635 -12.31428146 8.72676175 -9.125 6.4375 C-8.58230469 6.03853516 -8.03960938 5.63957031 -7.48046875 5.22851562 C-5.02153064 3.42789958 -2.53611328 1.69074218 0 0 Z " fill="#005D99" transform="translate(714,775)"/>
<path d="M0 0 C0.66 0 1.32 0 2 0 C2.24234375 0.58007812 2.4846875 1.16015625 2.734375 1.7578125 C4.77723767 6.51925397 6.97415614 10.7638186 10 15 C10.99 16.485 10.99 16.485 12 18 C9 18 9 18 6.5625 16.0625 C2.50625835 11.21479657 0 6.37022241 0 0 Z " fill="#006FB8" transform="translate(199,465)"/>
<path d="M0 0 C3.39581516 -0.0291544 6.79159786 -0.04685068 10.1875 -0.0625 C11.14720703 -0.07087891 12.10691406 -0.07925781 13.09570312 -0.08789062 C14.02705078 -0.09111328 14.95839844 -0.09433594 15.91796875 -0.09765625 C17.19837036 -0.10551147 17.19837036 -0.10551147 18.50463867 -0.11352539 C21.09246747 0.00420677 23.47661953 0.42892956 26 1 C26 1.33 26 1.66 26 2 C17.16236535 3.98331119 8.72867014 3.12063136 0 1 C0 0.67 0 0.34 0 0 Z " fill="#004E82" transform="translate(392,15)"/>
<path d="M0 0 C6.47062671 0.42199739 12.747229 2.36750314 19 4 C19 4.66 19 5.32 19 6 C11.84404654 5.29843593 4.98144819 3.69214979 -2 2 C-1.34 1.34 -0.68 0.68 0 0 Z " fill="#005994" transform="translate(343,852)"/>
<path d="M0 0 C2.584859 0.6191639 5.16776172 1.24507682 7.75 1.875 C8.47960937 2.04902344 9.20921875 2.22304688 9.9609375 2.40234375 C13.53285028 3.27908598 16.79373841 4.12686823 20 6 C13.51640434 8.10642163 6.1633954 5.27072462 0 3 C0 2.01 0 1.02 0 0 Z " fill="#0065A9" transform="translate(372,675)"/>
<path d="M0 0 C0.66 0 1.32 0 2 0 C0.11380178 7.03645577 -1.86927695 14.03359344 -4 21 C-4.66 20.67 -5.32 20.34 -6 20 C-5.39879861 15.79159027 -4.3916173 12.01113222 -3 8 C-2.649375 6.741875 -2.29875 5.48375 -1.9375 4.1875 C-1 1 -1 1 0 0 Z " fill="#0065A7" transform="translate(212,340)"/>
<path d="M0 0 C0 0.66 0 1.32 0 2 C-7.09705662 3.34495828 -13.7725395 4.24091535 -21 4 C-21.33 3.34 -21.66 2.68 -22 2 C-19.08362234 1.66395648 -16.16694348 1.33106414 -13.25 1 C-12.0125 0.85691406 -12.0125 0.85691406 -10.75 0.7109375 C-9.55117188 0.57558594 -9.55117188 0.57558594 -8.328125 0.4375 C-7.22839355 0.31181641 -7.22839355 0.31181641 -6.10644531 0.18359375 C-4.07773478 0.00677521 -2.03640154 0 0 0 Z " fill="#0061A2" transform="translate(490,684)"/>
<path d="M0 0 C4.20953787 1.7296616 7.35143576 4.68206745 10.75 7.625 C11.35199219 8.140625 11.95398438 8.65625 12.57421875 9.1875 C14.05260866 10.45469135 15.52673171 11.72685775 17 13 C16.34 13.66 15.68 14.32 15 15 C14.33613281 14.39671875 13.67226563 13.7934375 12.98828125 13.171875 C12.10527344 12.37265625 11.22226562 11.5734375 10.3125 10.75 C9.44238281 9.96109375 8.57226562 9.1721875 7.67578125 8.359375 C5.89258596 6.7870393 4.05447813 5.27488254 2.16796875 3.828125 C1.45253906 3.22484375 0.73710938 2.6215625 0 2 C0 1.34 0 0.68 0 0 Z " fill="#006CB4" transform="translate(553,284)"/>
<path d="M0 0 C2.2748645 0.76029157 4.54435657 1.5326162 6.8125 2.3125 C7.45509766 2.52583984 8.09769531 2.73917969 8.75976562 2.95898438 C12.15621242 4.13806176 14.73919265 5.13406949 17 8 C15 9 15 9 12.06640625 8.0390625 C10.91011719 7.57242188 9.75382813 7.10578125 8.5625 6.625 C6.83193359 5.93277344 6.83193359 5.93277344 5.06640625 5.2265625 C3.54853516 4.61941406 3.54853516 4.61941406 2 4 C1.01 3.67 0.02 3.34 -1 3 C-0.67 2.01 -0.34 1.02 0 0 Z " fill="#0067AC" transform="translate(538,187)"/>
<path d="M0 0 C-3.68305032 2.45536688 -5.65673699 2 -10 2 C-11.34136367 2.65035814 -12.67532254 3.3162955 -14 4 C-17.125 4.25 -17.125 4.25 -20 4 C-20.66 3.34 -21.32 2.68 -22 2 C-19.08483516 1.46915208 -16.16839443 0.95000945 -13.25 0.4375 C-12.425 0.28603516 -11.6 0.13457031 -10.75 -0.02148438 C-9.95078125 -0.16005859 -9.1515625 -0.29863281 -8.328125 -0.44140625 C-7.5949707 -0.57232666 -6.86181641 -0.70324707 -6.10644531 -0.83813477 C-3.83766713 -1.01247412 -2.16221421 -0.66874807 0 0 Z " fill="#005A93" transform="translate(387,19)"/>
<path d="M0 0 C0.94875 0.86625 1.8975 1.7325 2.875 2.625 C6.59805925 5.83794684 10.59883978 8.27376478 14.86328125 10.703125 C17 12 17 12 19 14 C11.70859252 14 6.83098346 9.2222231 1.50390625 4.68359375 C0 3 0 3 0 0 Z " fill="#0066AB" transform="translate(501,250)"/>
<path d="M0 0 C0.99 0 1.98 0 3 0 C1.3718356 3.75730247 -1.01401917 6.616823 -3.625 9.75 C-4.85089844 11.22726562 -4.85089844 11.22726562 -6.1015625 12.734375 C-6.72804688 13.48203125 -7.35453125 14.2296875 -8 15 C-8.66 14.34 -9.32 13.68 -10 13 C-8.40703626 10.82424464 -6.8017742 8.65984949 -5.1875 6.5 C-4.73568359 5.87996094 -4.28386719 5.25992188 -3.81835938 4.62109375 C-2.61664854 3.02466038 -1.31346367 1.50582921 0 0 Z " fill="#005F9A" transform="translate(786,704)"/>
<path d="M0 0 C0.66 0.33 1.32 0.66 2 1 C3.38961679 6.55846715 2.98305675 11.59588044 1 17 C0.34 17.33 -0.32 17.66 -1 18 C-1.02684312 15.18743719 -1.04676188 12.37512759 -1.0625 9.5625 C-1.07087891 8.76005859 -1.07925781 7.95761719 -1.08789062 7.13085938 C-1.0965143 5.08704779 -1.0522815 3.04316098 -1 1 C-0.67 0.67 -0.34 0.34 0 0 Z " fill="#006AB1" transform="translate(629,591)"/>
<path d="M0 0 C3.72644172 3.72644172 3.0521485 9.99026427 3.0625 15.0625 C3.041875 16.031875 3.02125 17.00125 3 18 C2.34 18.33 1.68 18.66 1 19 C0.63923999 16.02149379 0.28609584 13.04243216 -0.0625 10.0625 C-0.16626953 9.21236328 -0.27003906 8.36222656 -0.37695312 7.48632812 C-0.47041016 6.67744141 -0.56386719 5.86855469 -0.66015625 5.03515625 C-0.74918213 4.2862915 -0.83820801 3.53742676 -0.92993164 2.76586914 C-0.9530542 2.18313232 -0.97617676 1.60039551 -1 1 C-0.67 0.67 -0.34 0.34 0 0 Z " fill="#0063A5" transform="translate(699,382)"/>
<path d="M0 0 C1.04027344 0.07863281 2.08054687 0.15726563 3.15234375 0.23828125 C5.88937637 0.66077622 7.697979 1.29157796 10.0625 2.6875 C9.0625 3.6875 9.0625 3.6875 7.29663086 3.70922852 C6.17333374 3.63853149 6.17333374 3.63853149 5.02734375 3.56640625 C4.21845703 3.51806641 3.40957031 3.46972656 2.57617188 3.41992188 C1.3009668 3.33581055 1.3009668 3.33581055 0 3.25 C-0.85400391 3.19779297 -1.70800781 3.14558594 -2.58789062 3.09179688 C-4.70471995 2.96171239 -6.82115244 2.82520029 -8.9375 2.6875 C-8.9375 2.0275 -8.9375 1.3675 -8.9375 0.6875 C-5.59706892 -0.42597703 -3.48972112 -0.28901275 0 0 Z " fill="#00568F" transform="translate(386.9375,860.3125)"/>
<path d="M0 0 C0.33 0 0.66 0 1 0 C1.19647038 2.68711024 1.38239615 5.37428331 1.5625 8.0625 C1.61857422 8.81466797 1.67464844 9.56683594 1.73242188 10.34179688 C2.04000617 15.07859502 1.83807173 19.32542212 1 24 C0.67 24 0.34 24 0 24 C-0.19738568 20.75052139 -0.3811754 17.50041127 -0.5625 14.25 C-0.61857422 13.32960938 -0.67464844 12.40921875 -0.73242188 11.4609375 C-0.78076172 10.57148438 -0.82910156 9.68203125 -0.87890625 8.765625 C-0.9260376 7.94868164 -0.97316895 7.13173828 -1.02172852 6.29003906 C-1.00020095 4.02117925 -0.64612135 2.16679079 0 0 Z " fill="#005B97" transform="translate(879,389)"/>
<path d="M0 0 C4.97209562 1.76429199 9.43438061 4.3939166 14 7 C14 7.99 14 8.98 14 10 C10.30123909 8.62712658 7.0485524 6.93644547 3.6875 4.875 C2.36298828 4.06675781 2.36298828 4.06675781 1.01171875 3.2421875 C0.34785156 2.83226562 -0.31601563 2.42234375 -1 2 C-0.67 1.34 -0.34 0.68 0 0 Z " fill="#005F9E" transform="translate(220,799)"/>
<path d="M0 0 C6.46498449 0.16576883 10.30435802 4.00348694 15 8 C14.67 8.66 14.34 9.32 14 10 C12.22611914 8.90073597 10.45600316 7.79539498 8.6875 6.6875 C7.20830078 5.76517578 7.20830078 5.76517578 5.69921875 4.82421875 C3.49827965 3.33675339 1.76671012 1.9596614 0 0 Z " fill="#0065A7" transform="translate(204,790)"/>
<path d="M0 0 C2.79256219 0.11361602 5.58344118 0.2403589 8.375 0.375 C9.1690625 0.4059375 9.963125 0.436875 10.78125 0.46875 C16.7734375 0.7734375 16.7734375 0.7734375 19 3 C16.77090129 3.02714735 14.54170633 3.04646254 12.3125 3.0625 C11.07113281 3.07410156 9.82976562 3.08570313 8.55078125 3.09765625 C5.53764546 3.01478673 2.91724661 2.70839449 0 2 C0 1.34 0 0.68 0 0 Z " fill="#0064A5" transform="translate(415,685)"/>
<path d="M0 0 C0.66 0.33 1.32 0.66 2 1 C1.33333333 5.66666667 0.66666667 10.33333333 0 15 C-0.99 15 -1.98 15 -3 15 C-2.44854729 9.76119922 -1.57077907 5.02649303 0 0 Z " fill="#005F9C" transform="translate(32,329)"/>
<path d="M0 0 C0.66 0 1.32 0 2 0 C0.46885867 4.23456275 -1.64889706 7.99195772 -4 11.8125 C-4.35578125 12.40998047 -4.7115625 13.00746094 -5.078125 13.62304688 C-5.99444442 15.11890414 -6.99135247 16.56477862 -8 18 C-8.66 18 -9.32 18 -10 18 C-8.64823888 13.3110786 -6.71681955 9.67026441 -4 5.625 C-3.29875 4.56539063 -2.5975 3.50578125 -1.875 2.4140625 C-1.25625 1.61742187 -0.6375 0.82078125 0 0 Z " fill="#0067AB" transform="translate(242,282)"/>
<path d="M0 0 C5.3762621 2.91214197 10.17918273 6.24351901 15 10 C14.34 10.66 13.68 11.32 13 12 C11.20101037 10.76056233 9.41103677 9.50803104 7.625 8.25 C6.62726562 7.55390625 5.62953125 6.8578125 4.6015625 6.140625 C2.16136674 4.13277624 1.08781156 2.90956826 0 0 Z " fill="#005F9D" transform="translate(702,94)"/>
<path d="M0 0 C2.12517842 0.97877936 4.25013742 1.95803515 6.375 2.9375 C7.55835938 3.48277344 8.74171875 4.02804688 9.9609375 4.58984375 C11.6499011 5.37354023 13.33464041 6.1673202 15 7 C15 7.66 15 8.32 15 9 C12.77353944 8.27239851 10.55066668 7.53634777 8.33203125 6.78515625 C6.56186739 6.18917143 4.78277799 5.61961812 3 5.0625 C2.34 4.711875 1.68 4.36125 1 4 C0.375 1.93359375 0.375 1.93359375 0 0 Z " fill="#0063A4" transform="translate(636,55)"/>
<path d="M0 0 C2.12570312 0.47603774 4.25054427 0.95592598 6.375 1.4375 C8.15003906 1.83775391 8.15003906 1.83775391 9.9609375 2.24609375 C13 3 13 3 15 4 C15 4.66 15 5.32 15 6 C9.33557626 5.63495936 4.99296295 4.9445679 0 2 C0 1.34 0 0.68 0 0 Z " fill="#0064A5" transform="translate(572,31)"/>
<path d="M0 0 C5.54050113 0.56825653 10.03715966 2.62886517 15 5 C14.67 5.66 14.34 6.32 14 7 C3.44191344 3.92482916 3.44191344 3.92482916 -1 2 C-0.67 1.34 -0.34 0.68 0 0 Z " fill="#005F9E" transform="translate(288,834)"/>
<path d="M0 0 C0 0.66 0 1.32 0 2 C-1.91512272 2.50588147 -3.83216922 3.00448391 -5.75 3.5 C-7.35101563 3.91765625 -7.35101563 3.91765625 -8.984375 4.34375 C-12 5 -12 5 -16 5 C-16 4.34 -16 3.68 -16 3 C-14.27318563 2.49193553 -12.54342021 1.99389533 -10.8125 1.5 C-9.84957031 1.2215625 -8.88664062 0.943125 -7.89453125 0.65625 C-5.14654124 0.03322392 -2.80401584 -0.12302812 0 0 Z " fill="#0066AC" transform="translate(500,604)"/>
<path d="M0 0 C0.99 0.33 1.98 0.66 3 1 C-0.96 4.96 -4.92 8.92 -9 13 C-9.33 12.01 -9.66 11.02 -10 10 C-6.7 6.7 -3.4 3.4 0 0 Z " fill="#0068AC" transform="translate(279,239)"/>
<path d="M0 0 C0.43570313 0.37511719 0.87140625 0.75023438 1.3203125 1.13671875 C5.18607599 4.45859777 9.07657648 7.74642927 13 11 C12.34 11.66 11.68 12.32 11 13 C9.15730683 11.40559179 7.32621907 9.80058539 5.5 8.1875 C4.97535156 7.73568359 4.45070313 7.28386719 3.91015625 6.81835938 C2.54904577 5.60750135 1.26846587 4.30759063 0 3 C0 2.01 0 1.02 0 0 Z " fill="#005E9B" transform="translate(731,116)"/>
<path d="M0 0 C0.33 0.99 0.66 1.98 1 3 C0.38125 3.0825 -0.2375 3.165 -0.875 3.25 C-1.57625 3.4975 -2.2775 3.745 -3 4 C-3.268125 4.598125 -3.53625 5.19625 -3.8125 5.8125 C-5.70810564 9.30440513 -8.45701499 10.29177508 -12 12 C-12.66 11.67 -13.32 11.34 -14 11 C-9.38 7.37 -4.76 3.74 0 0 Z " fill="#005D98" transform="translate(183,104)"/>
<path d="M0 0 C-2.58411731 1.72274487 -4.54902656 2.68895522 -7.4375 3.6875 C-8.19933594 3.95949219 -8.96117187 4.23148438 -9.74609375 4.51171875 C-12.21829721 5.04729142 -13.62983284 4.80445309 -16 4 C-13.41588269 2.27725513 -11.45097344 1.31104478 -8.5625 0.3125 C-7.41974609 -0.09548828 -7.41974609 -0.09548828 -6.25390625 -0.51171875 C-3.78170279 -1.04729142 -2.37016716 -0.80445309 0 0 Z " fill="#005C9A" transform="translate(322,34)"/>
<path d="M0 0 C0.33 0.66 0.66 1.32 1 2 C3.8159849 2.46898963 3.8159849 2.46898963 7.0625 2.625 C8.71958984 2.73714844 8.71958984 2.73714844 10.41015625 2.8515625 C11.26480469 2.90054687 12.11945312 2.94953125 13 3 C11 5 11 5 9.01171875 5.265625 C4.56815987 5.23575234 1.04172469 5.08605145 -3 3 C-3 2.34 -3 1.68 -3 1 C-2.01 0.67 -1.02 0.34 0 0 Z " fill="#00609F" transform="translate(522,18)"/>
<path d="M0 0 C9.59453303 0.59453303 9.59453303 0.59453303 13 4 C9.45332822 5.25127906 7.27746562 4.72285053 3.75 3.5625 C2.85796875 3.27503906 1.9659375 2.98757813 1.046875 2.69140625 C0.37140625 2.46324219 -0.3040625 2.23507812 -1 2 C-0.67 1.34 -0.34 0.68 0 0 Z " fill="#005F9E" transform="translate(325,847)"/>
<path d="M0 0 C5.69139902 1.09698167 10.74567937 2.54053077 16 5 C16 5.66 16 6.32 16 7 C4.47835991 3.92482916 4.47835991 3.92482916 -1 2 C-0.67 1.34 -0.34 0.68 0 0 Z " fill="#0066AE" transform="translate(383,598)"/>
<path d="M0 0 C0.66 0.33 1.32 0.66 2 1 C3.33350067 5.44500224 4.29175731 9.3318831 4 14 C3.01 14.495 3.01 14.495 2 15 C1.47217261 12.68889138 0.95246631 10.37647528 0.4375 8.0625 C0.28603516 7.40314453 0.13457031 6.74378906 -0.02148438 6.06445312 C-0.39173308 4.3854183 -0.70072071 2.69312549 -1 1 C-0.67 0.67 -0.34 0.34 0 0 Z " fill="#0066AC" transform="translate(694,361)"/>
<path d="M0 0 C10.55808656 5.0022779 10.55808656 5.0022779 15 9 C14.67 9.66 14.34 10.32 14 11 C9.05 8.03 4.1 5.06 -1 2 C-0.67 1.34 -0.34 0.68 0 0 Z " fill="#0068AE" transform="translate(569,202)"/>
<path d="M0 0 C0.33 0 0.66 0 1 0 C1.19335938 0.66386719 1.38671875 1.32773437 1.5859375 2.01171875 C3.52751352 8.59789309 3.52751352 8.59789309 6 15 C5.01 15.495 5.01 15.495 4 16 C-1.84172662 6.61151079 -1.84172662 6.61151079 -1 1 C-0.67 0.67 -0.34 0.34 0 0 Z " fill="#0068AC" transform="translate(627,462)"/>
<path d="M0 0 C0.33 0 0.66 0 1 0 C1.19448477 2.12437212 1.38038289 4.24953191 1.5625 6.375 C1.66691406 7.55835938 1.77132813 8.74171875 1.87890625 9.9609375 C2 13 2 13 1 15 C0.34 15 -0.32 15 -1 15 C-1.02693575 12.87506859 -1.04636628 10.75004088 -1.0625 8.625 C-1.07410156 7.44164062 -1.08570312 6.25828125 -1.09765625 5.0390625 C-1 2 -1 2 0 0 Z " fill="#005C98" transform="translate(20,457)"/>
<path d="M0 0 C0.33 0 0.66 0 1 0 C1.91657981 5.38490641 2.11138159 10.54230189 2 16 C1.67 16 1.34 16 1 16 C0.67 17.65 0.34 19.3 0 21 C-0.33 21 -0.66 21 -1 21 C-1.13794954 13.93391809 -0.74805717 7.02639415 0 0 Z " fill="#004A78" transform="translate(20,393)"/>
<path d="M0 0 C0.66 0 1.32 0 2 0 C1.34 5.28 0.68 10.56 0 16 C-0.66 16 -1.32 16 -2 16 C-1.85936865 13.70800823 -1.71234057 11.41640814 -1.5625 9.125 C-1.48128906 7.84882813 -1.40007813 6.57265625 -1.31640625 5.2578125 C-1 2 -1 2 0 0 Z " fill="#00619F" transform="translate(23,375)"/>
<path d="M0 0 C0.66 0 1.32 0 2 0 C0.27933894 5.44876003 -1.84705349 10.71169451 -4 16 C-4.66 16 -5.32 16 -6 16 C-5.52412884 9.97229862 -2.80277043 5.23321711 0 0 Z " fill="#0066A9" transform="translate(219,323)"/>
<path d="M0 0 C0.33 0 0.66 0 1 0 C1 2.97 1 5.94 1 9 C0.34 9 -0.32 9 -1 9 C-1 10.98 -1 12.96 -1 15 C-1.99 15.33 -2.98 15.66 -4 16 C-2.98408579 10.53135543 -1.92908943 5.23609987 0 0 Z " fill="#005D99" transform="translate(37,312)"/>
<path d="M0 0 C0.66 0.66 1.32 1.32 2 2 C-0.64 6.95 -3.28 11.9 -6 17 C-7.21225993 12.15096028 -5.92898459 10.3055574 -3.5625 6.25 C-3.22412109 5.64800781 -2.88574219 5.04601562 -2.53710938 4.42578125 C-1.70231735 2.94431935 -0.85258506 1.47129392 0 0 Z " fill="#006AB0" transform="translate(230,301)"/>
<path d="M0 0 C4.52615993 3.67832017 8.39424999 7.41086363 12 12 C9 12 9 12 6.3125 9.625 C4 7 4 7 4 5 C2.68 4.34 1.36 3.68 0 3 C0 2.01 0 1.02 0 0 Z " fill="#006CB2" transform="translate(570,298)"/>
<path d="M0 0 C4.70478962 3.42166518 8.27653164 7.57905197 12 12 C11.34 12.66 10.68 13.32 10 14 C6.37 10.04 2.74 6.08 -1 2 C-0.67 1.34 -0.34 0.68 0 0 Z " fill="#006EB6" transform="translate(629,248)"/>
<path d="M0 0 C0.66 0.33 1.32 0.66 2 1 C1.67 6.28 1.34 11.56 1 17 C-1 15 -1 15 -1.23046875 11.77734375 C-1.20919922 9.87662109 -1.20919922 9.87662109 -1.1875 7.9375 C-1.18105469 6.66777344 -1.17460937 5.39804688 -1.16796875 4.08984375 C-1 1 -1 1 0 0 Z " fill="#0169AF" transform="translate(492,216)"/>
<path d="M0 0 C5.41390868 0.46671627 9.20517932 1.24297811 14 4 C14 4.99 14 5.98 14 7 C9.0276578 5.50829734 4.58154261 3.39542583 0 1 C0 0.67 0 0.34 0 0 Z " fill="#00558E" transform="translate(258,822)"/>
<path d="M0 0 C0.66 0 1.32 0 2 0 C0.36041242 5.23272633 -1.38952035 10.15196636 -4 15 C-4.66 14.67 -5.32 14.34 -6 14 C-5.67 12.68 -5.34 11.36 -5 10 C-4.34 10 -3.68 10 -3 10 C-3.33 9.01 -3.66 8.02 -4 7 C-2.92745123 4.48301368 -1.45196548 2.33194455 0 0 Z " fill="#005A94" transform="translate(846,607)"/>
<path d="M0 0 C2.51911331 3.77866996 3.15493426 5.51895439 3.1875 10 C3.20167969 10.886875 3.21585938 11.77375 3.23046875 12.6875 C3 15 3 15 1 17 C0.67 11.39 0.34 5.78 0 0 Z " fill="#00568D" transform="translate(20,476)"/>
<path d="M0 0 C-1.9570868 0.67031719 -3.91571113 1.33614683 -5.875 2 C-6.96554687 2.37125 -8.05609375 2.7425 -9.1796875 3.125 C-12 4 -12 4 -14 4 C-14 3.01 -14 2.02 -14 1 C-12.42298018 0.44021816 -10.83800758 -0.09719401 -9.25 -0.625 C-7.92742188 -1.07746094 -7.92742188 -1.07746094 -6.578125 -1.5390625 C-3.58982529 -2.07333427 -2.50076998 -1.62433191 0 0 Z " fill="#005993" transform="translate(597,843)"/>
<path d="M0 0 C0.33 0 0.66 0 1 0 C1.73030908 6.21324498 2.23180249 11.84098757 1 18 C0.67 18 0.34 18 0 18 C-0.19430855 15.3753399 -0.38073238 12.75053235 -0.5625 10.125 C-0.61857422 9.37863281 -0.67464844 8.63226563 -0.73242188 7.86328125 C-1.11328125 2.2265625 -1.11328125 2.2265625 0 0 Z " fill="#0160A0" transform="translate(877,374)"/>
<path d="M0 0 C0.33 0 0.66 0 1 0 C1.33776684 1.7491497 1.67003671 3.49936145 2 5.25 C2.185625 6.22453125 2.37125 7.1990625 2.5625 8.203125 C3 11 3 11 3 15 C2.34 15 1.68 15 1 15 C-0.42705634 9.69276568 -1.4002792 5.46108889 0 0 Z " fill="#005D99" transform="translate(874,357)"/>
<path d="M0 0 C0.66 0.66 1.32 1.32 2 2 C-1.3 5.63 -4.6 9.26 -8 13 C-8.33 12.01 -8.66 11.02 -9 10 C-6.03 6.7 -3.06 3.4 0 0 Z " fill="#0066AA" transform="translate(262,257)"/>
<path d="M0 0 C0.66 0.33 1.32 0.66 2 1 C0.02 4.96 -1.96 8.92 -4 13 C-4.99 12.34 -5.98 11.68 -7 11 C-5.07848152 6.86873527 -2.95749791 3.46741134 0 0 Z " fill="#0067AA" transform="translate(499,202)"/>
<path d="M0 0 C4.84659077 0.59104765 8.60748167 1.97944157 13 4 C13 4.99 13 5.98 13 7 C8.1725201 5.58707905 4.2837641 3.57025846 0 1 C0 0.67 0 0.34 0 0 Z " fill="#005992" transform="translate(245,815)"/>
<path d="M0 0 C-1.76245222 1.1999038 -3.53526981 2.38459517 -5.3125 3.5625 C-6.79169922 4.55443359 -6.79169922 4.55443359 -8.30078125 5.56640625 C-9.19152344 6.03949219 -10.08226562 6.51257813 -11 7 C-11.99 6.67 -12.98 6.34 -14 6 C-12.61326942 3.22653883 -10.86966354 2.70074287 -8.125 1.3125 C-7.24070312 0.85488281 -6.35640625 0.39726563 -5.4453125 -0.07421875 C-3 -1 -3 -1 0 0 Z " fill="#0064A9" transform="translate(549,584)"/>
<path d="M0 0 C0.33 0 0.66 0 1 0 C1.8931507 6.58183362 1.95494281 12.42150508 1 19 C-1.55698285 15.21332311 -1.03499684 11.5877666 -0.625 7.25 C-0.56828125 6.55261719 -0.5115625 5.85523438 -0.453125 5.13671875 C-0.31232128 3.42360688 -0.15754028 1.71165389 0 0 Z " fill="#005A94" transform="translate(878,482)"/>
<path d="M0 0 C0.66 0.33 1.32 0.66 2 1 C1.45144652 5.571279 0.58255197 9.67435795 -1 14 C-1.66 14 -2.32 14 -3 14 C-2.68872484 12.41642541 -2.37592711 10.83315007 -2.0625 9.25 C-1.80146484 7.92742187 -1.80146484 7.92742187 -1.53515625 6.578125 C-1.07631512 4.36764947 -0.56663926 2.18487932 0 0 Z " fill="#0069AD" transform="translate(281,373)"/>
<path d="M0 0 C0.33 0.99 0.66 1.98 1 3 C-0.07421875 4.7890625 -0.07421875 4.7890625 -1.6875 6.625 C-2.20699219 7.23601562 -2.72648438 7.84703125 -3.26171875 8.4765625 C-5.181038 10.15866252 -6.50835704 10.59829721 -9 11 C-8.06558465 9.72689688 -7.12732889 8.456612 -6.1875 7.1875 C-5.66542969 6.47980469 -5.14335937 5.77210938 -4.60546875 5.04296875 C-3.16871123 3.21468607 -1.68184237 1.60103312 0 0 Z " fill="#005B94" transform="translate(135,147)"/>
<path d="M0 0 C0.33 0.99 0.66 1.98 1 3 C-0.2065625 3.4021875 -0.2065625 3.4021875 -1.4375 3.8125 C-2.283125 4.204375 -3.12875 4.59625 -4 5 C-4.33 5.99 -4.66 6.98 -5 8 C-6.98 8.33 -8.96 8.66 -11 9 C-7.56638098 5.36440339 -4.2026393 2.63886654 0 0 Z " fill="#0061A0" transform="translate(195,95)"/>
<path d="M0 0 C0.33 0.99 0.66 1.98 1 3 C0.195625 3.45375 -0.60875 3.9075 -1.4375 4.375 C-4.08856572 5.74725665 -4.08856572 5.74725665 -5 8 C-6.98 8 -8.96 8 -11 8 C-7.45960866 5.0843836 -3.8373228 2.49872182 0 0 Z " fill="#0064A5" transform="translate(219,79)"/>
<path d="M0 0 C7.42857143 -0.28571429 7.42857143 -0.28571429 11 2 C11 2.33 11 2.66 11 3 C7.37 3 3.74 3 0 3 C0 2.01 0 1.02 0 0 Z " fill="#005996" transform="translate(475,864)"/>
<path d="M0 0 C-4.29 0.99 -8.58 1.98 -13 3 C-13.33 2.34 -13.66 1.68 -14 1 C-12.42298018 0.44021816 -10.83800758 -0.09719401 -9.25 -0.625 C-7.92742188 -1.07746094 -7.92742188 -1.07746094 -6.578125 -1.5390625 C-4 -2 -4 -2 0 0 Z " fill="#0061A1" transform="translate(572,851)"/>
<path d="M0 0 C5.44208234 0.34013015 8.93668198 3.70296528 13 7 C12.34 7.66 11.68 8.32 11 9 C9.16384919 7.69144447 7.33114211 6.37805538 5.5 5.0625 C4.4790625 4.33160156 3.458125 3.60070312 2.40625 2.84765625 C1.6121875 2.23792969 0.818125 1.62820313 0 1 C0 0.67 0 0.34 0 0 Z " fill="#005F9D" transform="translate(181,773)"/>
<path d="M0 0 C0.66 0 1.32 0 2 0 C0.58707905 4.8274799 -1.42974154 8.7162359 -4 13 C-4.66 12.67 -5.32 12.34 -6 12 C-4.43358249 7.69235185 -2.31663844 3.93828536 0 0 Z " fill="#00619F" transform="translate(829,641)"/>
<path d="M0 0 C5.28 0.33 10.56 0.66 16 1 C16 1.33 16 1.66 16 2 C10.0885256 2.77313045 4.8685408 3.14819277 -1 2 C-0.67 1.34 -0.34 0.68 0 0 Z " fill="#0060A5" transform="translate(424,609)"/>
<path d="M0 0 C4.3177458 0.50797009 8.03302114 1.19682779 12 3 C12 3.99 12 4.98 12 6 C7.76570244 4.68938409 3.92592596 3.05643741 0 1 C0 0.67 0 0.34 0 0 Z " fill="#0069AE" transform="translate(365,591)"/>
<path d="M0 0 C3.7602985 0.58107632 6.53035032 1.65199496 9.8125 3.5625 C10.60269531 4.01753906 11.39289063 4.47257813 12.20703125 4.94140625 C12.79871094 5.29074219 13.39039063 5.64007812 14 6 C13.34 6.66 12.68 7.32 12 8 C9.99743426 6.85865673 7.99800203 5.71181367 6 4.5625 C4.88625 3.92441406 3.7725 3.28632812 2.625 2.62890625 C1.75875 2.09136719 0.8925 1.55382812 0 1 C0 0.67 0 0.34 0 0 Z " fill="#0066AB" transform="translate(351,583)"/>
<path d="M0 0 C0.99 0 1.98 0 3 0 C3.33 3.3 3.66 6.6 4 10 C3.01 10.495 3.01 10.495 2 11 C1.01 7.7 0.02 4.4 -1 1 C-0.67 0.67 -0.34 0.34 0 0 Z " fill="#005E9C" transform="translate(45,583)"/>
<path d="M0 0 C0.66 0.33 1.32 0.66 2 1 C1.67 4.63 1.34 8.26 1 12 C0.01 12 -0.98 12 -2 12 C-1.34 8.04 -0.68 4.08 0 0 Z " fill="#0061A1" transform="translate(28,345)"/>
<path d="M0 0 C0.33 0.99 0.66 1.98 1 3 C1.66 3.33 2.32 3.66 3 4 C-1.82142857 9.22321429 -1.82142857 9.22321429 -6 10 C-5.18957164 8.51969728 -4.37659652 7.04078858 -3.5625 5.5625 C-2.88380859 4.32693359 -2.88380859 4.32693359 -2.19140625 3.06640625 C-1 1 -1 1 0 0 Z " fill="#0069AB" transform="translate(89,205)"/>
<path d="M0 0 C-3.62535821 3.17218843 -7.51150278 4.42902597 -12 6 C-12.33 5.34 -12.66 4.68 -13 4 C-11.40233897 3.13372601 -9.79660056 2.28233535 -8.1875 1.4375 C-7.29417969 0.96183594 -6.40085937 0.48617187 -5.48046875 -0.00390625 C-3 -1 -3 -1 0 0 Z " fill="#005A96" transform="translate(639,824)"/>
<path d="M0 0 C-3.81234923 3.3502463 -7.33285711 5.16974789 -12 7 C-12 6.01 -12 5.02 -12 4 C-4.71428571 -0.57142857 -4.71428571 -0.57142857 0 0 Z " fill="#015991" transform="translate(656,815)"/>
<path d="M0 0 C1.7074998 1.28062485 3.37373596 2.61767557 5 4 C5 4.66 5 5.32 5 6 C5.66 6 6.32 6 7 6 C7.66 7.32 8.32 8.64 9 10 C6 10 6 10 4.17578125 8.25 C3.56089844 7.5075 2.94601563 6.765 2.3125 6 C1.68988281 5.2575 1.06726563 4.515 0.42578125 3.75 C-0.04472656 3.1725 -0.51523438 2.595 -1 2 C-0.67 1.34 -0.34 0.68 0 0 Z " fill="#0161A1" transform="translate(120,712)"/>
<path d="M0 0 C0 0.66 0 1.32 0 2 C-5.16569441 3.79217969 -8.51053913 4.12029814 -14 3 C-14 2.67 -14 2.34 -14 2 C-12.22978678 1.663389 -10.45880326 1.33082707 -8.6875 1 C-7.70136719 0.814375 -6.71523438 0.62875 -5.69921875 0.4375 C-3 0 -3 0 0 0 Z " fill="#0062A1" transform="translate(506,681)"/>
<path d="M0 0 C0.99 0 1.98 0 3 0 C1.54955729 4.10958767 -0.51110752 7.43258745 -3 11 C-4 8 -4 8 -3.22265625 5.95703125 C-2.83980469 5.24933594 -2.45695313 4.54164063 -2.0625 3.8125 C-1.68222656 3.09707031 -1.30195312 2.38164063 -0.91015625 1.64453125 C-0.60980469 1.10183594 -0.30945313 0.55914063 0 0 Z " fill="#0167AA" transform="translate(811,669)"/>
<path d="M0 0 C0.66 1.32 1.32 2.64 2 4 C0.02 6.64 -1.96 9.28 -4 12 C-4.66 11.67 -5.32 11.34 -6 11 C-4.02 7.37 -2.04 3.74 0 0 Z " fill="#005C97" transform="translate(78,221)"/>
<path d="M0 0 C10.55808656 -0.18451025 10.55808656 -0.18451025 15 1 C15 1.33 15 1.66 15 2 C10.05 2.33 5.1 2.66 0 3 C0 2.01 0 1.02 0 0 Z " fill="#005E9D" transform="translate(519,187)"/>
<path d="M0 0 C3.63 0.66 7.26 1.32 11 2 C10.34 2.66 9.68 3.32 9 4 C6.6171875 3.9765625 6.6171875 3.9765625 3.875 3.625 C2.96492187 3.51414062 2.05484375 3.40328125 1.1171875 3.2890625 C0.41851563 3.19367187 -0.28015625 3.09828125 -1 3 C-0.67 2.01 -0.34 1.02 0 0 Z " fill="#005C97" transform="translate(550,25)"/>
<path d="M0 0 C0.7940625 -0.01417969 1.588125 -0.02835938 2.40625 -0.04296875 C4.5 0.1875 4.5 0.1875 6.5 2.1875 C0.065 2.6825 0.065 2.6825 -6.5 3.1875 C-6.5 2.5275 -6.5 1.8675 -6.5 1.1875 C-4.14653604 0.01076802 -2.6193967 0.02126134 0 0 Z " fill="#01568E" transform="translate(506.5,861.8125)"/>
<path d="M0 0 C0.66 0 1.32 0 2 0 C0.56854369 5.01009707 -1.82951522 7.10619424 -6 10 C-6.99 9.67 -7.98 9.34 -9 9 C-8.51789062 8.60167969 -8.03578125 8.20335937 -7.5390625 7.79296875 C-6.90742187 7.26316406 -6.27578125 6.73335938 -5.625 6.1875 C-4.99851562 5.66542969 -4.37203125 5.14335937 -3.7265625 4.60546875 C-1.7778952 2.91774261 -1.7778952 2.91774261 0 0 Z " fill="#006CB4" transform="translate(694,477)"/>
<path d="M0 0 C3.35250701 0.57575664 4.93818629 1.59306263 7.25 4.0625 C8.03117188 4.88427734 8.03117188 4.88427734 8.828125 5.72265625 C9.21484375 6.14417969 9.6015625 6.56570312 10 7 C9.67 7.99 9.34 8.98 9 10 C7.49702124 8.52386015 5.99768715 7.04400843 4.5 5.5625 C3.6646875 4.73878906 2.829375 3.91507813 1.96875 3.06640625 C0 1 0 1 0 0 Z " fill="#0166A8" transform="translate(618,239)"/>
<path d="M0 0 C1.50560497 2.85410334 2.63216796 5.68124642 3.625 8.75 C3.88539063 9.54921875 4.14578125 10.3484375 4.4140625 11.171875 C4.60742188 11.77515625 4.80078125 12.3784375 5 13 C2 12 2 12 0.25 9.3125 C-1.14124787 5.62569316 -0.98410592 3.75749535 0 0 Z " fill="#0061A0" transform="translate(493,233)"/>
<path d="M0 0 C0.99 0 1.98 0 3 0 C4.640625 1.64453125 4.640625 1.64453125 6.25 3.8125 C6.79140625 4.52019531 7.3328125 5.22789062 7.890625 5.95703125 C8.25671875 6.63121094 8.6228125 7.30539062 9 8 C8.67 8.99 8.34 9.98 8 11 C6.66375099 9.35653302 5.33107149 7.71016314 4 6.0625 C3.2575 5.14597656 2.515 4.22945312 1.75 3.28515625 C0 1 0 1 0 0 Z " fill="#015B94" transform="translate(110,702)"/>
<path d="M0 0 C2.9375 0.375 2.9375 0.375 6 1 C6.33 1.66 6.66 2.32 7 3 C4.03 3.66 1.06 4.32 -2 5 C-1.34 3.35 -0.68 1.7 0 0 Z " fill="#0069AE" transform="translate(506,599)"/>
<path d="M0 0 C0.66 0.66 1.32 1.32 2 2 C1.57847656 2.55429687 1.15695312 3.10859375 0.72265625 3.6796875 C0.17480469 4.40414062 -0.37304688 5.12859375 -0.9375 5.875 C-1.48277344 6.59429688 -2.02804687 7.31359375 -2.58984375 8.0546875 C-4.03964624 9.94357079 -4.03964624 9.94357079 -5 12 C-5.66 12 -6.32 12 -7 12 C-5.63855967 6.80177328 -3.53269829 3.90456127 0 0 Z " fill="#0068AF" transform="translate(280,572)"/>
<path d="M0 0 C0.66 0 1.32 0 2 0 C1.34 3.96 0.68 7.92 0 12 C-0.66 11.67 -1.32 11.34 -2 11 C-1.85892253 9.54119891 -1.71197585 8.08296449 -1.5625 6.625 C-1.48128906 5.81289063 -1.40007813 5.00078125 -1.31640625 4.1640625 C-1 2 -1 2 0 0 Z " fill="#005D98" transform="translate(870,535)"/>
<path d="M0 0 C2.29633824 3.44450737 2.54016485 5.93812283 3 10 C2.01 10 1.02 10 0 10 C-0.19412181 8.52168779 -0.38012131 7.04230684 -0.5625 5.5625 C-0.66691406 4.73878906 -0.77132812 3.91507812 -0.87890625 3.06640625 C-0.91886719 2.38449219 -0.95882812 1.70257813 -1 1 C-0.67 0.67 -0.34 0.34 0 0 Z " fill="#005F9C" transform="translate(866,324)"/>
<path d="M0 0 C0.66 0.33 1.32 0.66 2 1 C0.87895467 2.31587941 -0.24696965 3.62760353 -1.375 4.9375 C-2.00148438 5.66839844 -2.62796875 6.39929688 -3.2734375 7.15234375 C-5 9 -5 9 -7 10 C-6.42424336 6.64749299 -5.40693737 5.06181371 -2.9375 2.75 C-2.38964844 2.22921875 -1.84179688 1.7084375 -1.27734375 1.171875 C-0.64505859 0.59179688 -0.64505859 0.59179688 0 0 Z " fill="#00538A" transform="translate(767,727)"/>
<path d="M0 0 C0.66 0.66 1.32 1.32 2 2 C-0.31 4.97 -2.62 7.94 -5 11 C-5.33 9.68 -5.66 8.36 -6 7 C-4.78515625 5.078125 -4.78515625 5.078125 -3.0625 3.25 C-2.49660156 2.63640625 -1.93070313 2.0228125 -1.34765625 1.390625 C-0.90292969 0.93171875 -0.45820312 0.4728125 0 0 Z " fill="#015F9C" transform="translate(800,687)"/>
<path d="M0 0 C4.03520597 1.58962659 8.01811282 3.28232318 12 5 C11.67 5.66 11.34 6.32 11 7 C6.96678237 5.78065514 3.45730521 4.44045073 0 2 C0 1.34 0 0.68 0 0 Z " fill="#0066A9" transform="translate(324,655)"/>
<path d="M0 0 C2.7972908 2.06756277 3.02692273 3.14440371 3.6875 6.6875 C3.790625 7.780625 3.89375 8.87375 4 10 C3.01 10.495 3.01 10.495 2 11 C1.01 7.7 0.02 4.4 -1 1 C-0.67 0.67 -0.34 0.34 0 0 Z " fill="#005D9A" transform="translate(41,572)"/>
<path d="M0 0 C0.66 0 1.32 0 2 0 C2 3.63 2 7.26 2 11 C1.01 11 0.02 11 -1 11 C-0.67 7.37 -0.34 3.74 0 0 Z " fill="#0066A9" transform="translate(701,453)"/>
<path d="M0 0 C0.33 0 0.66 0 1 0 C1.33 4.95 1.66 9.9 2 15 C1.34 15 0.68 15 0 15 C-0.75612577 9.76528314 -1.2063366 5.22745859 0 0 Z " fill="#00629D" transform="translate(198,449)"/>
<path d="M0 0 C4.455 1.98 4.455 1.98 9 4 C9 4.99 9 5.98 9 7 C5.7 5.35 2.4 3.7 -1 2 C-0.67 1.34 -0.34 0.68 0 0 Z " fill="#005893" transform="translate(235,808)"/>
<path d="M0 0 C1.670625 0.37125 1.670625 0.37125 3.375 0.75 C3.705 1.41 4.035 2.07 4.375 2.75 C2.91864629 2.97174933 1.45977044 3.17698698 0 3.375 C-0.81210937 3.49101563 -1.62421875 3.60703125 -2.4609375 3.7265625 C-3.17507813 3.73429688 -3.88921875 3.74203125 -4.625 3.75 C-5.285 3.09 -5.945 2.43 -6.625 1.75 C-3.625 -0.25 -3.625 -0.25 0 0 Z " fill="#0063A6" transform="translate(478.625,607.25)"/>
<path d="M0 0 C0.66 0 1.32 0 2 0 C0.515 5.445 0.515 5.445 -1 11 C-1.66 10.67 -2.32 10.34 -3 10 C-2.49287967 6.28111761 -1.88391785 3.26545761 0 0 Z " fill="#015F9B" transform="translate(860,571)"/>
<path d="M0 0 C1 3 1 3 0.0625 5.1875 C-0.4634375 6.0846875 -0.4634375 6.0846875 -1 7 C-1.66 7 -2.32 7 -3 7 C-3.33 8.65 -3.66 10.3 -4 12 C-4.99 11.67 -5.98 11.34 -7 11 C-4.69 7.37 -2.38 3.74 0 0 Z " fill="#0062A3" transform="translate(303,328)"/>
<path d="M0 0 C0.66 0.66 1.32 1.32 2 2 C-0.31 4.97 -2.62 7.94 -5 11 C-6 8 -6 8 -5.29296875 6.2109375 C-4.74576172 5.30214844 -4.74576172 5.30214844 -4.1875 4.375 C-3.83042969 3.76398438 -3.47335938 3.15296875 -3.10546875 2.5234375 C-2 1 -2 1 0 0 Z " fill="#0063A8" transform="translate(251,270)"/>
<path d="M0 0 C1 3 1 3 0.22265625 4.82421875 C-0.8515625 6.54947917 -1.92578125 8.27473958 -3 10 C-3.33 10 -3.66 10 -4 10 C-3.38461538 3.47692308 -3.38461538 3.47692308 -1.4375 1.0625 C-0.7259375 0.5365625 -0.7259375 0.5365625 0 0 Z " fill="#0069AD" transform="translate(65,247)"/>
<path d="M0 0 C0.99 0 1.98 0 3 0 C5.75 2.8125 5.75 2.8125 8 6 C7.67 6.99 7.34 7.98 7 9 C4.03595495 6.19195732 1.55500981 3.81684226 0 0 Z " fill="#005F9F" transform="translate(394,197)"/>
<path d="M0 0 C-0.33 0.99 -0.66 1.98 -1 3 C-7.0546875 3.9765625 -7.0546875 3.9765625 -9 4 C-9.66 3.34 -10.32 2.68 -11 2 C-3.375 0 -3.375 0 0 0 Z " fill="#005E99" transform="translate(342,27)"/>
<path d="M0 0 C0.80824219 0.10183594 1.61648438 0.20367188 2.44921875 0.30859375 C3.06410156 0.39238281 3.67898438 0.47617187 4.3125 0.5625 C4.3125 0.8925 4.3125 1.2225 4.3125 1.5625 C0.6825 1.8925 -2.9475 2.2225 -6.6875 2.5625 C-7.0175 1.9025 -7.3475 1.2425 -7.6875 0.5625 C-4.59271121 -0.46909626 -3.16118607 -0.41232862 0 0 Z " fill="#00558C" transform="translate(521.6875,860.4375)"/>
<path d="M0 0 C4.455 2.97 4.455 2.97 9 6 C8.34 6.66 7.68 7.32 7 8 C6.01 8 5.02 8 4 8 C2.15473038 5.37403939 1.01624151 3.04872454 0 0 Z " fill="#0067AA" transform="translate(288,631)"/>
<path d="M0 0 C0.33 0.66 0.66 1.32 1 2 C1.66 2 2.32 2 3 2 C3.125 5.375 3.125 5.375 3 9 C2.34 9.66 1.68 10.32 1 11 C0.87625 9.865625 0.7525 8.73125 0.625 7.5625 C0.41875 6.386875 0.2125 5.21125 0 4 C-0.66 3.67 -1.32 3.34 -2 3 C-1 1 -1 1 0 0 Z " fill="#00426E" transform="translate(22,497)"/>
<path d="M0 0 C0.33 0 0.66 0 1 0 C1.33 3.63 1.66 7.26 2 11 C1.34 11 0.68 11 0 11 C-1.49297212 8.01405576 -1.11755228 5.29146376 -1 2 C-0.67 1.34 -0.34 0.68 0 0 Z " fill="#0064A6" transform="translate(624,398)"/>
<path d="M0 0 C1.90318884 2.85478326 2.4619099 4.41941308 3.125 7.6875 C3.29257812 8.49574219 3.46015625 9.30398438 3.6328125 10.13671875 C3.75398437 10.75160156 3.87515625 11.36648438 4 12 C3.34 12 2.68 12 2 12 C-0.60018816 8.09971775 -0.15085514 4.52565431 0 0 Z " fill="#005991" transform="translate(862,311)"/>
<path d="M0 0 C3.48331435 3.01887244 4.79157144 5.56909529 6 10 C3 9 3 9 1.3125 6.6875 C0 4 0 4 0 0 Z " fill="#0063A1" transform="translate(829,237)"/>
<path d="M0 0 C2.96404505 2.80804268 5.44499019 5.18315774 7 9 C6.01 9 5.02 9 4 9 C2.61328125 7.25 2.61328125 7.25 1.3125 5 C0.87550781 4.2575 0.43851563 3.515 -0.01171875 2.75 C-0.33785156 2.1725 -0.66398438 1.595 -1 1 C-0.67 0.67 -0.34 0.34 0 0 Z " fill="#0062A1" transform="translate(800,191)"/>
<path d="M0 0 C0 0.66 0 1.32 0 2 C-4.95 3.485 -4.95 3.485 -10 5 C-10 4.34 -10 3.68 -10 3 C-6.27034861 0.96564469 -4.33094958 0 0 0 Z " fill="#0061A3" transform="translate(612,835)"/>
<path d="M0 0 C4 0 4 0 6.25 2 C6.8275 2.66 7.405 3.32 8 4 C7.67 4.99 7.34 5.98 7 7 C5.83040013 6.02433888 4.66438823 5.044375 3.5 4.0625 C2.8503125 3.51722656 2.200625 2.97195313 1.53125 2.41015625 C1.0259375 1.94480469 0.520625 1.47945312 0 1 C0 0.67 0 0.34 0 0 Z " fill="#005187" transform="translate(147,743)"/>
<path d="M0 0 C0.66 0.66 1.32 1.32 2 2 C-0.31 4.31 -2.62 6.62 -5 9 C-5.33 8.01 -5.66 7.02 -6 6 C-4.02 4.02 -2.04 2.04 0 0 Z " fill="#005085" transform="translate(758,736)"/>
<path d="M0 0 C0.66 0 1.32 0 2 0 C0.76736651 3.69790046 -0.20052451 3.9354846 -3.5625 5.6875 C-4.80193359 6.34298828 -4.80193359 6.34298828 -6.06640625 7.01171875 C-6.70449219 7.33785156 -7.34257813 7.66398438 -8 8 C-6.63016497 4.83884224 -6.0109362 4.0072908 -3 2 C-2.01 2 -1.02 2 0 2 C0 1.34 0 0.68 0 0 Z " fill="#0065A8" transform="translate(558,575)"/>
<path d="M0 0 C2.79908133 2.79908133 2.72362983 5.13081763 3 9 C2.34 9.66 1.68 10.32 1 11 C0.63890458 9.35567294 0.28629924 7.7094792 -0.0625 6.0625 C-0.25972656 5.14597656 -0.45695312 4.22945312 -0.66015625 3.28515625 C-0.77230469 2.53105469 -0.88445313 1.77695312 -1 1 C-0.67 0.67 -0.34 0.34 0 0 Z " fill="#015790" transform="translate(32,542)"/>
<path d="M0 0 C1.37562854 1.28965176 2.70766393 2.62689293 4 4 C4 4.66 4 5.32 4 6 C5.32 6.66 6.64 7.32 8 8 C7.01 8.33 6.02 8.66 5 9 C2.5 6.75 2.5 6.75 0 4 C0 2.68 0 1.36 0 0 Z " fill="#005D9A" transform="translate(633,477)"/>
<path d="M0 0 C2.38672669 2.96283313 4.7353371 5.94270509 7 9 C4 9 4 9 1.8125 7.3125 C-0.31050198 4.6038423 -0.37254569 3.35291118 0 0 Z " fill="#005F9D" transform="translate(204,474)"/>
<path d="M0 0 C0.66 0.33 1.32 0.66 2 1 C2 3.97 2 6.94 2 10 C1.01 10 0.02 10 -1 10 C-1.125 3.375 -1.125 3.375 0 0 Z " fill="#00548E" transform="translate(626,428)"/>
<path d="M0 0 C0.66 0.33 1.32 0.66 2 1 C1.7452486 2.31571603 1.47065859 3.62760376 1.1875 4.9375 C1.03667969 5.66839844 0.88585938 6.39929688 0.73046875 7.15234375 C0.48941406 7.76207031 0.24835937 8.37179687 0 9 C-0.99 9.33 -1.98 9.66 -3 10 C-2.01 6.7 -1.02 3.4 0 0 Z " fill="#005F9B" transform="translate(48,281)"/>
<path d="M0 0 C0.33 1.32 0.66 2.64 1 4 C-1.97 6.475 -1.97 6.475 -5 9 C-5.66 8.67 -6.32 8.34 -7 8 C-4.69 5.36 -2.38 2.72 0 0 Z " fill="#005D99" transform="translate(125,158)"/>
<path d="M0 0 C1.17539996 0.92652701 2.34010577 1.86663387 3.5 2.8125 C4.1496875 3.33457031 4.799375 3.85664063 5.46875 4.39453125 C7 6 7 6 7 9 C5.82460004 8.07347299 4.65989423 7.13336613 3.5 6.1875 C2.52546875 5.40439453 2.52546875 5.40439453 1.53125 4.60546875 C0 3 0 3 0 0 Z " fill="#004B7E" transform="translate(754,137)"/>
<path d="M0 0 C0.33 0.66 0.66 1.32 1 2 C-2.32307692 6.8 -2.32307692 6.8 -5.75 7.8125 C-6.4925 7.874375 -7.235 7.93625 -8 8 C-5.33333333 5.33333333 -2.66666667 2.66666667 0 0 Z " fill="#005890" transform="translate(160,123)"/>
<path d="M0 0 C3.3 0.99 6.6 1.98 10 3 C9.67 3.66 9.34 4.32 9 5 C4.545 4.01 4.545 4.01 0 3 C0 2.01 0 1.02 0 0 Z " fill="#005D99" transform="translate(610,44)"/>
<path d="M0 0 C0.99 0.33 1.98 0.66 3 1 C0.36 2.98 -2.28 4.96 -5 7 C-5 6.01 -5 5.02 -5 4 C-2.6875 1.75 -2.6875 1.75 0 0 Z " fill="#005891" transform="translate(724,767)"/>
<path d="M0 0 C2.1015625 0.42578125 2.1015625 0.42578125 4 1 C2.8803014 2.00593243 1.7540588 3.0045849 0.625 4 C-0.00148438 4.556875 -0.62796875 5.11375 -1.2734375 5.6875 C-3 7 -3 7 -5 7 C-3.7251791 4.15616877 -2.54862922 1.86245982 0 0 Z " fill="#00578E" transform="translate(740,753)"/>
<path d="M0 0 C3.3 0.33 6.6 0.66 10 1 C10 1.66 10 2.32 10 3 C2.25 3.125 2.25 3.125 0 2 C0 1.34 0 0.68 0 0 Z " fill="#005FA1" transform="translate(404,683)"/>
<path d="M0 0 C0.33 0 0.66 0 1 0 C1.2226746 1.43534841 1.42761906 2.87345525 1.625 4.3125 C1.74101562 5.11300781 1.85703125 5.91351562 1.9765625 6.73828125 C2 9 2 9 0 12 C-0.19477739 10.37585622 -0.38059458 8.75063577 -0.5625 7.125 C-0.66691406 6.22007812 -0.77132813 5.31515625 -0.87890625 4.3828125 C-1 2 -1 2 0 0 Z " fill="#015891" transform="translate(25,507)"/>
<path d="M0 0 C3.81684226 1.55500981 6.19195732 4.03595495 9 7 C5.13066838 6.42676569 2.84777943 4.61046448 0 2 C0 1.34 0 0.68 0 0 Z " fill="#0066A8" transform="translate(553,284)"/>
<path d="M0 0 C4.455 0.99 4.455 0.99 9 2 C8.67 2.99 8.34 3.98 8 5 C4.62537285 4.45276317 2.91765 3.9451 0 2 C0 1.34 0 0.68 0 0 Z " fill="#005C98" transform="translate(620,48)"/>
<path d="M0 0 C-1 3 -1 3 -3.375 4.1875 C-6 5 -6 5 -9 5 C-9 4.34 -9 3.68 -9 3 C-2.25 0 -2.25 0 0 0 Z " fill="#005B96" transform="translate(297,41)"/>
<path d="M0 0 C4.95 0.99 4.95 0.99 10 2 C9.34 2.66 8.68 3.32 8 4 C5.27130593 3.96712417 2.7033382 3.43602229 0 3 C0 2.01 0 1.02 0 0 Z " fill="#015891" transform="translate(562,28)"/>
<path d="M0 0 C0.99 0 1.98 0 3 0 C4.25664978 2.90600261 5 4.79604584 5 8 C4.34 8 3.68 8 3 8 C0 2.25 0 2.25 0 0 Z " fill="#005E9B" transform="translate(55,611)"/>
<path d="M0 0 C0.66 0.33 1.32 0.66 2 1 C2.40729228 3.32156597 2.74438677 5.6568787 3 8 C2.01 8.495 2.01 8.495 1 9 C0.63877119 7.68942607 0.28619689 6.37646376 -0.0625 5.0625 C-0.35833984 3.96615234 -0.35833984 3.96615234 -0.66015625 2.84765625 C-0.77230469 2.23792969 -0.88445313 1.62820313 -1 1 C-0.67 0.67 -0.34 0.34 0 0 Z " fill="#0062A1" transform="translate(37,560)"/>
<path d="M0 0 C0.33 0 0.66 0 1 0 C1.02696365 1.79158489 1.04637917 3.58328473 1.0625 5.375 C1.07410156 6.37273437 1.08570313 7.37046875 1.09765625 8.3984375 C1 11 1 11 0 13 C-0.66 13 -1.32 13 -2 13 C-1.855625 12.34 -1.71125 11.68 -1.5625 11 C-0.87700084 7.34400449 -0.43824485 3.69377805 0 0 Z " fill="#006BB4" transform="translate(275,450)"/>
<path d="M0 0 C1.61949011 2.57213134 2.04408751 3.67669159 1.625 6.75 C1.41875 7.4925 1.2125 8.235 1 9 C0.34 8.67 -0.32 8.34 -1 8 C-1.04241723 5.66705225 -1.04092937 3.33297433 -1 1 C-0.67 0.67 -0.34 0.34 0 0 Z " fill="#005E9B" transform="translate(870,339)"/>
<path d="M0 0 C2.5 2.3125 2.5 2.3125 5 5 C5 5.99 5 6.98 5 8 C2.5 5.6875 2.5 5.6875 0 3 C0 2.01 0 1.02 0 0 Z " fill="#005D9B" transform="translate(788,175)"/>
<path d="M0 0 C4.29 0 8.58 0 13 0 C13 0.33 13 0.66 13 1 C9.04 1.66 5.08 2.32 1 3 C0.67 2.01 0.34 1.02 0 0 Z " fill="#000000" transform="translate(339,23)"/>
<path d="M0 0 C3.0625 0.1875 3.0625 0.1875 5.0625 2.1875 C2.14767222 2.99717438 0.60136783 3.40595993 -2.25 2.25 C-2.806875 1.899375 -3.36375 1.54875 -3.9375 1.1875 C-2.9375 0.1875 -2.9375 0.1875 0 0 Z " fill="#005690" transform="translate(371.9375,857.8125)"/>
<path d="M0 0 C0 0.66 0 1.32 0 2 C-6.0546875 2.9765625 -6.0546875 2.9765625 -8 3 C-8.66 2.34 -9.32 1.68 -10 1 C-6.61981469 -0.04005702 -3.5219721 -0.08004482 0 0 Z " fill="#015C98" transform="translate(546,856)"/>
<path d="M0 0 C-2.6855594 2.6855594 -5.37621328 3.06049974 -9 4 C-8 1 -8 1 -5.625 -0.25 C-3 -1 -3 -1 0 0 Z " fill="#015F9C" transform="translate(626,830)"/>
<path d="M0 0 C0.99 0.66 1.98 1.32 3 2 C-0.96 3.98 -0.96 3.98 -5 6 C-5 4.68 -5 3.36 -5 2 C-2.6875 0.875 -2.6875 0.875 0 0 Z " fill="#005995" transform="translate(671,804)"/>
<path d="M0 0 C0.66 0.66 1.32 1.32 2 2 C-0.8125 4.0625 -0.8125 4.0625 -4 6 C-4.99 5.67 -5.98 5.34 -7 5 C-2.25 1.125 -2.25 1.125 0 0 Z " fill="#005991" transform="translate(680,799)"/>
<path d="M0 0 C0.99 0.33 1.98 0.66 3 1 C-0.465 3.97 -0.465 3.97 -4 7 C-4 4 -4 4 -2 1.8125 C-1.34 1.214375 -0.68 0.61625 0 0 Z " fill="#014A7A" transform="translate(749,745)"/>
<path d="M0 0 C0.99 0.33 1.98 0.66 3 1 C1.02 3.31 -0.96 5.62 -3 8 C-3.33 6.68 -3.66 5.36 -4 4 C-2.0625 1.75 -2.0625 1.75 0 0 Z " fill="#01548B" transform="translate(774,719)"/>
<path d="M0 0 C2.97 0.495 2.97 0.495 6 1 C6 2.65 6 4.3 6 6 C5.01 6 4.02 6 3 6 C2.01 4.02 1.02 2.04 0 0 Z " fill="#0166A6" transform="translate(105,695)"/>
<path d="M0 0 C-0.66 1.32 -1.32 2.64 -2 4 C-3.32 3.67 -4.64 3.34 -6 3 C-6 2.01 -6 1.02 -6 0 C-3 -1 -3 -1 0 0 Z " fill="#006BB2" transform="translate(532,675)"/>
<path d="M0 0 C3.91402949 1.26941497 5.79072873 2.51167694 8 6 C4.06830895 6 2.83572772 4.60580385 0 2 C0 1.34 0 0.68 0 0 Z " fill="#0066AA" transform="translate(612,567)"/>
<path d="M0 0 C5.75 1.625 5.75 1.625 8 5 C4.40142046 5 2.90548882 4.04169485 0 2 C0 1.34 0 0.68 0 0 Z " fill="#0064A5" transform="translate(326,565)"/>
<path d="M0 0 C0.66 0 1.32 0 2 0 C2.33 2.64 2.66 5.28 3 8 C2.01 8.495 2.01 8.495 1 9 C-0.4783226 6.04335481 -0.06032783 3.25770263 0 0 Z " fill="#0066AA" transform="translate(621,387)"/>
<path d="M0 0 C0.33 0 0.66 0 1 0 C1.22174933 1.45635371 1.42698698 2.91522956 1.625 4.375 C1.74101563 5.18710937 1.85703125 5.99921875 1.9765625 6.8359375 C1.98429688 7.55007813 1.99203125 8.26421875 2 9 C1.34 9.66 0.68 10.32 0 11 C-1.125 3.375 -1.125 3.375 0 0 Z " fill="#005B95" transform="translate(872,347)"/>
<path d="M0 0 C0 0.66 0 1.32 0 2 C-3.96 3.98 -3.96 3.98 -8 6 C-8 5.01 -8 4.02 -8 3 C-2.25 0 -2.25 0 0 0 Z " fill="#0066AA" transform="translate(335,200)"/>
<path d="M0 0 C3.375 -0.125 3.375 -0.125 7 0 C7.66 0.66 8.32 1.32 9 2 C4.545 2.495 4.545 2.495 0 3 C0 2.01 0 1.02 0 0 Z " fill="#00558B" transform="translate(528,858)"/>
<path d="M0 0 C-2.64 1.65 -5.28 3.3 -8 5 C-8 4.01 -8 3.02 -8 2 C-4.90310319 -1.09689681 -4.48560889 -1.12140222 0 0 Z " fill="#015E9A" transform="translate(695,792)"/>
<path d="M0 0 C6.75 1.625 6.75 1.625 9 5 C4.98525763 5 3.18024863 3.33218233 0 1 C0 0.67 0 0.34 0 0 Z " fill="#00538A" transform="translate(193,782)"/>
<path d="M0 0 C4.31392226 0.4793247 6.16569547 1.7457985 9 5 C8.01 5.33 7.02 5.66 6 6 C2.8125 3.625 2.8125 3.625 0 1 C0 0.67 0 0.34 0 0 Z " fill="#015993" transform="translate(164,759)"/>
<path d="M0 0 C0.66 0.66 1.32 1.32 2 2 C1.625 5.625 1.625 5.625 1 9 C-0.61949011 6.42786866 -1.04408751 5.32330841 -0.625 2.25 C-0.41875 1.5075 -0.2125 0.765 0 0 Z " fill="#005A94" transform="translate(30,533)"/>
<path d="M0 0 C2.64752004 2.57784846 4.94432065 4.91648098 7 8 C4.24542282 7.62005832 3.17979426 7.1926367 1.25 5.125 C0 3 0 3 0 0 Z " fill="#0062A2" transform="translate(585,314)"/>
<path d="M0 0 C0.33 0.99 0.66 1.98 1 3 C-0.32 4.32 -1.64 5.64 -3 7 C-3.99 6.67 -4.98 6.34 -6 6 C-4.02 4.02 -2.04 2.04 0 0 Z " fill="#0065A9" transform="translate(332,295)"/>
<path d="M0 0 C3.465 1.98 3.465 1.98 7 4 C7 4.66 7 5.32 7 6 C4.0625 5.25 4.0625 5.25 1 4 C0.125 1.875 0.125 1.875 0 0 Z " fill="#0065A9" transform="translate(534,271)"/>
<path d="M0 0 C0.33 0.99 0.66 1.98 1 3 C-4.75 6 -4.75 6 -7 6 C-7 5.34 -7 4.68 -7 4 C-4.69 2.68 -2.38 1.36 0 0 Z " fill="#006AB1" transform="translate(516,188)"/>
<path d="M0 0 C2.31 1.98 4.62 3.96 7 6 C6.01 6.33 5.02 6.66 4 7 C2 5.1875 2 5.1875 0 3 C0 2.01 0 1.02 0 0 Z " fill="#00558C" transform="translate(770,154)"/>
<path d="M0 0 C-0.33 0.66 -0.66 1.32 -1 2 C-3.9375 2.75 -3.9375 2.75 -7 3 C-7.66 2.34 -8.32 1.68 -9 1 C-3.375 -1.125 -3.375 -1.125 0 0 Z " fill="#0062A3" transform="translate(331,31)"/>
<path d="M0 0 C0.33 0.66 0.66 1.32 1 2 C2.65 2 4.3 2 6 2 C5.34 2.66 4.68 3.32 4 4 C0.375 3.625 0.375 3.625 -3 3 C-3 2.34 -3 1.68 -3 1 C-2.01 0.67 -1.02 0.34 0 0 Z " fill="#015185" transform="translate(522,18)"/>
<path d="M0 0 C2.31 0.33 4.62 0.66 7 1 C7 1.66 7 2.32 7 3 C4.36 2.67 1.72 2.34 -1 2 C-0.67 1.34 -0.34 0.68 0 0 Z " fill="#02538A" transform="translate(355,855)"/>
<path d="M0 0 C-3.18762365 2.12508244 -5.26512223 2.5020163 -9 3 C-9.33 2.34 -9.66 1.68 -10 1 C-6.78548731 -0.60725635 -3.56387464 -0.05748185 0 0 Z " fill="#005890" transform="translate(582,847)"/>
<path d="M0 0 C2.9375 0.8125 2.9375 0.8125 6 2 C6.33 2.99 6.66 3.98 7 5 C4.03 4.01 1.06 3.02 -2 2 C-1.34 1.34 -0.68 0.68 0 0 Z " fill="#01558C" transform="translate(279,830)"/>
<path d="M0 0 C5.75 0.75 5.75 0.75 8 3 C7.34 3.66 6.68 4.32 6 5 C3.98079663 3.69593116 1.98075027 2.36176581 0 1 C0 0.67 0 0.34 0 0 Z " fill="#015890" transform="translate(204,790)"/>
<path d="M0 0 C3.125 0.75 3.125 0.75 6 2 C6.33 2.66 6.66 3.32 7 4 C3.7 3.34 0.4 2.68 -3 2 C-2.01 1.34 -1.02 0.68 0 0 Z " fill="#0060A2" transform="translate(403,604)"/>
<path d="M0 0 C2.875 -0.125 2.875 -0.125 6 0 C6.66 0.66 7.32 1.32 8 2 C4.67465243 3.10844919 2.37817425 2.84454356 -1 2 C-0.67 1.34 -0.34 0.68 0 0 Z " fill="#0060A1" transform="translate(597,561)"/>
<path d="M0 0 C-0.33 0.99 -0.66 1.98 -1 3 C-2.98 3.33 -4.96 3.66 -7 4 C-7.33 3.34 -7.66 2.68 -8 2 C-2.25 0 -2.25 0 0 0 Z " fill="#0060A1" transform="translate(251,491)"/>
<path d="M0 0 C0.66 0.33 1.32 0.66 2 1 C-2.625 5.875 -2.625 5.875 -6 7 C-4.77065985 3.31197956 -3.06140622 2.27643027 0 0 Z " fill="#006CB5" transform="translate(264,481)"/>
<path d="M0 0 C0.66 0 1.32 0 2 0 C2.99 2.64 3.98 5.28 5 8 C4.01 7.67 3.02 7.34 2 7 C0.8125 3.4375 0.8125 3.4375 0 0 Z " fill="#0065A8" transform="translate(610,355)"/>
<path d="M0 0 C0.33 0.99 0.66 1.98 1 3 C-2.625 6 -2.625 6 -6 6 C-6 5.34 -6 4.68 -6 4 C-4.03852126 2.61061923 -2.03833424 1.2739589 0 0 Z " fill="#0066AA" transform="translate(390,257)"/>
<path d="M0 0 C1.89213369 2.38573379 3.02391783 4.07175348 4 7 C3.01 7 2.02 7 1 7 C-1 4 -1 4 -0.625 1.8125 C-0.41875 1.214375 -0.2125 0.61625 0 0 Z " fill="#00619F" transform="translate(837,251)"/>
<path d="M0 0 C0.99 0.33 1.98 0.66 3 1 C0.03 3.475 0.03 3.475 -3 6 C-3.66 5.34 -4.32 4.68 -5 4 C-4.34 4 -3.68 4 -3 4 C-3 3.34 -3 2.68 -3 2 C-2.01 1.34 -1.02 0.68 0 0 Z " fill="#006EB8" transform="translate(303,219)"/>
<path d="M0 0 C2.88437779 1.29299694 4.87219421 2.65941363 7 5 C3.09161134 5 1.88405893 3.49432124 -1 1 C-0.67 0.67 -0.34 0.34 0 0 Z " fill="#005FA2" transform="translate(585,212)"/>
<path d="M0 0 C2.31 1.65 4.62 3.3 7 5 C6.01 5.33 5.02 5.66 4 6 C1.8125 4.75 1.8125 4.75 0 3 C0 2.01 0 1.02 0 0 Z " fill="#005791" transform="translate(721,108)"/>
<path d="M0 0 C4 1 4 1 4 1 Z " fill="#000000" transform="translate(445,869)"/>
<path d="M0 0 C0.66 0.66 1.32 1.32 2 2 C1.01 1.67 0.02 1.34 -1 1 C-0.67 0.67 -0.34 0.34 0 0 Z " fill="#000000" transform="translate(299,841)"/>
<path d="M0 0 C0.66 0 1.32 0 2 0 C1.67 0.66 1.34 1.32 1 2 C0.67 1.34 0.34 0.68 0 0 Z " fill="#000000" transform="translate(534,861)"/>
<path d="M0 0 C0.33 0.66 0.66 1.32 1 2 C0.34 1.67 -0.32 1.34 -1 1 C-0.67 0.67 -0.34 0.34 0 0 Z " fill="#000000" transform="translate(557,23)"/>
<path d="M0 0 C0.66 0 1.32 0 2 0 C1.67 0.66 1.34 1.32 1 2 C0.67 1.34 0.34 0.68 0 0 Z " fill="#000000" transform="translate(553,23)"/>
<path d="M0 0 C3 1 3 1 3 1 Z " fill="#000000" transform="translate(549,23)"/>
<path d="M0 0 C2 1 2 1 2 1 Z " fill="#000000" transform="translate(426,868)"/>
<path d="M0 0 C2 1 2 1 2 1 Z " fill="#000000" transform="translate(420,868)"/>
<path d="M0 0 C2 1 2 1 2 1 Z " fill="#000000" transform="translate(526,862)"/>
<path d="M0 0 C2 1 2 1 2 1 Z " fill="#000000" transform="translate(374,862)"/>
<path d="M0 0 C2 1 2 1 2 1 Z " fill="#000000" transform="translate(539,860)"/>
<path d="M0 0 C2 1 2 1 2 1 Z " fill="#000000" transform="translate(359,859)"/>
<path d="M0 0 C2 1 2 1 2 1 Z " fill="#000000" transform="translate(355,858)"/>
<path d="M0 0 C2 1 2 1 2 1 Z " fill="#000000" transform="translate(331,852)"/>
<path d="M0 0 C2 1 2 1 2 1 Z " fill="#000000" transform="translate(311,846)"/>
<path d="M0 0 C2 1 2 1 2 1 Z " fill="#000000" transform="translate(303,843)"/>
<path d="M0 0 C2 1 2 1 2 1 Z " fill="#000000" transform="translate(252,821)"/>
<path d="M0 0 C2 1 2 1 2 1 Z " fill="#000000" transform="translate(195,786)"/>
<path d="M0 0 C2 1 2 1 2 1 Z " fill="#000000" transform="translate(146,748)"/>
<path d="" fill="#000000" transform="translate(0,0)"/>
<path d="" fill="#000000" transform="translate(0,0)"/>
<path d="" fill="#000000" transform="translate(0,0)"/>
<path d="M0 0 C2 1 2 1 2 1 Z " fill="#000000" transform="translate(275,47)"/>
<path d="M0 0 C2 1 2 1 2 1 Z " fill="#000000" transform="translate(331,27)"/>
<path d="" fill="#000000" transform="translate(0,0)"/>
<path d="M0 0 C2 1 2 1 2 1 Z " fill="#000000" transform="translate(371,18)"/>
<path d="" fill="#000000" transform="translate(0,0)"/>
<path d="M0 0 C2 1 2 1 2 1 Z " fill="#000000" transform="translate(504,15)"/>
<path d="M0 0 C2 1 2 1 2 1 Z " fill="#000000" transform="translate(388,15)"/>
<path d="" fill="#000000" transform="translate(0,0)"/>
<path d="" fill="#000000" transform="translate(0,0)"/>
<path d="" fill="#000000" transform="translate(0,0)"/>
<path d="" fill="#000000" transform="translate(0,0)"/>
<path d="" fill="#000000" transform="translate(0,0)"/>
<path d="" fill="#000000" transform="translate(0,0)"/>
<path d="" fill="#000000" transform="translate(0,0)"/>
<path d="" fill="#000000" transform="translate(0,0)"/>
<path d="" fill="#000000" transform="translate(0,0)"/>
<path d="" fill="#000000" transform="translate(0,0)"/>
<path d="" fill="#000000" transform="translate(0,0)"/>
<path d="" fill="#000000" transform="translate(0,0)"/>
<path d="" fill="#000000" transform="translate(0,0)"/>
<path d="" fill="#000000" transform="translate(0,0)"/>
<path d="" fill="#000000" transform="translate(0,0)"/>
<path d="" fill="#000000" transform="translate(0,0)"/>
<path d="" fill="#000000" transform="translate(0,0)"/>
<path d="" fill="#000000" transform="translate(0,0)"/>
<path d="" fill="#000000" transform="translate(0,0)"/>
<path d="" fill="#000000" transform="translate(0,0)"/>
<path d="" fill="#000000" transform="translate(0,0)"/>
<path d="" fill="#000000" transform="translate(0,0)"/>
<path d="" fill="#000000" transform="translate(0,0)"/>
<path d="" fill="#000000" transform="translate(0,0)"/>
<path d="" fill="#000000" transform="translate(0,0)"/>
<path d="" fill="#000000" transform="translate(0,0)"/>
<path d="" fill="#000000" transform="translate(0,0)"/>
<path d="" fill="#000000" transform="translate(0,0)"/>
<path d="" fill="#000000" transform="translate(0,0)"/>
<path d="" fill="#000000" transform="translate(0,0)"/>
<path d="" fill="#000000" transform="translate(0,0)"/>
<path d="" fill="#000000" transform="translate(0,0)"/>
<path d="" fill="#000000" transform="translate(0,0)"/>
<path d="" fill="#000000" transform="translate(0,0)"/>
<path d="" fill="#000000" transform="translate(0,0)"/>
<path d="" fill="#000000" transform="translate(0,0)"/>
<path d="" fill="#000000" transform="translate(0,0)"/>
<path d="" fill="#000000" transform="translate(0,0)"/>
<path d="" fill="#000000" transform="translate(0,0)"/>
<path d="" fill="#000000" transform="translate(0,0)"/>
<path d="" fill="#000000" transform="translate(0,0)"/>
<path d="" fill="#000000" transform="translate(0,0)"/>
<path d="" fill="#000000" transform="translate(0,0)"/>
<path d="" fill="#000000" transform="translate(0,0)"/>
<path d="" fill="#000000" transform="translate(0,0)"/>
<path d="" fill="#000000" transform="translate(0,0)"/>
<path d="" fill="#000000" transform="translate(0,0)"/>
<path d="" fill="#000000" transform="translate(0,0)"/>
<path d="" fill="#000000" transform="translate(0,0)"/>
<path d="" fill="#000000" transform="translate(0,0)"/>
<path d="" fill="#000000" transform="translate(0,0)"/>
<path d="" fill="#000000" transform="translate(0,0)"/>
<path d="" fill="#000000" transform="translate(0,0)"/>
<path d="" fill="#000000" transform="translate(0,0)"/>
<path d="" fill="#000000" transform="translate(0,0)"/>
<path d="" fill="#000000" transform="translate(0,0)"/>
<path d="" fill="#000000" transform="translate(0,0)"/>
<path d="" fill="#000000" transform="translate(0,0)"/>
<path d="" fill="#000000" transform="translate(0,0)"/>
<path d="" fill="#000000" transform="translate(0,0)"/>
<path d="" fill="#000000" transform="translate(0,0)"/>
<path d="" fill="#000000" transform="translate(0,0)"/>
<path d="" fill="#000000" transform="translate(0,0)"/>
<path d="" fill="#000000" transform="translate(0,0)"/>
<path d="" fill="#000000" transform="translate(0,0)"/>
<path d="" fill="#000000" transform="translate(0,0)"/>
<path d="" fill="#000000" transform="translate(0,0)"/>
<path d="" fill="#000000" transform="translate(0,0)"/>
<path d="" fill="#000000" transform="translate(0,0)"/>
<path d="" fill="#000000" transform="translate(0,0)"/>
<path d="" fill="#000000" transform="translate(0,0)"/>
<path d="" fill="#000000" transform="translate(0,0)"/>
<path d="" fill="#000000" transform="translate(0,0)"/>
<path d="" fill="#000000" transform="translate(0,0)"/>
<path d="" fill="#000000" transform="translate(0,0)"/>
<path d="" fill="#000000" transform="translate(0,0)"/>
<path d="" fill="#000000" transform="translate(0,0)"/>
<path d="" fill="#000000" transform="translate(0,0)"/>
<path d="" fill="#000000" transform="translate(0,0)"/>
<path d="" fill="#000000" transform="translate(0,0)"/>
<path d="" fill="#000000" transform="translate(0,0)"/>
<path d="" fill="#000000" transform="translate(0,0)"/>
<path d="" fill="#000000" transform="translate(0,0)"/>
<path d="" fill="#000000" transform="translate(0,0)"/>
<path d="" fill="#000000" transform="translate(0,0)"/>
<path d="" fill="#000000" transform="translate(0,0)"/>
<path d="" fill="#000000" transform="translate(0,0)"/>
<path d="" fill="#000000" transform="translate(0,0)"/>
<path d="" fill="#000000" transform="translate(0,0)"/>
<path d="" fill="#000000" transform="translate(0,0)"/>
<path d="" fill="#000000" transform="translate(0,0)"/>
<path d="" fill="#000000" transform="translate(0,0)"/>
<path d="" fill="#000000" transform="translate(0,0)"/>
<path d="" fill="#000000" transform="translate(0,0)"/>
<path d="" fill="#000000" transform="translate(0,0)"/>
<path d="" fill="#000000" transform="translate(0,0)"/>
<path d="" fill="#000000" transform="translate(0,0)"/>
<path d="" fill="#000000" transform="translate(0,0)"/>
<path d="" fill="#000000" transform="translate(0,0)"/>
<path d="" fill="#000000" transform="translate(0,0)"/>
<path d="" fill="#000000" transform="translate(0,0)"/>
<path d="" fill="#000000" transform="translate(0,0)"/>
<path d="" fill="#000000" transform="translate(0,0)"/>
<path d="" fill="#000000" transform="translate(0,0)"/>
<path d="" fill="#000000" transform="translate(0,0)"/>
<path d="" fill="#000000" transform="translate(0,0)"/>
<path d="" fill="#000000" transform="translate(0,0)"/>
<path d="" fill="#000000" transform="translate(0,0)"/>
<path d="" fill="#000000" transform="translate(0,0)"/>
<path d="" fill="#000000" transform="translate(0,0)"/>
<path d="" fill="#000000" transform="translate(0,0)"/>
<path d="" fill="#000000" transform="translate(0,0)"/>
<path d="" fill="#000000" transform="translate(0,0)"/>
<path d="" fill="#000000" transform="translate(0,0)"/>
<path d="" fill="#000000" transform="translate(0,0)"/>
<path d="" fill="#000000" transform="translate(0,0)"/>
<path d="" fill="#000000" transform="translate(0,0)"/>
<path d="" fill="#000000" transform="translate(0,0)"/>
<path d="" fill="#000000" transform="translate(0,0)"/>
<path d="" fill="#000000" transform="translate(0,0)"/>
<path d="" fill="#000000" transform="translate(0,0)"/>
<path d="" fill="#000000" transform="translate(0,0)"/>
<path d="" fill="#000000" transform="translate(0,0)"/>
<path d="" fill="#000000" transform="translate(0,0)"/>
<path d="" fill="#000000" transform="translate(0,0)"/>
<path d="" fill="#000000" transform="translate(0,0)"/>
<path d="" fill="#000000" transform="translate(0,0)"/>
<path d="" fill="#000000" transform="translate(0,0)"/>
<path d="" fill="#000000" transform="translate(0,0)"/>
<path d="" fill="#000000" transform="translate(0,0)"/>
<path d="" fill="#000000" transform="translate(0,0)"/>
<path d="" fill="#000000" transform="translate(0,0)"/>
<path d="" fill="#000000" transform="translate(0,0)"/>
<path d="" fill="#000000" transform="translate(0,0)"/>
<path d="" fill="#000000" transform="translate(0,0)"/>
<path d="" fill="#000000" transform="translate(0,0)"/>
<path d="" fill="#000000" transform="translate(0,0)"/>
<path d="" fill="#000000" transform="translate(0,0)"/>
<path d="" fill="#000000" transform="translate(0,0)"/>
<path d="" fill="#000000" transform="translate(0,0)"/>
<path d="" fill="#000000" transform="translate(0,0)"/>
<path d="" fill="#000000" transform="translate(0,0)"/>
<path d="" fill="#000000" transform="translate(0,0)"/>
<path d="" fill="#000000" transform="translate(0,0)"/>
<path d="" fill="#000000" transform="translate(0,0)"/>
<path d="" fill="#000000" transform="translate(0,0)"/>
<path d="" fill="#000000" transform="translate(0,0)"/>
<path d="" fill="#000000" transform="translate(0,0)"/>
<path d="" fill="#000000" transform="translate(0,0)"/>
<path d="" fill="#000000" transform="translate(0,0)"/>
<path d="" fill="#000000" transform="translate(0,0)"/>
<path d="" fill="#000000" transform="translate(0,0)"/>
<path d="" fill="#000000" transform="translate(0,0)"/>
<path d="" fill="#000000" transform="translate(0,0)"/>
<path d="" fill="#000000" transform="translate(0,0)"/>
<path d="" fill="#000000" transform="translate(0,0)"/>
<path d="" fill="#000000" transform="translate(0,0)"/>
<path d="" fill="#000000" transform="translate(0,0)"/>
<path d="" fill="#000000" transform="translate(0,0)"/>
<path d="" fill="#000000" transform="translate(0,0)"/>
<path d="" fill="#000000" transform="translate(0,0)"/>
<path d="" fill="#000000" transform="translate(0,0)"/>
<path d="" fill="#000000" transform="translate(0,0)"/>
<path d="" fill="#000000" transform="translate(0,0)"/>
<path d="" fill="#000000" transform="translate(0,0)"/>
<path d="" fill="#000000" transform="translate(0,0)"/>
<path d="" fill="#000000" transform="translate(0,0)"/>
<path d="" fill="#000000" transform="translate(0,0)"/>
<path d="" fill="#000000" transform="translate(0,0)"/>
<path d="" fill="#000000" transform="translate(0,0)"/>
<path d="" fill="#000000" transform="translate(0,0)"/>
<path d="" fill="#000000" transform="translate(0,0)"/>
<path d="" fill="#000000" transform="translate(0,0)"/>
<path d="" fill="#000000" transform="translate(0,0)"/>
<path d="" fill="#000000" transform="translate(0,0)"/>
<path d="" fill="#000000" transform="translate(0,0)"/>
<path d="" fill="#000000" transform="translate(0,0)"/>
<path d="" fill="#000000" transform="translate(0,0)"/>
<path d="" fill="#000000" transform="translate(0,0)"/>
<path d="" fill="#000000" transform="translate(0,0)"/>
<path d="" fill="#000000" transform="translate(0,0)"/>
<path d="" fill="#000000" transform="translate(0,0)"/>
<path d="" fill="#000000" transform="translate(0,0)"/>
<path d="" fill="#000000" transform="translate(0,0)"/>
<path d="" fill="#000000" transform="translate(0,0)"/>
<path d="" fill="#000000" transform="translate(0,0)"/>
<path d="" fill="#000000" transform="translate(0,0)"/>
<path d="" fill="#000000" transform="translate(0,0)"/>
<path d="" fill="#000000" transform="translate(0,0)"/>
<path d="" fill="#000000" transform="translate(0,0)"/>
<path d="" fill="#000000" transform="translate(0,0)"/>
<path d="" fill="#000000" transform="translate(0,0)"/>
<path d="" fill="#000000" transform="translate(0,0)"/>
<path d="" fill="#000000" transform="translate(0,0)"/>
<path d="" fill="#000000" transform="translate(0,0)"/>
<path d="" fill="#000000" transform="translate(0,0)"/>
<path d="" fill="#000000" transform="translate(0,0)"/>
<path d="" fill="#000000" transform="translate(0,0)"/>
<path d="" fill="#000000" transform="translate(0,0)"/>
<path d="" fill="#000000" transform="translate(0,0)"/>
<path d="" fill="#000000" transform="translate(0,0)"/>
<path d="" fill="#000000" transform="translate(0,0)"/>
<path d="" fill="#000000" transform="translate(0,0)"/>
<path d="" fill="#000000" transform="translate(0,0)"/>
<path d="" fill="#000000" transform="translate(0,0)"/>
<path d="" fill="#000000" transform="translate(0,0)"/>
<path d="" fill="#000000" transform="translate(0,0)"/>
<path d="" fill="#000000" transform="translate(0,0)"/>
<path d="" fill="#000000" transform="translate(0,0)"/>
<path d="" fill="#000000" transform="translate(0,0)"/>
<path d="" fill="#000000" transform="translate(0,0)"/>
<path d="" fill="#000000" transform="translate(0,0)"/>
<path d="" fill="#000000" transform="translate(0,0)"/>
<path d="" fill="#000000" transform="translate(0,0)"/>
<path d="" fill="#000000" transform="translate(0,0)"/>
<path d="" fill="#000000" transform="translate(0,0)"/>
<path d="" fill="#000000" transform="translate(0,0)"/>
<path d="" fill="#000000" transform="translate(0,0)"/>
<path d="" fill="#000000" transform="translate(0,0)"/>
<path d="" fill="#000000" transform="translate(0,0)"/>
<path d="" fill="#000000" transform="translate(0,0)"/>
<path d="" fill="#000000" transform="translate(0,0)"/>
<path d="" fill="#000000" transform="translate(0,0)"/>
<path d="" fill="#000000" transform="translate(0,0)"/>
<path d="" fill="#000000" transform="translate(0,0)"/>
<path d="" fill="#000000" transform="translate(0,0)"/>
<path d="" fill="#000000" transform="translate(0,0)"/>
<path d="" fill="#000000" transform="translate(0,0)"/>
<path d="" fill="#000000" transform="translate(0,0)"/>
<path d="" fill="#000000" transform="translate(0,0)"/>
<path d="" fill="#000000" transform="translate(0,0)"/>
</svg>
