<?xml version="1.0" encoding="UTF-8" standalone="no"?>
<svg
   xmlns:dc="http://purl.org/dc/elements/1.1/"
   xmlns:cc="http://creativecommons.org/ns#"
   xmlns:rdf="http://www.w3.org/1999/02/22-rdf-syntax-ns#"
   xmlns:svg="http://www.w3.org/2000/svg"
   xmlns="http://www.w3.org/2000/svg"
   viewBox="0 0 1000 1000"
   height="1000"
   width="1000"
   xml:space="preserve"
   id="svg2"
   version="1.1"><metadata
     id="metadata8"><rdf:RDF><cc:Work
         rdf:about=""><dc:format>image/svg+xml</dc:format><dc:type
           rdf:resource="http://purl.org/dc/dcmitype/StillImage" /></cc:Work></rdf:RDF></metadata><defs
     id="defs6"><clipPath
       id="clipPath18"
       clipPathUnits="userSpaceOnUse"><path
         id="path16"
         d="M 0,750 H 750 V 0 H 0 Z" /></clipPath></defs><g
     transform="matrix(1.3333333,0,0,-1.3333333,0,1000)"
     id="g10"><g
       id="g12"><g
         clip-path="url(#clipPath18)"
         id="g14"><g
           transform="translate(566.4375,741.7915)"
           id="g20"><path
             id="path22"
             style="fill:#bc3618;fill-opacity:1;fill-rule:nonzero;stroke:none"
             d="m 0,0 h -382.927 c -14.77,0 -26.645,-11.876 -26.645,-26.645 v -87.244 H 26.646 v 87.244 C 26.646,-11.876 14.77,0 0,0" /></g><g
           transform="translate(611.5293,688.4736)"
           id="g24"><path
             id="path26"
             style="fill:#d13816;fill-opacity:1;fill-rule:nonzero;stroke:none"
             d="m 0,0 h -473.063 c -21.317,0 -38.522,-17.205 -38.522,-38.521 V -68.82 H 38.521 v 30.299 C 38.521,-17.205 21.316,0 0,0" /></g><g
           transform="translate(666.9541,633.835)"
           id="g28"><path
             id="path30"
             style="fill:#e15a17;fill-opacity:1;fill-rule:nonzero;stroke:none"
             d="m 0,0 h -583.908 c -21.316,0 -38.521,-17.206 -38.521,-38.521 v -548.432 c 0,-21.316 17.357,-38.673 38.673,-38.673 H -0.152 c 21.316,0 38.673,17.357 38.673,38.673 V -38.521 C 38.521,-17.206 21.316,0 0,0" /></g><g
           transform="translate(239.5591,456.4414)"
           id="g32"><path
             id="path34"
             style="fill:#f7b192;fill-opacity:1;fill-rule:nonzero;stroke:none"
             d="m 0,0 c -26.339,0 -47.656,21.316 -47.656,47.658 0,26.339 21.317,47.655 47.656,47.655 26.341,0 47.658,-21.316 47.658,-47.655 C 47.658,21.316 26.341,0 0,0 m 0,120.893 c -40.499,0 -73.387,-32.887 -73.387,-73.388 0,-40.5 32.888,-73.388 73.387,-73.388 40.501,0 73.389,32.888 73.389,73.388 0,40.501 -32.888,73.388 -73.389,73.388" /></g><path
           id="path36"
           style="fill:#f7b192;fill-opacity:1;fill-rule:nonzero;stroke:none"
           d="M 267.121,438.516 H 212.765 V 289.761 h 54.356 z" /><g
           transform="translate(514.7168,455.4209)"
           id="g38"><path
             id="path40"
             style="fill:#fcdacb;fill-opacity:1;fill-rule:nonzero;stroke:none"
             d="m 0,0 c -26.341,0 -47.657,21.316 -47.657,47.658 0,26.339 21.316,47.655 47.657,47.655 26.34,0 47.656,-21.316 47.656,-47.655 C 47.656,21.316 26.187,0 0,0 m -227.473,-324.004 c 0,-26.34 -21.316,-47.656 -47.657,-47.656 -26.34,0 -47.656,21.316 -47.656,47.656 0,26.342 21.316,47.658 47.656,47.658 26.341,0 47.657,-21.316 47.657,-47.658 M 73.389,47.505 c 0,40.5 -32.888,73.387 -73.389,73.387 -40.501,0 -73.388,-32.887 -73.388,-73.387 0,-31.213 19.489,-57.858 47.047,-68.515 v -50.399 l -275.585,-91.049 h -0.457 v -93.334 c -26.95,-10.811 -45.982,-37.303 -45.982,-68.06 0,-40.499 32.888,-73.386 73.389,-73.386 40.499,0 73.387,32.887 73.387,73.386 0,30.452 -18.576,56.641 -44.916,67.755 v 57.858 l 274.064,90.593 -0.609,1.067 h 0.609 v 86.177 c 26.797,10.811 45.83,37.15 45.83,67.907" /></g></g></g></g></svg>